<svg width="163" height="40" viewBox="0 0 163 40" fill="none" xmlns="http://www.w3.org/2000/svg">
<g clip-path="url(#clip0_17_2911)">
<path d="M25.0618 19.6272V14.498L25.3816 14.3292C25.5895 14.2211 25.7205 14.0068 25.723 13.7722C25.7256 13.5382 25.5987 13.3214 25.3934 13.2085L15.8273 8.09012C15.636 7.98521 15.4045 7.98583 15.2119 8.09201L5.6983 13.2168C5.49576 13.3297 5.37053 13.5439 5.3718 13.7763C5.37307 14.0087 5.50087 14.2214 5.70594 14.3321L9.88619 16.5571C9.83374 16.6497 9.80131 16.7552 9.80131 16.869V22.2494C9.80133 22.3391 9.82032 22.4278 9.85703 22.5096C9.89374 22.5915 9.94734 22.6647 10.0143 22.7243C10.1523 22.8467 11.4736 23.9184 15.5133 23.9184C19.5387 23.9184 20.8956 22.9056 21.037 22.7902C21.1849 22.6697 21.2704 22.4891 21.2704 22.2977V16.7793C21.2704 16.69 21.2516 16.6051 21.2186 16.5282L23.7902 15.1697V19.6307C23.4131 19.8513 23.1575 20.256 23.1575 20.724C23.1575 21.4263 23.7269 21.9957 24.4292 21.9957C25.1314 21.9957 25.7008 21.4263 25.7008 20.724C25.7008 20.2532 25.4417 19.8469 25.0618 19.6272ZM19.9987 21.9334C19.4989 22.1737 18.1764 22.6468 15.5132 22.6468C12.8332 22.6468 11.5406 22.1432 11.0729 21.9009V17.1891L15.202 19.3872C15.2947 19.4373 15.3984 19.4635 15.5037 19.4635C15.6063 19.4636 15.7074 19.4386 15.7981 19.3907L19.9987 17.172V21.9334ZM15.5088 18.1073L7.33046 13.7646L15.5231 9.37388L23.7412 13.7519L15.5088 18.1073Z" fill="white"/>
</g>
<g clip-path="url(#clip1_17_2911)">
<path d="M41.8339 16.4293V14.2735L47.2393 5.75756H49.098V8.74162H47.998L44.5903 14.1344V14.2356H52.2717V16.4293H41.8339ZM48.0485 18.7053V15.7718L48.0991 14.8172V5.75756H50.6659V18.7053H48.0485ZM59.0649 18.8823C58.399 18.8781 57.7562 18.7664 57.1366 18.5473C56.5213 18.3281 55.9691 17.972 55.4802 17.4788C54.9913 16.9857 54.6036 16.3324 54.3169 15.519C54.0346 14.7055 53.8934 13.7066 53.8934 12.5223C53.8976 11.4349 54.0219 10.4633 54.2664 9.60775C54.515 8.74794 54.8691 8.01878 55.3285 7.42029C55.7921 6.82179 56.3464 6.36659 56.9912 6.0547C57.6361 5.73859 58.3589 5.58054 59.1597 5.58054C60.0237 5.58054 60.7866 5.74913 61.4483 6.08631C62.1101 6.41928 62.6411 6.87237 63.0415 7.44558C63.4461 8.01878 63.6906 8.66153 63.7749 9.37383H61.0753C60.97 8.92285 60.7487 8.56881 60.4115 8.31171C60.0743 8.05461 59.6571 7.92606 59.1597 7.92606C58.3168 7.92606 57.6761 8.29274 57.2378 9.02611C56.8037 9.75948 56.5824 10.7563 56.574 12.0165H56.6625C56.8563 11.6329 57.1177 11.3063 57.4464 11.0366C57.7794 10.7626 58.1566 10.554 58.5781 10.4107C59.0038 10.2631 59.4526 10.1894 59.9247 10.1894C60.6918 10.1894 61.3746 10.3706 61.9731 10.7331C62.5716 11.0913 63.0436 11.5845 63.3892 12.2125C63.7348 12.8405 63.9076 13.5591 63.9076 14.3683C63.9076 15.245 63.7032 16.0247 63.2944 16.7075C62.8898 17.3903 62.3229 17.9256 61.5937 18.3133C60.8688 18.6969 60.0259 18.8866 59.0649 18.8823ZM59.0522 16.7328C59.4737 16.7328 59.8509 16.6317 60.1839 16.4293C60.5169 16.227 60.7782 15.9531 60.9679 15.6075C61.1575 15.2619 61.2523 14.8741 61.2523 14.4442C61.2523 14.0143 61.1575 13.6286 60.9679 13.2872C60.7824 12.9458 60.5253 12.674 60.1965 12.4717C59.8678 12.2694 59.4927 12.1682 59.0712 12.1682C58.7551 12.1682 58.4622 12.2272 58.1924 12.3452C57.9269 12.4633 57.693 12.6276 57.4907 12.8384C57.2926 13.0491 57.1366 13.2936 57.0228 13.5717C56.909 13.8457 56.8521 14.1386 56.8521 14.4505C56.8521 14.8678 56.947 15.2492 57.1366 15.5948C57.3305 15.9404 57.5918 16.2165 57.9206 16.423C58.2535 16.6295 58.6308 16.7328 59.0522 16.7328ZM68.262 16.9351L68.1925 17.6306C68.1377 18.1869 68.0323 18.7411 67.8764 19.2933C67.7246 19.8496 67.5645 20.3533 67.3959 20.8043C67.2315 21.2553 67.0988 21.6093 66.9976 21.8664H65.2527C65.3159 21.6177 65.4023 21.27 65.5119 20.8232C65.6215 20.3807 65.7247 19.8833 65.8217 19.3312C65.9186 18.7791 65.9797 18.2164 66.005 17.6432L66.0366 16.9351H68.262ZM75.0678 18.8823C74.1237 18.8823 73.2829 18.7201 72.5453 18.3955C71.8119 18.0668 71.2324 17.6158 70.8067 17.0426C70.3852 16.4652 70.1682 15.7992 70.1555 15.0448H72.912C72.9288 15.3609 73.0321 15.6391 73.2218 15.8793C73.4156 16.1153 73.6727 16.2987 73.9931 16.4293C74.3134 16.56 74.6737 16.6253 75.0741 16.6253C75.4914 16.6253 75.8602 16.5516 76.1805 16.4041C76.5008 16.2565 76.7516 16.0521 76.9329 15.7908C77.1141 15.5295 77.2047 15.2281 77.2047 14.8867C77.2047 14.5411 77.1078 14.2356 76.9139 13.97C76.7242 13.7003 76.4503 13.4895 76.092 13.3378C75.738 13.1861 75.3165 13.1102 74.8276 13.1102H73.6201V11.0998H74.8276C75.2406 11.0998 75.6052 11.0281 75.9213 10.8848C76.2416 10.7415 76.4903 10.5434 76.6673 10.2905C76.8443 10.0334 76.9329 9.73419 76.9329 9.3928C76.9329 9.06826 76.8549 8.78376 76.6989 8.53931C76.5472 8.29064 76.3323 8.09676 76.0541 7.95767C75.7801 7.81858 75.4598 7.74904 75.0931 7.74904C74.7222 7.74904 74.3829 7.81647 74.0752 7.95135C73.7676 8.082 73.521 8.26956 73.3356 8.51402C73.1501 8.75847 73.0511 9.04508 73.0384 9.37383H70.4147C70.4274 8.62782 70.6402 7.97031 71.0533 7.40132C71.4663 6.83233 72.0227 6.38767 72.7223 6.06735C73.4262 5.74281 74.2207 5.58054 75.1058 5.58054C75.9993 5.58054 76.7811 5.74281 77.4513 6.06735C78.1214 6.39188 78.6419 6.83022 79.0128 7.38235C79.388 7.93027 79.5734 8.54563 79.5692 9.22842C79.5734 9.95336 79.3479 10.5582 78.8927 11.0429C78.4417 11.5276 77.8538 11.8353 77.1288 11.9659V12.0671C78.0814 12.1893 78.8063 12.5202 79.3037 13.0596C79.8052 13.5949 80.0539 14.2651 80.0497 15.0701C80.0539 15.8077 79.841 16.4631 79.4111 17.0363C78.9854 17.6095 78.3975 18.0605 77.6473 18.3892C76.897 18.718 76.0372 18.8823 75.0678 18.8823ZM82.0174 18.7053V16.7328L86.6263 12.4654C87.0183 12.086 87.347 11.7446 87.6125 11.4412C87.8823 11.1377 88.0867 10.8406 88.2258 10.5498C88.3649 10.2547 88.4344 9.9365 88.4344 9.59511C88.4344 9.21578 88.348 8.88913 88.1752 8.61517C88.0024 8.337 87.7664 8.12415 87.4671 7.97664C87.1679 7.8249 86.8286 7.74904 86.4493 7.74904C86.0531 7.74904 85.7075 7.82912 85.4124 7.98928C85.1174 8.14944 84.8898 8.37915 84.7296 8.67839C84.5695 8.97764 84.4894 9.33379 84.4894 9.74684H81.891C81.891 8.89967 82.0828 8.16419 82.4663 7.54041C82.8499 6.91662 83.3872 6.43403 84.0785 6.09263C84.7697 5.75124 85.5663 5.58054 86.4682 5.58054C87.3955 5.58054 88.2026 5.74492 88.8896 6.07367C89.5808 6.39821 90.1182 6.84919 90.5018 7.42661C90.8853 8.00403 91.0771 8.66575 91.0771 9.41176C91.0771 9.90068 90.9801 10.3833 90.7863 10.8595C90.5966 11.3358 90.2573 11.8648 89.7684 12.4464C89.2795 13.0238 88.5904 13.7171 87.7011 14.5264L85.8107 16.3788V16.4673H91.2478V18.7053H82.0174ZM98.0615 18.8823C97.0879 18.8823 96.2217 18.7243 95.4631 18.4082C94.7086 18.0879 94.1165 17.6516 93.6865 17.0995C93.2566 16.5474 93.0417 15.9215 93.0417 15.2218C93.0417 14.6823 93.1639 14.1871 93.4084 13.7361C93.657 13.2809 93.9942 12.9037 94.4199 12.6044C94.8456 12.301 95.3219 12.1071 95.8487 12.0228V11.9343C95.1575 11.7952 94.5969 11.4601 94.167 10.9291C93.7371 10.3938 93.5222 9.77213 93.5222 9.06404C93.5222 8.3939 93.7182 7.79751 94.1101 7.27488C94.5021 6.74803 95.0395 6.33498 95.7223 6.03574C96.4093 5.73227 97.189 5.58054 98.0615 5.58054C98.9339 5.58054 99.7116 5.73227 100.394 6.03574C101.081 6.3392 101.621 6.75435 102.013 7.2812C102.405 7.80383 102.603 8.39811 102.607 9.06404C102.603 9.77634 102.384 10.398 101.95 10.9291C101.515 11.4601 100.959 11.7952 100.281 11.9343V12.0228C100.799 12.1071 101.269 12.301 101.69 12.6044C102.116 12.9037 102.453 13.2809 102.702 13.7361C102.955 14.1871 103.083 14.6823 103.088 15.2218C103.083 15.9215 102.866 16.5474 102.436 17.0995C102.006 17.6516 101.412 18.0879 100.654 18.4082C99.8991 18.7243 99.0351 18.8823 98.0615 18.8823ZM98.0615 16.8719C98.4956 16.8719 98.8749 16.7939 99.1995 16.638C99.524 16.4778 99.7769 16.2587 99.9581 15.9805C100.144 15.6981 100.236 15.3735 100.236 15.0069C100.236 14.6318 100.141 14.3009 99.9518 14.0143C99.7621 13.7235 99.505 13.4959 99.1805 13.3315C98.856 13.1629 98.483 13.0786 98.0615 13.0786C97.6442 13.0786 97.2712 13.1629 96.9425 13.3315C96.6137 13.4959 96.3545 13.7235 96.1648 14.0143C95.9794 14.3009 95.8867 14.6318 95.8867 15.0069C95.8867 15.3735 95.9773 15.6981 96.1585 15.9805C96.3397 16.2587 96.5947 16.4778 96.9235 16.638C97.2522 16.7939 97.6316 16.8719 98.0615 16.8719ZM98.0615 11.0871C98.4239 11.0871 98.7464 11.0134 99.0288 10.8659C99.3112 10.7183 99.5324 10.5139 99.6926 10.2526C99.8528 9.99129 99.9328 9.68994 99.9328 9.34854C99.9328 9.01136 99.8528 8.71633 99.6926 8.46344C99.5324 8.20634 99.3133 8.00614 99.0351 7.86284C98.7569 7.71532 98.4324 7.64156 98.0615 7.64156C97.6948 7.64156 97.3703 7.71532 97.0879 7.86284C96.8055 8.00614 96.5842 8.20634 96.424 8.46344C96.2681 8.71633 96.1901 9.01136 96.1901 9.34854C96.1901 9.68994 96.2702 9.99129 96.4304 10.2526C96.5905 10.5139 96.8118 10.7183 97.0942 10.8659C97.3766 11.0134 97.699 11.0871 98.0615 11.0871Z" fill="white"/>
<path d="M43.0391 27.2047V35.7053H42.0098V27.2047H43.0391ZM45.9498 31.8701V35.7053H44.9702V29.3298H45.9166V30.326H45.9996C46.1491 30.0022 46.376 29.7421 46.6803 29.5457C46.9847 29.3464 47.3777 29.2468 47.8591 29.2468C48.2908 29.2468 48.6685 29.3354 48.9923 29.5125C49.316 29.6868 49.5679 29.9524 49.7477 30.3094C49.9276 30.6636 50.0175 31.1119 50.0175 31.6542V35.7053H49.0379V31.7206C49.0379 31.2198 48.9079 30.8296 48.6478 30.5501C48.3877 30.2679 48.0307 30.1268 47.5769 30.1268C47.2642 30.1268 46.9847 30.1946 46.7385 30.3302C46.4949 30.4657 46.3026 30.6636 46.1615 30.9237C46.0204 31.1838 45.9498 31.4993 45.9498 31.8701ZM56.3235 30.7577L55.4435 31.0067C55.3882 30.8601 55.3066 30.7176 55.1986 30.5792C55.0935 30.4381 54.9496 30.3218 54.767 30.2305C54.5843 30.1392 54.3505 30.0936 54.0655 30.0936C53.6753 30.0936 53.3502 30.1835 53.0901 30.3634C52.8327 30.5405 52.7041 30.766 52.7041 31.0399C52.7041 31.2834 52.7926 31.4757 52.9697 31.6169C53.1468 31.758 53.4235 31.8756 53.7998 31.9697L54.7462 32.2021C55.3162 32.3405 55.741 32.5522 56.0205 32.8372C56.3 33.1194 56.4397 33.4833 56.4397 33.9288C56.4397 34.2941 56.3345 34.6206 56.1242 34.9084C55.9167 35.1962 55.6262 35.4231 55.2526 35.5891C54.879 35.7551 54.4446 35.8381 53.9493 35.8381C53.299 35.8381 52.7608 35.697 52.3346 35.4148C51.9085 35.1325 51.6387 34.7202 51.5253 34.1779L52.455 33.9454C52.5436 34.2885 52.711 34.5459 52.9573 34.7175C53.2063 34.889 53.5314 34.9748 53.9327 34.9748C54.3892 34.9748 54.7517 34.8779 55.0202 34.6842C55.2913 34.4878 55.4269 34.2526 55.4269 33.9786C55.4269 33.7573 55.3494 33.5719 55.1945 33.4224C55.0395 33.2702 54.8016 33.1568 54.4806 33.0821L53.418 32.833C52.8341 32.6947 52.4052 32.4802 52.1313 32.1897C51.8601 31.8964 51.7245 31.5297 51.7245 31.0897C51.7245 30.73 51.8255 30.4118 52.0275 30.1351C52.2323 29.8584 52.5104 29.6411 52.8618 29.4834C53.216 29.3257 53.6172 29.2468 54.0655 29.2468C54.6964 29.2468 55.1917 29.3852 55.5514 29.6619C55.9139 29.9386 56.1713 30.3039 56.3235 30.7577ZM60.6869 29.3298V30.16H57.383V29.3298H60.6869ZM58.3459 27.8024H59.3255V33.879C59.3255 34.1557 59.3656 34.3633 59.4459 34.5016C59.5289 34.6372 59.634 34.7285 59.7613 34.7756C59.8914 34.8198 60.0283 34.842 60.1722 34.842C60.2801 34.842 60.3687 34.8364 60.4379 34.8254C60.5071 34.8115 60.5624 34.8005 60.6039 34.7922L60.8031 35.6721C60.7367 35.697 60.644 35.7219 60.525 35.7468C60.4061 35.7745 60.2552 35.7883 60.0726 35.7883C59.7959 35.7883 59.5247 35.7288 59.2591 35.6099C58.9962 35.4909 58.7776 35.3096 58.6033 35.0661C58.4317 34.8226 58.3459 34.5155 58.3459 34.1447V27.8024ZM62.1604 35.7053V29.3298H63.1068V30.2928H63.1732C63.2894 29.9773 63.4997 29.7214 63.8041 29.5249C64.1085 29.3284 64.4516 29.2302 64.8335 29.2302C64.9054 29.2302 64.9954 29.2316 65.1033 29.2344C65.2112 29.2371 65.2928 29.2413 65.3482 29.2468V30.243C65.315 30.2347 65.2389 30.2222 65.1199 30.2056C65.0037 30.1863 64.8805 30.1766 64.7505 30.1766C64.4405 30.1766 64.1638 30.2416 63.9203 30.3717C63.6796 30.4989 63.4886 30.676 63.3475 30.9029C63.2092 31.1271 63.14 31.383 63.14 31.6708V35.7053H62.1604ZM70.5272 33.0987V29.3298H71.5068V35.7053H70.5272V34.6261H70.4608C70.3114 34.9499 70.0789 35.2252 69.7635 35.4521C69.448 35.6763 69.0496 35.7883 68.5681 35.7883C68.1696 35.7883 67.8154 35.7012 67.5055 35.5268C67.1956 35.3497 66.9521 35.0841 66.775 34.7299C66.5979 34.3729 66.5093 33.9233 66.5093 33.3809V29.3298H67.4889V33.3145C67.4889 33.7794 67.619 34.1502 67.8791 34.4269C68.1419 34.7036 68.4768 34.842 68.8835 34.842C69.127 34.842 69.3747 34.7797 69.6265 34.6552C69.8811 34.5307 70.0942 34.3397 70.2657 34.0824C70.4401 33.8251 70.5272 33.4971 70.5272 33.0987ZM75.891 35.8381C75.2933 35.8381 74.7786 35.697 74.3469 35.4148C73.9152 35.1325 73.5832 34.7437 73.3507 34.2484C73.1183 33.7531 73.0021 33.1872 73.0021 32.5508C73.0021 31.9033 73.1211 31.3319 73.359 30.8365C73.5998 30.3385 73.9346 29.9497 74.3635 29.6702C74.7952 29.3879 75.2988 29.2468 75.8744 29.2468C76.3226 29.2468 76.7266 29.3298 77.0864 29.4959C77.4461 29.6619 77.7408 29.8943 77.9705 30.1932C78.2002 30.492 78.3427 30.8407 78.398 31.2392H77.4184C77.3437 30.9486 77.1777 30.6913 76.9203 30.4671C76.6658 30.2402 76.3226 30.1268 75.891 30.1268C75.5091 30.1268 75.1743 30.2264 74.8865 30.4256C74.6015 30.6221 74.3787 30.9002 74.2182 31.2599C74.0605 31.6169 73.9816 32.0361 73.9816 32.5176C73.9816 33.0101 74.0591 33.439 74.2141 33.8043C74.3718 34.1696 74.5932 34.4532 74.8782 34.6552C75.166 34.8572 75.5036 34.9582 75.891 34.9582C76.1455 34.9582 76.3766 34.9139 76.5841 34.8254C76.7917 34.7368 76.9674 34.6095 77.1113 34.4435C77.2552 34.2775 77.3576 34.0782 77.4184 33.8458H78.398C78.3427 34.2221 78.2057 34.5611 77.9871 34.8627C77.7712 35.1616 77.4848 35.3996 77.1279 35.5767C76.7737 35.751 76.3614 35.8381 75.891 35.8381ZM82.6027 29.3298V30.16H79.2987V29.3298H82.6027ZM80.2617 27.8024H81.2412V33.879C81.2412 34.1557 81.2814 34.3633 81.3616 34.5016C81.4446 34.6372 81.5498 34.7285 81.6771 34.7756C81.8071 34.8198 81.9441 34.842 82.088 34.842C82.1959 34.842 82.2845 34.8364 82.3536 34.8254C82.4228 34.8115 82.4782 34.8005 82.5197 34.7922L82.7189 35.6721C82.6525 35.697 82.5598 35.7219 82.4408 35.7468C82.3218 35.7745 82.171 35.7883 81.9884 35.7883C81.7117 35.7883 81.4405 35.7288 81.1748 35.6099C80.912 35.4909 80.6933 35.3096 80.519 35.0661C80.3475 34.8226 80.2617 34.5155 80.2617 34.1447V27.8024ZM86.5977 35.8381C86.0222 35.8381 85.5172 35.7012 85.0827 35.4272C84.6511 35.1533 84.3135 34.77 84.07 34.2775C83.8292 33.7849 83.7088 33.2094 83.7088 32.5508C83.7088 31.8867 83.8292 31.307 84.07 30.8116C84.3135 30.3163 84.6511 29.9317 85.0827 29.6577C85.5172 29.3838 86.0222 29.2468 86.5977 29.2468C87.1733 29.2468 87.6769 29.3838 88.1086 29.6577C88.543 29.9317 88.8806 30.3163 89.1214 30.8116C89.3649 31.307 89.4866 31.8867 89.4866 32.5508C89.4866 33.2094 89.3649 33.7849 89.1214 34.2775C88.8806 34.77 88.543 35.1533 88.1086 35.4272C87.6769 35.7012 87.1733 35.8381 86.5977 35.8381ZM86.5977 34.9582C87.0349 34.9582 87.3947 34.8461 87.6769 34.622C87.9592 34.3978 88.1681 34.1031 88.3037 33.7379C88.4393 33.3726 88.5071 32.9769 88.5071 32.5508C88.5071 32.1246 88.4393 31.7276 88.3037 31.3595C88.1681 30.9915 87.9592 30.694 87.6769 30.4671C87.3947 30.2402 87.0349 30.1268 86.5977 30.1268C86.1605 30.1268 85.8008 30.2402 85.5186 30.4671C85.2363 30.694 85.0274 30.9915 84.8918 31.3595C84.7562 31.7276 84.6884 32.1246 84.6884 32.5508C84.6884 32.9769 84.7562 33.3726 84.8918 33.7379C85.0274 34.1031 85.2363 34.3978 85.5186 34.622C85.8008 34.8461 86.1605 34.9582 86.5977 34.9582ZM90.9819 35.7053V29.3298H91.9283V30.2928H91.9947C92.1109 29.9773 92.3212 29.7214 92.6256 29.5249C92.93 29.3284 93.2731 29.2302 93.655 29.2302C93.7269 29.2302 93.8169 29.2316 93.9248 29.2344C94.0327 29.2371 94.1143 29.2413 94.1697 29.2468V30.243C94.1365 30.2347 94.0604 30.2222 93.9414 30.2056C93.8252 30.1863 93.702 30.1766 93.572 30.1766C93.262 30.1766 92.9853 30.2416 92.7418 30.3717C92.5011 30.4989 92.3102 30.676 92.169 30.9029C92.0307 31.1271 91.9615 31.383 91.9615 31.6708V35.7053H90.9819ZM99.8468 30.7577L98.9669 31.0067C98.9115 30.8601 98.8299 30.7176 98.722 30.5792C98.6168 30.4381 98.4729 30.3218 98.2903 30.2305C98.1077 30.1392 97.8738 30.0936 97.5888 30.0936C97.1987 30.0936 96.8735 30.1835 96.6134 30.3634C96.3561 30.5405 96.2274 30.766 96.2274 31.0399C96.2274 31.2834 96.3159 31.4757 96.493 31.6169C96.6701 31.758 96.9468 31.8756 97.3232 31.9697L98.2695 32.2021C98.8396 32.3405 99.2643 32.5522 99.5438 32.8372C99.8233 33.1194 99.963 33.4833 99.963 33.9288C99.963 34.2941 99.8579 34.6206 99.6476 34.9084C99.44 35.1962 99.1495 35.4231 98.7759 35.5891C98.4024 35.7551 97.9679 35.8381 97.4726 35.8381C96.8223 35.8381 96.2841 35.697 95.858 35.4148C95.4318 35.1325 95.162 34.7202 95.0486 34.1779L95.9783 33.9454C96.0669 34.2885 96.2343 34.5459 96.4806 34.7175C96.7296 34.889 97.0548 34.9748 97.456 34.9748C97.9126 34.9748 98.2751 34.8779 98.5435 34.6842C98.8147 34.4878 98.9503 34.2526 98.9503 33.9786C98.9503 33.7573 98.8728 33.5719 98.7178 33.4224C98.5629 33.2702 98.3249 33.1568 98.0039 33.0821L96.9413 32.833C96.3574 32.6947 95.9285 32.4802 95.6546 32.1897C95.3834 31.8964 95.2478 31.5297 95.2478 31.0897C95.2478 30.73 95.3488 30.4118 95.5508 30.1351C95.7556 29.8584 96.0337 29.6411 96.3851 29.4834C96.7393 29.3257 97.1405 29.2468 97.5888 29.2468C98.2197 29.2468 98.715 29.3852 99.0748 29.6619C99.4373 29.9386 99.6946 30.3039 99.8468 30.7577Z" fill="white"/>
</g>
<defs>
<clipPath id="clip0_17_2911">
<rect width="20.3465" height="20.3465" fill="white" transform="translate(5.37404 5.79193)"/>
</clipPath>
<clipPath id="clip1_17_2911">
<rect width="121.443" height="39" fill="white" transform="translate(40.9804 0.705322)"/>
</clipPath>
</defs>
</svg>
