<svg width="163" height="40" viewBox="0 0 163 40" fill="none" xmlns="http://www.w3.org/2000/svg">
<g clip-path="url(#clip0_17_2897)">
<path d="M25.0618 19.6658V14.5366L25.3816 14.3678C25.5895 14.2597 25.7205 14.0454 25.723 13.8108C25.7256 13.5768 25.5987 13.36 25.3934 13.2472L15.8273 8.12876C15.636 8.02385 15.4045 8.02446 15.2119 8.13064L5.6983 13.2554C5.49576 13.3683 5.37053 13.5825 5.3718 13.815C5.37307 14.0474 5.50087 14.26 5.70594 14.3707L9.88619 16.5958C9.83374 16.6883 9.80131 16.7938 9.80131 16.9076V22.288C9.80133 22.3777 9.82032 22.4664 9.85703 22.5483C9.89374 22.6301 9.94734 22.7033 10.0143 22.763C10.1523 22.8854 11.4736 23.9571 15.5133 23.9571C19.5387 23.9571 20.8956 22.9442 21.037 22.8288C21.1849 22.7083 21.2704 22.5277 21.2704 22.3363V16.818C21.2704 16.7286 21.2516 16.6438 21.2186 16.5668L23.7902 15.2084V19.6693C23.4131 19.89 23.1575 20.2947 23.1575 20.7626C23.1575 21.4649 23.7269 22.0343 24.4292 22.0343C25.1314 22.0343 25.7008 21.4649 25.7008 20.7626C25.7008 20.2918 25.4417 19.8855 25.0618 19.6658ZM19.9987 21.972C19.4989 22.2123 18.1764 22.6854 15.5132 22.6854C12.8332 22.6854 11.5406 22.1818 11.0729 21.9396V17.2278L15.202 19.4258C15.2947 19.4759 15.3984 19.5022 15.5037 19.5021C15.6063 19.5022 15.7074 19.4772 15.7981 19.4293L19.9987 17.2106V21.972ZM15.5088 18.1459L7.33046 13.8032L15.5231 9.41251L23.7412 13.7905L15.5088 18.1459Z" fill="white"/>
</g>
<g clip-path="url(#clip1_17_2897)">
<path d="M41.8339 16.468V14.3121L47.2393 5.7962H49.098V8.78025H47.998L44.5903 14.173V14.2742H52.2717V16.468H41.8339ZM48.0485 18.744V15.8105L48.0991 14.8558V5.7962H50.6659V18.744H48.0485ZM59.0649 18.921C58.399 18.9168 57.7562 18.8051 57.1366 18.5859C56.5213 18.3667 55.9691 18.0106 55.4802 17.5175C54.9913 17.0243 54.6036 16.371 54.3169 15.5576C54.0346 14.7441 53.8934 13.7452 53.8934 12.5609C53.8976 11.4735 54.0219 10.502 54.2664 9.64638C54.515 8.78657 54.8691 8.05742 55.3285 7.45892C55.7921 6.86042 56.3464 6.40523 56.9912 6.09334C57.6361 5.77723 58.3589 5.61918 59.1597 5.61918C60.0237 5.61918 60.7866 5.78777 61.4483 6.12495C62.1101 6.45791 62.6411 6.911 63.0415 7.48421C63.4461 8.05742 63.6906 8.70017 63.7749 9.41247H61.0753C60.97 8.96149 60.7487 8.60745 60.4115 8.35034C60.0743 8.09324 59.6571 7.96469 59.1597 7.96469C58.3168 7.96469 57.6761 8.33138 57.2378 9.06475C56.8037 9.79812 56.5824 10.7949 56.574 12.0551H56.6625C56.8563 11.6716 57.1177 11.3449 57.4464 11.0752C57.7794 10.8012 58.1566 10.5926 58.5781 10.4493C59.0038 10.3018 59.4526 10.228 59.9247 10.228C60.6918 10.228 61.3746 10.4093 61.9731 10.7717C62.5716 11.13 63.0436 11.6231 63.3892 12.2511C63.7348 12.8791 63.9076 13.5977 63.9076 14.407C63.9076 15.2836 63.7032 16.0634 63.2944 16.7462C62.8898 17.429 62.3229 17.9642 61.5937 18.352C60.8688 18.7355 60.0259 18.9252 59.0649 18.921ZM59.0522 16.7714C59.4737 16.7714 59.8509 16.6703 60.1839 16.468C60.5169 16.2657 60.7782 15.9917 60.9679 15.6461C61.1575 15.3005 61.2523 14.9127 61.2523 14.4828C61.2523 14.0529 61.1575 13.6673 60.9679 13.3259C60.7824 12.9845 60.5253 12.7126 60.1965 12.5103C59.8678 12.308 59.4927 12.2069 59.0712 12.2069C58.7551 12.2069 58.4622 12.2659 58.1924 12.3839C57.9269 12.5019 57.693 12.6663 57.4907 12.877C57.2926 13.0877 57.1366 13.3322 57.0228 13.6104C56.909 13.8843 56.8521 14.1773 56.8521 14.4892C56.8521 14.9064 56.947 15.2878 57.1366 15.6335C57.3305 15.9791 57.5918 16.2551 57.9206 16.4617C58.2535 16.6682 58.6308 16.7714 59.0522 16.7714ZM68.262 16.9738L68.1925 17.6692C68.1377 18.2255 68.0323 18.7798 67.8764 19.3319C67.7246 19.8883 67.5645 20.3919 67.3959 20.8429C67.2315 21.2939 67.0988 21.6479 66.9976 21.905H65.2527C65.3159 21.6564 65.4023 21.3086 65.5119 20.8619C65.6215 20.4193 65.7247 19.922 65.8217 19.3699C65.9186 18.8177 65.9797 18.255 66.005 17.6818L66.0366 16.9738H68.262ZM75.0678 18.921C74.1237 18.921 73.2829 18.7587 72.5453 18.4342C71.8119 18.1054 71.2324 17.6544 70.8067 17.0812C70.3852 16.5038 70.1682 15.8379 70.1555 15.0834H72.912C72.9288 15.3995 73.0321 15.6777 73.2218 15.918C73.4156 16.154 73.6727 16.3373 73.9931 16.468C74.3134 16.5986 74.6737 16.664 75.0741 16.664C75.4914 16.664 75.8602 16.5902 76.1805 16.4427C76.5008 16.2952 76.7516 16.0908 76.9329 15.8294C77.1141 15.5681 77.2047 15.2668 77.2047 14.9254C77.2047 14.5798 77.1078 14.2742 76.9139 14.0087C76.7242 13.7389 76.4503 13.5282 76.092 13.3765C75.738 13.2247 75.3165 13.1489 74.8276 13.1489H73.6201V11.1384H74.8276C75.2406 11.1384 75.6052 11.0668 75.9213 10.9235C76.2416 10.7802 76.4903 10.5821 76.6673 10.3292C76.8443 10.0721 76.9329 9.77283 76.9329 9.43143C76.9329 9.1069 76.8549 8.8224 76.6989 8.57794C76.5472 8.32927 76.3323 8.13539 76.0541 7.9963C75.7801 7.85722 75.4598 7.78767 75.0931 7.78767C74.7222 7.78767 74.3829 7.85511 74.0752 7.98998C73.7676 8.12064 73.521 8.3082 73.3356 8.55265C73.1501 8.79711 73.0511 9.08371 73.0384 9.41247H70.4147C70.4274 8.66645 70.6402 8.00895 71.0533 7.43996C71.4663 6.87096 72.0227 6.4263 72.7223 6.10598C73.4262 5.78144 74.2207 5.61918 75.1058 5.61918C75.9993 5.61918 76.7811 5.78144 77.4513 6.10598C78.1214 6.43052 78.6419 6.86885 79.0128 7.42099C79.388 7.96891 79.5734 8.58426 79.5692 9.26706C79.5734 9.992 79.3479 10.5968 78.8927 11.0815C78.4417 11.5662 77.8538 11.8739 77.1288 12.0045V12.1057C78.0814 12.2279 78.8063 12.5588 79.3037 13.0983C79.8052 13.6336 80.0539 14.3037 80.0497 15.1087C80.0539 15.8463 79.841 16.5017 79.4111 17.0749C78.9854 17.6481 78.3975 18.0991 77.6473 18.4279C76.897 18.7566 76.0372 18.921 75.0678 18.921ZM82.0174 18.744V16.7714L86.6263 12.504C87.0183 12.1247 87.347 11.7833 87.6125 11.4798C87.8823 11.1763 88.0867 10.8792 88.2258 10.5884C88.3649 10.2934 88.4344 9.97514 88.4344 9.63374C88.4344 9.25441 88.348 8.92777 88.1752 8.65381C88.0024 8.37563 87.7664 8.16279 87.4671 8.01527C87.1679 7.86354 86.8286 7.78767 86.4493 7.78767C86.0531 7.78767 85.7075 7.86775 85.4124 8.02792C85.1174 8.18808 84.8898 8.41778 84.7296 8.71703C84.5695 9.01628 84.4894 9.37242 84.4894 9.78547H81.891C81.891 8.9383 82.0828 8.20283 82.4663 7.57904C82.8499 6.95526 83.3872 6.47267 84.0785 6.13127C84.7697 5.78987 85.5663 5.61918 86.4682 5.61918C87.3955 5.61918 88.2026 5.78355 88.8896 6.1123C89.5808 6.43684 90.1182 6.88782 90.5018 7.46524C90.8853 8.04267 91.0771 8.70438 91.0771 9.4504C91.0771 9.93931 90.9801 10.4219 90.7863 10.8982C90.5966 11.3744 90.2573 11.9034 89.7684 12.485C89.2795 13.0625 88.5904 13.7558 87.7011 14.565L85.8107 16.4174V16.5059H91.2478V18.744H82.0174ZM98.0615 18.921C97.0879 18.921 96.2217 18.7629 95.4631 18.4468C94.7086 18.1265 94.1165 17.6903 93.6865 17.1381C93.2566 16.586 93.0417 15.9601 93.0417 15.2605C93.0417 14.721 93.1639 14.2257 93.4084 13.7747C93.657 13.3196 93.9942 12.9423 94.4199 12.6431C94.8456 12.3396 95.3219 12.1457 95.8487 12.0614V11.9729C95.1575 11.8338 94.5969 11.4988 94.167 10.9677C93.7371 10.4324 93.5222 9.81076 93.5222 9.10268C93.5222 8.43253 93.7182 7.83614 94.1101 7.31351C94.5021 6.78667 95.0395 6.37362 95.7223 6.07437C96.4093 5.77091 97.189 5.61918 98.0615 5.61918C98.9339 5.61918 99.7116 5.77091 100.394 6.07437C101.081 6.37783 101.621 6.79299 102.013 7.31983C102.405 7.84247 102.603 8.43675 102.607 9.10268C102.603 9.81498 102.384 10.4367 101.95 10.9677C101.515 11.4988 100.959 11.8338 100.281 11.9729V12.0614C100.799 12.1457 101.269 12.3396 101.69 12.6431C102.116 12.9423 102.453 13.3196 102.702 13.7747C102.955 14.2257 103.083 14.721 103.088 15.2605C103.083 15.9601 102.866 16.586 102.436 17.1381C102.006 17.6903 101.412 18.1265 100.654 18.4468C99.8991 18.7629 99.0351 18.921 98.0615 18.921ZM98.0615 16.9105C98.4956 16.9105 98.8749 16.8326 99.1995 16.6766C99.524 16.5165 99.7769 16.2973 99.9581 16.0191C100.144 15.7367 100.236 15.4122 100.236 15.0455C100.236 14.6704 100.141 14.3395 99.9518 14.0529C99.7621 13.7621 99.505 13.5345 99.1805 13.3701C98.856 13.2015 98.483 13.1172 98.0615 13.1172C97.6442 13.1172 97.2712 13.2015 96.9425 13.3701C96.6137 13.5345 96.3545 13.7621 96.1648 14.0529C95.9794 14.3395 95.8867 14.6704 95.8867 15.0455C95.8867 15.4122 95.9773 15.7367 96.1585 16.0191C96.3397 16.2973 96.5947 16.5165 96.9235 16.6766C97.2522 16.8326 97.6316 16.9105 98.0615 16.9105ZM98.0615 11.1258C98.4239 11.1258 98.7464 11.052 99.0288 10.9045C99.3112 10.757 99.5324 10.5526 99.6926 10.2912C99.8528 10.0299 99.9328 9.72857 99.9328 9.38718C99.9328 9.05 99.8528 8.75496 99.6926 8.50208C99.5324 8.24498 99.3133 8.04477 99.0351 7.90147C98.7569 7.75396 98.4324 7.6802 98.0615 7.6802C97.6948 7.6802 97.3703 7.75396 97.0879 7.90147C96.8055 8.04477 96.5842 8.24498 96.424 8.50208C96.2681 8.75496 96.1901 9.05 96.1901 9.38718C96.1901 9.72857 96.2702 10.0299 96.4304 10.2912C96.5905 10.5526 96.8118 10.757 97.0942 10.9045C97.3766 11.052 97.699 11.1258 98.0615 11.1258Z" fill="white"/>
<path d="M43.0391 27.2433V35.744H42.0098V27.2433H43.0391ZM45.9498 31.9087V35.744H44.9702V29.3685H45.9166V30.3646H45.9996C46.1491 30.0409 46.376 29.7808 46.6803 29.5843C46.9847 29.3851 47.3777 29.2855 47.8591 29.2855C48.2908 29.2855 48.6685 29.374 48.9923 29.5511C49.316 29.7254 49.5679 29.9911 49.7477 30.348C49.9276 30.7022 50.0175 31.1505 50.0175 31.6929V35.744H49.0379V31.7593C49.0379 31.2584 48.9079 30.8683 48.6478 30.5888C48.3877 30.3065 48.0307 30.1654 47.5769 30.1654C47.2642 30.1654 46.9847 30.2332 46.7385 30.3688C46.4949 30.5044 46.3026 30.7022 46.1615 30.9623C46.0204 31.2224 45.9498 31.5379 45.9498 31.9087ZM56.3235 30.7963L55.4435 31.0454C55.3882 30.8987 55.3066 30.7562 55.1986 30.6178C55.0935 30.4767 54.9496 30.3605 54.767 30.2692C54.5843 30.1779 54.3505 30.1322 54.0655 30.1322C53.6753 30.1322 53.3502 30.2221 53.0901 30.402C52.8327 30.5791 52.7041 30.8046 52.7041 31.0786C52.7041 31.3221 52.7926 31.5144 52.9697 31.6555C53.1468 31.7966 53.4235 31.9142 53.7998 32.0083L54.7462 32.2408C55.3162 32.3791 55.741 32.5908 56.0205 32.8758C56.3 33.1581 56.4397 33.5219 56.4397 33.9675C56.4397 34.3327 56.3345 34.6592 56.1242 34.947C55.9167 35.2348 55.6262 35.4617 55.2526 35.6277C54.879 35.7938 54.4446 35.8768 53.9493 35.8768C53.299 35.8768 52.7608 35.7357 52.3346 35.4534C51.9085 35.1712 51.6387 34.7589 51.5253 34.2165L52.455 33.9841C52.5436 34.3272 52.711 34.5845 52.9573 34.7561C53.2063 34.9277 53.5314 35.0134 53.9327 35.0134C54.3892 35.0134 54.7517 34.9166 55.0202 34.7229C55.2913 34.5264 55.4269 34.2912 55.4269 34.0173C55.4269 33.7959 55.3494 33.6105 55.1945 33.4611C55.0395 33.3089 54.8016 33.1954 54.4806 33.1207L53.418 32.8717C52.8341 32.7333 52.4052 32.5189 52.1313 32.2283C51.8601 31.935 51.7245 31.5683 51.7245 31.1284C51.7245 30.7686 51.8255 30.4504 52.0275 30.1737C52.2323 29.897 52.5104 29.6798 52.8618 29.522C53.216 29.3643 53.6172 29.2855 54.0655 29.2855C54.6964 29.2855 55.1917 29.4238 55.5514 29.7005C55.9139 29.9772 56.1713 30.3425 56.3235 30.7963ZM60.6869 29.3685V30.1986H57.383V29.3685H60.6869ZM58.3459 27.841H59.3255V33.9176C59.3255 34.1944 59.3656 34.4019 59.4459 34.5403C59.5289 34.6758 59.634 34.7672 59.7613 34.8142C59.8914 34.8585 60.0283 34.8806 60.1722 34.8806C60.2801 34.8806 60.3687 34.8751 60.4379 34.864C60.5071 34.8502 60.5624 34.8391 60.6039 34.8308L60.8031 35.7108C60.7367 35.7357 60.644 35.7606 60.525 35.7855C60.4061 35.8131 60.2552 35.827 60.0726 35.827C59.7959 35.827 59.5247 35.7675 59.2591 35.6485C58.9962 35.5295 58.7776 35.3483 58.6033 35.1047C58.4317 34.8612 58.3459 34.5541 58.3459 34.1833V27.841ZM62.1604 35.744V29.3685H63.1068V30.3314H63.1732C63.2894 30.016 63.4997 29.76 63.8041 29.5635C64.1085 29.3671 64.4516 29.2688 64.8335 29.2688C64.9054 29.2688 64.9954 29.2702 65.1033 29.273C65.2112 29.2758 65.2928 29.2799 65.3482 29.2855V30.2816C65.315 30.2733 65.2389 30.2609 65.1199 30.2443C65.0037 30.2249 64.8805 30.2152 64.7505 30.2152C64.4405 30.2152 64.1638 30.2802 63.9203 30.4103C63.6796 30.5376 63.4886 30.7147 63.3475 30.9416C63.2092 31.1657 63.14 31.4217 63.14 31.7095V35.744H62.1604ZM70.5272 33.1373V29.3685H71.5068V35.744H70.5272V34.6648H70.4608C70.3114 34.9885 70.0789 35.2639 69.7635 35.4908C69.448 35.7149 69.0496 35.827 68.5681 35.827C68.1696 35.827 67.8154 35.7398 67.5055 35.5655C67.1956 35.3884 66.9521 35.1227 66.775 34.7685C66.5979 34.4116 66.5093 33.9619 66.5093 33.4196V29.3685H67.4889V33.3531C67.4889 33.818 67.619 34.1888 67.8791 34.4655C68.1419 34.7423 68.4768 34.8806 68.8835 34.8806C69.127 34.8806 69.3747 34.8183 69.6265 34.6938C69.8811 34.5693 70.0942 34.3784 70.2657 34.121C70.4401 33.8637 70.5272 33.5358 70.5272 33.1373ZM75.891 35.8768C75.2933 35.8768 74.7786 35.7357 74.3469 35.4534C73.9152 35.1712 73.5832 34.7824 73.3507 34.2871C73.1183 33.7917 73.0021 33.2259 73.0021 32.5894C73.0021 31.9419 73.1211 31.3705 73.359 30.8752C73.5998 30.3771 73.9346 29.9883 74.3635 29.7088C74.7952 29.4266 75.2988 29.2855 75.8744 29.2855C76.3226 29.2855 76.7266 29.3685 77.0864 29.5345C77.4461 29.7005 77.7408 29.933 77.9705 30.2318C78.2002 30.5307 78.3427 30.8793 78.398 31.2778H77.4184C77.3437 30.9872 77.1777 30.7299 76.9203 30.5058C76.6658 30.2789 76.3226 30.1654 75.891 30.1654C75.5091 30.1654 75.1743 30.265 74.8865 30.4643C74.6015 30.6607 74.3787 30.9388 74.2182 31.2985C74.0605 31.6555 73.9816 32.0747 73.9816 32.5562C73.9816 33.0488 74.0591 33.4777 74.2141 33.8429C74.3718 34.2082 74.5932 34.4918 74.8782 34.6938C75.166 34.8958 75.5036 34.9968 75.891 34.9968C76.1455 34.9968 76.3766 34.9526 76.5841 34.864C76.7917 34.7755 76.9674 34.6482 77.1113 34.4821C77.2552 34.3161 77.3576 34.1169 77.4184 33.8844H78.398C78.3427 34.2608 78.2057 34.5997 77.9871 34.9014C77.7712 35.2002 77.4848 35.4382 77.1279 35.6153C76.7737 35.7896 76.3614 35.8768 75.891 35.8768ZM82.6027 29.3685V30.1986H79.2987V29.3685H82.6027ZM80.2617 27.841H81.2412V33.9176C81.2412 34.1944 81.2814 34.4019 81.3616 34.5403C81.4446 34.6758 81.5498 34.7672 81.6771 34.8142C81.8071 34.8585 81.9441 34.8806 82.088 34.8806C82.1959 34.8806 82.2845 34.8751 82.3536 34.864C82.4228 34.8502 82.4782 34.8391 82.5197 34.8308L82.7189 35.7108C82.6525 35.7357 82.5598 35.7606 82.4408 35.7855C82.3218 35.8131 82.171 35.827 81.9884 35.827C81.7117 35.827 81.4405 35.7675 81.1748 35.6485C80.912 35.5295 80.6933 35.3483 80.519 35.1047C80.3475 34.8612 80.2617 34.5541 80.2617 34.1833V27.841ZM86.5977 35.8768C86.0222 35.8768 85.5172 35.7398 85.0827 35.4659C84.6511 35.1919 84.3135 34.8087 84.07 34.3161C83.8292 33.8236 83.7088 33.248 83.7088 32.5894C83.7088 31.9253 83.8292 31.3456 84.07 30.8503C84.3135 30.355 84.6511 29.9703 85.0827 29.6964C85.5172 29.4224 86.0222 29.2855 86.5977 29.2855C87.1733 29.2855 87.6769 29.4224 88.1086 29.6964C88.543 29.9703 88.8806 30.355 89.1214 30.8503C89.3649 31.3456 89.4866 31.9253 89.4866 32.5894C89.4866 33.248 89.3649 33.8236 89.1214 34.3161C88.8806 34.8087 88.543 35.1919 88.1086 35.4659C87.6769 35.7398 87.1733 35.8768 86.5977 35.8768ZM86.5977 34.9968C87.0349 34.9968 87.3947 34.8848 87.6769 34.6606C87.9592 34.4365 88.1681 34.1418 88.3037 33.7765C88.4393 33.4113 88.5071 33.0156 88.5071 32.5894C88.5071 32.1633 88.4393 31.7662 88.3037 31.3982C88.1681 31.0301 87.9592 30.7327 87.6769 30.5058C87.3947 30.2789 87.0349 30.1654 86.5977 30.1654C86.1605 30.1654 85.8008 30.2789 85.5186 30.5058C85.2363 30.7327 85.0274 31.0301 84.8918 31.3982C84.7562 31.7662 84.6884 32.1633 84.6884 32.5894C84.6884 33.0156 84.7562 33.4113 84.8918 33.7765C85.0274 34.1418 85.2363 34.4365 85.5186 34.6606C85.8008 34.8848 86.1605 34.9968 86.5977 34.9968ZM90.9819 35.744V29.3685H91.9283V30.3314H91.9947C92.1109 30.016 92.3212 29.76 92.6256 29.5635C92.93 29.3671 93.2731 29.2688 93.655 29.2688C93.7269 29.2688 93.8169 29.2702 93.9248 29.273C94.0327 29.2758 94.1143 29.2799 94.1697 29.2855V30.2816C94.1365 30.2733 94.0604 30.2609 93.9414 30.2443C93.8252 30.2249 93.702 30.2152 93.572 30.2152C93.262 30.2152 92.9853 30.2802 92.7418 30.4103C92.5011 30.5376 92.3102 30.7147 92.169 30.9416C92.0307 31.1657 91.9615 31.4217 91.9615 31.7095V35.744H90.9819ZM99.8468 30.7963L98.9669 31.0454C98.9115 30.8987 98.8299 30.7562 98.722 30.6178C98.6168 30.4767 98.4729 30.3605 98.2903 30.2692C98.1077 30.1779 97.8738 30.1322 97.5888 30.1322C97.1987 30.1322 96.8735 30.2221 96.6134 30.402C96.3561 30.5791 96.2274 30.8046 96.2274 31.0786C96.2274 31.3221 96.3159 31.5144 96.493 31.6555C96.6701 31.7966 96.9468 31.9142 97.3232 32.0083L98.2695 32.2408C98.8396 32.3791 99.2643 32.5908 99.5438 32.8758C99.8233 33.1581 99.963 33.5219 99.963 33.9675C99.963 34.3327 99.8579 34.6592 99.6476 34.947C99.44 35.2348 99.1495 35.4617 98.7759 35.6277C98.4024 35.7938 97.9679 35.8768 97.4726 35.8768C96.8223 35.8768 96.2841 35.7357 95.858 35.4534C95.4318 35.1712 95.162 34.7589 95.0486 34.2165L95.9783 33.9841C96.0669 34.3272 96.2343 34.5845 96.4806 34.7561C96.7296 34.9277 97.0548 35.0134 97.456 35.0134C97.9126 35.0134 98.2751 34.9166 98.5435 34.7229C98.8147 34.5264 98.9503 34.2912 98.9503 34.0173C98.9503 33.7959 98.8728 33.6105 98.7178 33.4611C98.5629 33.3089 98.3249 33.1954 98.0039 33.1207L96.9413 32.8717C96.3574 32.7333 95.9285 32.5189 95.6546 32.2283C95.3834 31.935 95.2478 31.5683 95.2478 31.1284C95.2478 30.7686 95.3488 30.4504 95.5508 30.1737C95.7556 29.897 96.0337 29.6798 96.3851 29.522C96.7393 29.3643 97.1405 29.2855 97.5888 29.2855C98.2197 29.2855 98.715 29.4238 99.0748 29.7005C99.4373 29.9772 99.6946 30.3425 99.8468 30.7963Z" fill="white"/>
</g>
<defs>
<clipPath id="clip0_17_2897">
<rect width="20.3465" height="20.3465" fill="white" transform="translate(5.37404 5.83057)"/>
</clipPath>
<clipPath id="clip1_17_2897">
<rect width="121.443" height="39" fill="white" transform="translate(40.9804 0.743958)"/>
</clipPath>
</defs>
</svg>
