<svg width="163" height="40" viewBox="0 0 163 40" fill="none" xmlns="http://www.w3.org/2000/svg">
<path d="M27.083 7.43038L15.6381 3.61542C15.4423 3.55015 15.2306 3.55015 15.0348 3.61542L3.58993 7.43038C3.40002 7.49369 3.23484 7.61515 3.1178 7.77755C3.00076 7.93995 2.93779 8.13506 2.93781 8.33524V17.8727C2.93781 18.1256 3.03829 18.3682 3.21715 18.5471C3.39601 18.7259 3.6386 18.8264 3.89155 18.8264C4.14449 18.8264 4.38708 18.7259 4.56594 18.5471C4.7448 18.3682 4.84529 18.1256 4.84529 17.8727V9.65856L8.84981 10.9926C7.78586 12.7115 7.44753 14.7823 7.9091 16.7505C8.37068 18.7186 9.59443 20.4231 11.3117 21.4897C9.16574 22.3314 7.31071 23.8538 5.95401 25.9353C5.88345 26.0402 5.83444 26.1581 5.80983 26.282C5.78522 26.406 5.78549 26.5336 5.81064 26.6575C5.83579 26.7814 5.88531 26.899 5.95632 27.0036C6.02733 27.1081 6.11841 27.1975 6.22428 27.2666C6.33015 27.3356 6.44868 27.383 6.573 27.4058C6.69731 27.4286 6.82493 27.4265 6.94843 27.3996C7.07192 27.3727 7.18884 27.3215 7.29237 27.249C7.39591 27.1765 7.484 27.0842 7.55153 26.9773C9.34814 24.221 12.1855 22.6414 15.3364 22.6414C18.4874 22.6414 21.3247 24.221 23.1214 26.9773C23.2612 27.1852 23.4773 27.3297 23.7229 27.3796C23.9685 27.4294 24.2238 27.3806 24.4337 27.2437C24.6436 27.1068 24.7912 26.8928 24.8445 26.648C24.8979 26.4032 24.8528 26.1472 24.7189 25.9353C23.3622 23.8538 21.5 22.3314 19.3612 21.4897C21.0768 20.4231 22.2994 18.7197 22.7609 16.7531C23.2224 14.7864 22.8851 12.7169 21.8231 10.9986L27.083 9.24607C27.2729 9.1828 27.4381 9.06135 27.5552 8.89895C27.6723 8.73654 27.7353 8.54141 27.7353 8.34121C27.7353 8.141 27.6723 7.94587 27.5552 7.78346C27.4381 7.62106 27.2729 7.49961 27.083 7.43634V7.43038ZM21.0589 15.0114C21.0591 15.9161 20.8449 16.808 20.4337 17.6138C20.0226 18.4197 19.4262 19.1166 18.6935 19.6473C17.9609 20.1781 17.1128 20.5275 16.219 20.667C15.3251 20.8066 14.4109 20.7322 13.5513 20.4499C12.6918 20.1677 11.9114 19.6857 11.2742 19.0435C10.637 18.4013 10.1612 17.6172 9.8857 16.7554C9.61024 15.8937 9.54302 14.9789 9.68956 14.0862C9.83609 13.1934 10.1922 12.3482 10.7287 11.6197L15.0348 13.0503C15.2306 13.1156 15.4423 13.1156 15.6381 13.0503L19.9442 11.6197C20.6688 12.602 21.0595 13.7908 21.0589 15.0114ZM15.3364 11.1452L6.90775 8.33524L15.3364 5.52528L23.7651 8.33524L15.3364 11.1452Z" fill="white"/>
<g clip-path="url(#clip0_17_2905)">
<path d="M41.819 18.7053V16.7328L46.4279 12.4654C46.8198 12.086 47.1486 11.7446 47.4141 11.4412C47.6839 11.1377 47.8883 10.8406 48.0274 10.5498C48.1664 10.2547 48.236 9.9365 48.236 9.59511C48.236 9.21578 48.1496 8.88913 47.9768 8.61517C47.804 8.337 47.5679 8.12415 47.2687 7.97664C46.9695 7.8249 46.6302 7.74904 46.2508 7.74904C45.8546 7.74904 45.509 7.82912 45.214 7.98928C44.919 8.14944 44.6914 8.37915 44.5312 8.67839C44.371 8.97764 44.291 9.33379 44.291 9.74684H41.6926C41.6926 8.89967 41.8843 8.16419 42.2679 7.54041C42.6514 6.91662 43.1888 6.43403 43.88 6.09263C44.5713 5.75124 45.3678 5.58054 46.2698 5.58054C47.197 5.58054 48.0042 5.74492 48.6912 6.07367C49.3824 6.39821 49.9198 6.84919 50.3033 7.42661C50.6869 8.00403 50.8786 8.66575 50.8786 9.41176C50.8786 9.90068 50.7817 10.3833 50.5878 10.8595C50.3982 11.3358 50.0589 11.8648 49.57 12.4464C49.081 13.0238 48.3919 13.7171 47.5026 14.5264L45.6123 16.3788V16.4673H51.0493V18.7053H41.819ZM55.9854 16.9351L55.9158 17.6306C55.861 18.1869 55.7557 18.7411 55.5997 19.2933C55.448 19.8496 55.2878 20.3533 55.1192 20.8043C54.9549 21.2553 54.8221 21.6093 54.7209 21.8664H52.976C53.0392 21.6177 53.1256 21.27 53.2352 20.8232C53.3448 20.3807 53.4481 19.8833 53.545 19.3312C53.642 18.7791 53.7031 18.2164 53.7284 17.6432L53.76 16.9351H55.9854ZM58.4226 18.7053V16.7328L63.0314 12.4654C63.4234 12.086 63.7521 11.7446 64.0177 11.4412C64.2874 11.1377 64.4918 10.8406 64.6309 10.5498C64.77 10.2547 64.8395 9.9365 64.8395 9.59511C64.8395 9.21578 64.7531 8.88913 64.5803 8.61517C64.4075 8.337 64.1715 8.12415 63.8722 7.97664C63.573 7.8249 63.2337 7.74904 62.8544 7.74904C62.4582 7.74904 62.1126 7.82912 61.8175 7.98928C61.5225 8.14944 61.2949 8.37915 61.1348 8.67839C60.9746 8.97764 60.8945 9.33379 60.8945 9.74684H58.2961C58.2961 8.89967 58.4879 8.16419 58.8714 7.54041C59.255 6.91662 59.7923 6.43403 60.4836 6.09263C61.1748 5.75124 61.9714 5.58054 62.8733 5.58054C63.8006 5.58054 64.6077 5.74492 65.2947 6.07367C65.9859 6.39821 66.5233 6.84919 66.9069 7.42661C67.2904 8.00403 67.4822 8.66575 67.4822 9.41176C67.4822 9.90068 67.3853 10.3833 67.1914 10.8595C67.0017 11.3358 66.6624 11.8648 66.1735 12.4464C65.6846 13.0238 64.9955 13.7171 64.1062 14.5264L62.2158 16.3788V16.4673H67.6529V18.7053H58.4226ZM69.1623 16.4293V14.2735L74.5677 5.75756H76.4265V8.74162H75.3264L71.9188 14.1344V14.2356H79.6002V16.4293H69.1623ZM75.377 18.7053V15.7718L75.4276 14.8172V5.75756H77.9943V18.7053H75.377ZM86.1531 18.8823C85.2595 18.8823 84.463 18.718 83.7633 18.3892C83.0679 18.0605 82.5157 17.6074 82.1069 17.03C81.6981 16.4525 81.4852 15.7908 81.4684 15.0448H84.1237C84.1532 15.5464 84.3639 15.9531 84.7559 16.265C85.1479 16.5769 85.6136 16.7328 86.1531 16.7328C86.583 16.7328 86.9623 16.638 87.2911 16.4483C87.624 16.2544 87.8832 15.9868 88.0687 15.6454C88.2584 15.2998 88.3532 14.9036 88.3532 14.4568C88.3532 14.0016 88.2562 13.6012 88.0624 13.2556C87.8727 12.91 87.6093 12.6403 87.2721 12.4464C86.9349 12.2525 86.5493 12.1535 86.1151 12.1493C85.7358 12.1493 85.367 12.2272 85.0088 12.3832C84.6547 12.5391 84.3787 12.752 84.1806 13.0217L81.7465 12.5855L82.3598 5.75756H90.2751V7.9956H84.6168L84.2817 11.2389H84.3576C84.5852 10.9185 84.9287 10.653 85.3881 10.4423C85.8475 10.2315 86.3617 10.1262 86.9307 10.1262C87.7104 10.1262 88.4059 10.3095 89.017 10.6762C89.6281 11.0429 90.1107 11.5465 90.4648 12.1872C90.8188 12.8236 90.9937 13.557 90.9895 14.3873C90.9937 15.2598 90.7914 16.0353 90.3826 16.7138C89.978 17.3882 89.4111 17.9193 88.6819 18.307C87.957 18.6906 87.114 18.8823 86.1531 18.8823ZM95.434 16.9351L95.3644 17.6306C95.3097 18.1869 95.2043 18.7411 95.0483 19.2933C94.8966 19.8496 94.7364 20.3533 94.5679 20.8043C94.4035 21.2553 94.2707 21.6093 94.1696 21.8664H92.4246C92.4879 21.6177 92.5743 21.27 92.6839 20.8232C92.7934 20.3807 92.8967 19.8833 92.9936 19.3312C93.0906 18.7791 93.1517 18.2164 93.177 17.6432L93.2086 16.9351H95.434ZM102.24 18.8823C101.296 18.8823 100.455 18.7201 99.7172 18.3955C98.9839 18.0668 98.4043 17.6158 97.9787 17.0426C97.5572 16.4652 97.3401 15.7992 97.3275 15.0448H100.084C100.101 15.3609 100.204 15.6391 100.394 15.8793C100.588 16.1153 100.845 16.2987 101.165 16.4293C101.485 16.56 101.846 16.6253 102.246 16.6253C102.663 16.6253 103.032 16.5516 103.352 16.4041C103.673 16.2565 103.924 16.0521 104.105 15.7908C104.286 15.5295 104.377 15.2281 104.377 14.8867C104.377 14.5411 104.28 14.2356 104.086 13.97C103.896 13.7003 103.622 13.4895 103.264 13.3378C102.91 13.1861 102.488 13.1102 102 13.1102H100.792V11.0998H102C102.413 11.0998 102.777 11.0281 103.093 10.8848C103.414 10.7415 103.662 10.5434 103.839 10.2905C104.016 10.0334 104.105 9.73419 104.105 9.3928C104.105 9.06826 104.027 8.78376 103.871 8.53931C103.719 8.29064 103.504 8.09676 103.226 7.95767C102.952 7.81858 102.632 7.74904 102.265 7.74904C101.894 7.74904 101.555 7.81647 101.247 7.95135C100.94 8.082 100.693 8.26956 100.508 8.51402C100.322 8.75847 100.223 9.04508 100.21 9.37383H97.5867C97.5993 8.62782 97.8122 7.97031 98.2252 7.40132C98.6383 6.83233 99.1946 6.38767 99.8943 6.06735C100.598 5.74281 101.393 5.58054 102.278 5.58054C103.171 5.58054 103.953 5.74281 104.623 6.06735C105.293 6.39188 105.814 6.83022 106.185 7.38235C106.56 7.93027 106.745 8.54563 106.741 9.22842C106.745 9.95336 106.52 10.5582 106.065 11.0429C105.614 11.5276 105.026 11.8353 104.301 11.9659V12.0671C105.253 12.1893 105.978 12.5202 106.476 13.0596C106.977 13.5949 107.226 14.2651 107.222 15.0701C107.226 15.8077 107.013 16.4631 106.583 17.0363C106.157 17.6095 105.569 18.0605 104.819 18.3892C104.069 18.718 103.209 18.8823 102.24 18.8823ZM108.993 16.4293V14.2735L114.399 5.75756H116.258V8.74162H115.158L111.75 14.1344V14.2356H119.431V16.4293H108.993ZM115.208 18.7053V15.7718L115.259 14.8172V5.75756H117.825V18.7053H115.208ZM126.714 5.75756V18.7053H123.977V8.35596H123.901L120.936 10.2147V7.78697L124.141 5.75756H126.714Z" fill="white"/>
<path d="M45.7116 29.1563C45.6683 28.7902 45.4925 28.506 45.1842 28.3037C44.8759 28.1014 44.4978 28.0002 44.0498 28.0002C43.7223 28.0002 43.4357 28.0532 43.19 28.1592C42.9468 28.2652 42.7565 28.4109 42.6192 28.5963C42.4843 28.7818 42.4169 28.9925 42.4169 29.2285C42.4169 29.426 42.4639 29.5958 42.5578 29.7379C42.6541 29.8776 42.777 29.9944 42.9263 30.0883C43.0756 30.1799 43.2322 30.2557 43.3959 30.3159C43.5597 30.3737 43.7102 30.4207 43.8475 30.4568L44.5989 30.6591C44.7916 30.7097 45.006 30.7796 45.242 30.8687C45.4804 30.9578 45.708 31.0794 45.9248 31.2336C46.144 31.3853 46.3246 31.5804 46.4667 31.8188C46.6088 32.0572 46.6798 32.3499 46.6798 32.6967C46.6798 33.0965 46.5751 33.4578 46.3655 33.7805C46.1584 34.1032 45.8549 34.3597 45.4551 34.55C45.0578 34.7402 44.5749 34.8354 44.0065 34.8354C43.4766 34.8354 43.0178 34.7499 42.63 34.5789C42.2447 34.4079 41.9412 34.1694 41.7197 33.8636C41.5005 33.5577 41.3765 33.2025 41.3476 32.7978H42.2724C42.2965 33.0772 42.3904 33.3084 42.5542 33.4915C42.7204 33.6721 42.9299 33.807 43.1828 33.8961C43.4381 33.9828 43.7126 34.0261 44.0065 34.0261C44.3485 34.0261 44.6555 33.9707 44.9277 33.86C45.1999 33.7468 45.4154 33.5902 45.5744 33.3903C45.7333 33.188 45.8128 32.952 45.8128 32.6822C45.8128 32.4366 45.7442 32.2367 45.6069 32.0825C45.4696 31.9284 45.289 31.8032 45.065 31.7068C44.841 31.6105 44.5989 31.5262 44.3388 31.4539L43.4284 31.1938C42.8504 31.0276 42.3928 30.7904 42.0556 30.4821C41.7185 30.1738 41.5499 29.7704 41.5499 29.2719C41.5499 28.8576 41.6619 28.4964 41.8858 28.1881C42.1122 27.8774 42.4157 27.6366 42.7962 27.4656C43.1792 27.2922 43.6067 27.2054 44.0787 27.2054C44.5556 27.2054 44.9795 27.2909 45.3504 27.4619C45.7213 27.6305 46.0151 27.8617 46.2319 28.1556C46.451 28.4494 46.5666 28.783 46.5787 29.1563H45.7116ZM50.4505 29.1563V29.8788H47.5749V29.1563H50.4505ZM48.413 27.8268H49.2656V33.1158C49.2656 33.3566 49.3005 33.5372 49.3704 33.6577C49.4426 33.7757 49.5341 33.8551 49.6449 33.8961C49.7581 33.9346 49.8773 33.9539 50.0026 33.9539C50.0965 33.9539 50.1736 33.9491 50.2338 33.9394C50.294 33.9274 50.3422 33.9178 50.3783 33.9105L50.5517 34.6764C50.4939 34.6981 50.4132 34.7198 50.3097 34.7414C50.2061 34.7655 50.0748 34.7776 49.9159 34.7776C49.675 34.7776 49.439 34.7258 49.2078 34.6222C48.979 34.5187 48.7887 34.3609 48.637 34.149C48.4877 33.937 48.413 33.6697 48.413 33.347V27.8268ZM55.2301 32.4366V29.1563H56.0827V34.7053H55.2301V33.766H55.1723C55.0422 34.0478 54.8399 34.2875 54.5654 34.485C54.2908 34.68 53.944 34.7776 53.5249 34.7776C53.1781 34.7776 52.8698 34.7017 52.6001 34.55C52.3303 34.3958 52.1184 34.1646 51.9642 33.8563C51.8101 33.5457 51.733 33.1543 51.733 32.6822V29.1563H52.5856V32.6244C52.5856 33.029 52.6988 33.3518 52.9252 33.5926C53.154 33.8335 53.4454 33.9539 53.7995 33.9539C54.0114 33.9539 54.227 33.8997 54.4461 33.7913C54.6677 33.6829 54.8532 33.5168 55.0025 33.2928C55.1542 33.0688 55.2301 32.7834 55.2301 32.4366ZM59.7396 34.8209C59.2772 34.8209 58.8689 34.7041 58.5149 34.4705C58.1609 34.2345 57.8839 33.9021 57.684 33.4734C57.4841 33.0423 57.3841 32.5329 57.3841 31.9453C57.3841 31.3624 57.4841 30.8566 57.684 30.4279C57.8839 29.9992 58.1621 29.6681 58.5185 29.4345C58.875 29.2008 59.2868 29.084 59.754 29.084C60.1153 29.084 60.4007 29.1442 60.6102 29.2647C60.8222 29.3827 60.9835 29.5175 61.0943 29.6693C61.2075 29.8186 61.2954 29.9414 61.3581 30.0378H61.4303V27.3066H62.2829V34.7053H61.4592V33.8527H61.3581C61.2954 33.9539 61.2063 34.0815 61.0907 34.2357C60.9751 34.3874 60.8101 34.5235 60.5958 34.6439C60.3814 34.7619 60.096 34.8209 59.7396 34.8209ZM59.8552 34.055C60.1972 34.055 60.4862 33.9659 60.7222 33.7877C60.9583 33.6071 61.1377 33.3578 61.2605 33.0399C61.3833 32.7196 61.4448 32.3499 61.4448 31.9308C61.4448 31.5166 61.3846 31.1541 61.2641 30.8434C61.1437 30.5303 60.9655 30.287 60.7295 30.1136C60.4934 29.9378 60.202 29.8499 59.8552 29.8499C59.4939 29.8499 59.1929 29.9426 58.952 30.1281C58.7136 30.3111 58.5342 30.5604 58.4137 30.8759C58.2957 31.189 58.2367 31.5406 58.2367 31.9308C58.2367 32.3258 58.2969 32.6846 58.4174 33.0074C58.5402 33.3277 58.7208 33.583 58.9593 33.7733C59.2001 33.9611 59.4987 34.055 59.8552 34.055ZM66.2893 34.8209C65.7547 34.8209 65.2934 34.7029 64.9057 34.4669C64.5203 34.2285 64.2229 33.8961 64.0134 33.4698C63.8062 33.0411 63.7027 32.5425 63.7027 31.9742C63.7027 31.4058 63.8062 30.9048 64.0134 30.4713C64.2229 30.0354 64.5143 29.6958 64.8876 29.4525C65.2633 29.2069 65.7017 29.084 66.2026 29.084C66.4916 29.084 66.777 29.1322 67.0588 29.2285C67.3406 29.3249 67.5971 29.4814 67.8283 29.6982C68.0595 29.9125 68.2438 30.1967 68.3811 30.5508C68.5183 30.9048 68.587 31.3407 68.587 31.8585V32.2198H64.3096V31.4828H67.7199C67.7199 31.1697 67.6573 30.8904 67.5321 30.6447C67.4093 30.399 67.2334 30.2052 67.0046 30.0631C66.7782 29.921 66.5109 29.8499 66.2026 29.8499C65.863 29.8499 65.5692 29.9342 65.3211 30.1028C65.0755 30.269 64.8864 30.4857 64.754 30.7531C64.6215 31.0204 64.5553 31.307 64.5553 31.6129V32.1042C64.5553 32.5233 64.6275 32.8785 64.772 33.1699C64.9189 33.459 65.1224 33.6793 65.3826 33.8311C65.6427 33.9804 65.9449 34.055 66.2893 34.055C66.5133 34.055 66.7156 34.0237 66.8963 33.9611C67.0793 33.8961 67.2371 33.7997 67.3695 33.6721C67.502 33.542 67.6043 33.3807 67.6766 33.188L68.5003 33.4192C68.4136 33.6986 68.2679 33.9443 68.0631 34.1562C67.8584 34.3657 67.6055 34.5295 67.3045 34.6475C67.0034 34.7631 66.6651 34.8209 66.2893 34.8209ZM70.7365 31.3672V34.7053H69.8839V29.1563H70.7076V30.0233H70.7799C70.9099 29.7415 71.1074 29.5151 71.3723 29.3441C71.6373 29.1707 71.9793 29.084 72.3983 29.084C72.7741 29.084 73.1028 29.1611 73.3846 29.3152C73.6664 29.467 73.8855 29.6982 74.0421 30.0089C74.1986 30.3171 74.2769 30.7073 74.2769 31.1794V34.7053H73.4243V31.2372C73.4243 30.8012 73.3111 30.4617 73.0847 30.2184C72.8583 29.9727 72.5477 29.8499 72.1527 29.8499C71.8805 29.8499 71.6373 29.9089 71.4229 30.0269C71.211 30.1449 71.0436 30.3171 70.9208 30.5435C70.7979 30.7699 70.7365 31.0445 70.7365 31.3672ZM78.2481 29.1563V29.8788H75.3725V29.1563H78.2481ZM76.2106 27.8268H77.0632V33.1158C77.0632 33.3566 77.0981 33.5372 77.1679 33.6577C77.2402 33.7757 77.3317 33.8551 77.4425 33.8961C77.5557 33.9346 77.6749 33.9539 77.8002 33.9539C77.8941 33.9539 77.9712 33.9491 78.0314 33.9394C78.0916 33.9274 78.1398 33.9178 78.1759 33.9105L78.3493 34.6764C78.2915 34.6981 78.2108 34.7198 78.1072 34.7414C78.0037 34.7655 77.8724 34.7776 77.7135 34.7776C77.4726 34.7776 77.2366 34.7258 77.0054 34.6222C76.7766 34.5187 76.5863 34.3609 76.4346 34.149C76.2853 33.937 76.2106 33.6697 76.2106 33.347V27.8268ZM83.3618 30.399L82.596 30.6158C82.5478 30.4881 82.4767 30.3641 82.3828 30.2437C82.2913 30.1209 82.1661 30.0197 82.0071 29.9402C81.8481 29.8608 81.6446 29.821 81.3966 29.821C81.057 29.821 80.774 29.8993 80.5476 30.0558C80.3236 30.21 80.2116 30.4063 80.2116 30.6447C80.2116 30.8566 80.2887 31.024 80.4428 31.1469C80.597 31.2697 80.8378 31.372 81.1653 31.4539L81.989 31.6562C82.4852 31.7767 82.8549 31.9609 83.0981 32.209C83.3414 32.4546 83.463 32.7713 83.463 33.1591C83.463 33.477 83.3715 33.7612 83.1884 34.0117C83.0078 34.2622 82.7549 34.4597 82.4298 34.6042C82.1046 34.7487 81.7265 34.8209 81.2954 34.8209C80.7294 34.8209 80.261 34.6981 79.8901 34.4524C79.5192 34.2068 79.2844 33.8479 79.1856 33.3759L79.9948 33.1736C80.0719 33.4722 80.2176 33.6962 80.432 33.8455C80.6487 33.9948 80.9317 34.0695 81.281 34.0695C81.6783 34.0695 81.9939 33.9852 82.2275 33.8166C82.4635 33.6456 82.5815 33.4409 82.5815 33.2025C82.5815 33.0098 82.5141 32.8484 82.3792 32.7184C82.2443 32.5859 82.0372 32.4872 81.7578 32.4221L80.833 32.2054C80.3248 32.0849 79.9515 31.8983 79.7131 31.6454C79.477 31.3901 79.359 31.071 79.359 30.688C79.359 30.375 79.4469 30.098 79.6227 29.8571C79.801 29.6163 80.043 29.4272 80.3489 29.29C80.6572 29.1527 81.0064 29.084 81.3966 29.084C81.9457 29.084 82.3768 29.2045 82.6899 29.4453C83.0054 29.6861 83.2294 30.0041 83.3618 30.399Z" fill="white"/>
</g>
<defs>
<clipPath id="clip0_17_2905">
<rect width="121.443" height="39" fill="white" transform="translate(40.7695 0.705322)"/>
</clipPath>
</defs>
</svg>
