<svg width="163" height="40" viewBox="0 0 163 40" fill="none" xmlns="http://www.w3.org/2000/svg">
<path d="M27.083 7.46902L15.6381 3.65405C15.4423 3.58879 15.2306 3.58879 15.0348 3.65405L3.58993 7.46902C3.40002 7.53232 3.23484 7.65378 3.1178 7.81618C3.00076 7.97859 2.93779 8.1737 2.93781 8.37388V17.9113C2.93781 18.1642 3.03829 18.4068 3.21715 18.5857C3.39601 18.7646 3.6386 18.865 3.89155 18.865C4.14449 18.865 4.38708 18.7646 4.56594 18.5857C4.7448 18.4068 4.84529 18.1642 4.84529 17.9113V9.6972L8.84981 11.0312C7.78586 12.7501 7.44753 14.821 7.9091 16.7891C8.37068 18.7572 9.59443 20.4617 11.3117 21.5284C9.16574 22.37 7.31071 23.8924 5.95401 25.974C5.88345 26.0789 5.83444 26.1967 5.80983 26.3207C5.78522 26.4447 5.78549 26.5723 5.81064 26.6961C5.83579 26.82 5.88531 26.9377 5.95632 27.0422C6.02733 27.1468 6.11841 27.2362 6.22428 27.3052C6.33015 27.3743 6.44868 27.4216 6.573 27.4444C6.69731 27.4673 6.82493 27.4652 6.94843 27.4383C7.07192 27.4113 7.18884 27.3601 7.29237 27.2876C7.39591 27.2151 7.484 27.1228 7.55153 27.0159C9.34814 24.2596 12.1855 22.68 15.3364 22.68C18.4874 22.68 21.3247 24.2596 23.1214 27.0159C23.2612 27.2239 23.4773 27.3684 23.7229 27.4182C23.9685 27.4681 24.2238 27.4193 24.4337 27.2824C24.6436 27.1455 24.7912 26.9315 24.8445 26.6866C24.8979 26.4418 24.8528 26.1858 24.7189 25.974C23.3622 23.8924 21.5 22.37 19.3612 21.5284C21.0768 20.4618 22.2994 18.7584 22.7609 16.7917C23.2224 14.825 22.8851 12.7556 21.8231 11.0372L27.083 9.2847C27.2729 9.22143 27.4381 9.09999 27.5552 8.93758C27.6723 8.77518 27.7353 8.58005 27.7353 8.37984C27.7353 8.17963 27.6723 7.9845 27.5552 7.8221C27.4381 7.65969 27.2729 7.53825 27.083 7.47498V7.46902ZM21.0589 15.0501C21.0591 15.9548 20.8449 16.8466 20.4337 17.6525C20.0226 18.4583 19.4262 19.1552 18.6935 19.686C17.9609 20.2167 17.1128 20.5662 16.219 20.7057C15.3251 20.8452 14.4109 20.7708 13.5513 20.4886C12.6918 20.2064 11.9114 19.7244 11.2742 19.0822C10.637 18.4399 10.1612 17.6558 9.8857 16.7941C9.61024 15.9323 9.54302 15.0176 9.68956 14.1248C9.83609 13.2321 10.1922 12.3868 10.7287 11.6583L15.0348 13.0889C15.2306 13.1542 15.4423 13.1542 15.6381 13.0889L19.9442 11.6583C20.6688 12.6407 21.0595 13.8294 21.0589 15.0501ZM15.3364 11.1838L6.90775 8.37388L15.3364 5.56392L23.7651 8.37388L15.3364 11.1838Z" fill="white"/>
<g clip-path="url(#clip0_17_2891)">
<path d="M41.819 18.744V16.7714L46.4279 12.504C46.8198 12.1247 47.1486 11.7833 47.4141 11.4798C47.6839 11.1763 47.8883 10.8792 48.0274 10.5884C48.1664 10.2934 48.236 9.97514 48.236 9.63374C48.236 9.25441 48.1496 8.92777 47.9768 8.65381C47.804 8.37563 47.5679 8.16279 47.2687 8.01527C46.9695 7.86354 46.6302 7.78767 46.2508 7.78767C45.8546 7.78767 45.509 7.86775 45.214 8.02792C44.919 8.18808 44.6914 8.41778 44.5312 8.71703C44.371 9.01628 44.291 9.37242 44.291 9.78547H41.6926C41.6926 8.9383 41.8843 8.20283 42.2679 7.57904C42.6514 6.95526 43.1888 6.47267 43.88 6.13127C44.5713 5.78987 45.3678 5.61918 46.2698 5.61918C47.197 5.61918 48.0042 5.78355 48.6912 6.1123C49.3824 6.43684 49.9198 6.88782 50.3033 7.46524C50.6869 8.04267 50.8786 8.70438 50.8786 9.4504C50.8786 9.93931 50.7817 10.4219 50.5878 10.8982C50.3982 11.3744 50.0589 11.9034 49.57 12.485C49.081 13.0625 48.3919 13.7558 47.5026 14.565L45.6123 16.4174V16.5059H51.0493V18.744H41.819ZM55.9854 16.9738L55.9158 17.6692C55.861 18.2255 55.7557 18.7798 55.5997 19.3319C55.448 19.8883 55.2878 20.3919 55.1192 20.8429C54.9549 21.2939 54.8221 21.6479 54.7209 21.905H52.976C53.0392 21.6564 53.1256 21.3086 53.2352 20.8619C53.3448 20.4193 53.4481 19.922 53.545 19.3699C53.642 18.8177 53.7031 18.255 53.7284 17.6818L53.76 16.9738H55.9854ZM58.4226 18.744V16.7714L63.0314 12.504C63.4234 12.1247 63.7521 11.7833 64.0177 11.4798C64.2874 11.1763 64.4918 10.8792 64.6309 10.5884C64.77 10.2934 64.8395 9.97514 64.8395 9.63374C64.8395 9.25441 64.7531 8.92777 64.5803 8.65381C64.4075 8.37563 64.1715 8.16279 63.8722 8.01527C63.573 7.86354 63.2337 7.78767 62.8544 7.78767C62.4582 7.78767 62.1126 7.86775 61.8175 8.02792C61.5225 8.18808 61.2949 8.41778 61.1348 8.71703C60.9746 9.01628 60.8945 9.37242 60.8945 9.78547H58.2961C58.2961 8.9383 58.4879 8.20283 58.8714 7.57904C59.255 6.95526 59.7923 6.47267 60.4836 6.13127C61.1748 5.78987 61.9714 5.61918 62.8733 5.61918C63.8006 5.61918 64.6077 5.78355 65.2947 6.1123C65.9859 6.43684 66.5233 6.88782 66.9069 7.46524C67.2904 8.04267 67.4822 8.70438 67.4822 9.4504C67.4822 9.93931 67.3853 10.4219 67.1914 10.8982C67.0017 11.3744 66.6624 11.9034 66.1735 12.485C65.6846 13.0625 64.9955 13.7558 64.1062 14.565L62.2158 16.4174V16.5059H67.6529V18.744H58.4226ZM69.1623 16.468V14.3121L74.5677 5.7962H76.4265V8.78025H75.3264L71.9188 14.173V14.2742H79.6002V16.468H69.1623ZM75.377 18.744V15.8105L75.4276 14.8558V5.7962H77.9943V18.744H75.377ZM86.1531 18.921C85.2595 18.921 84.463 18.7566 83.7633 18.4279C83.0679 18.0991 82.5157 17.646 82.1069 17.0686C81.6981 16.4912 81.4852 15.8294 81.4684 15.0834H84.1237C84.1532 15.585 84.3639 15.9917 84.7559 16.3036C85.1479 16.6155 85.6136 16.7714 86.1531 16.7714C86.583 16.7714 86.9623 16.6766 87.2911 16.487C87.624 16.2931 87.8832 16.0254 88.0687 15.684C88.2584 15.3384 88.3532 14.9422 88.3532 14.4955C88.3532 14.0403 88.2562 13.6399 88.0624 13.2943C87.8727 12.9487 87.6093 12.6789 87.2721 12.485C86.9349 12.2912 86.5493 12.1921 86.1151 12.1879C85.7358 12.1879 85.367 12.2659 85.0088 12.4218C84.6547 12.5778 84.3787 12.7906 84.1806 13.0603L81.7465 12.6241L82.3598 5.7962H90.2751V8.03424H84.6168L84.2817 11.2775H84.3576C84.5852 10.9572 84.9287 10.6916 85.3881 10.4809C85.8475 10.2702 86.3617 10.1648 86.9307 10.1648C87.7104 10.1648 88.4059 10.3481 89.017 10.7148C89.6281 11.0815 90.1107 11.5852 90.4648 12.2258C90.8188 12.8623 90.9937 13.5956 90.9895 14.4259C90.9937 15.2984 90.7914 16.0739 90.3826 16.7525C89.978 17.4268 89.4111 17.9579 88.6819 18.3457C87.957 18.7292 87.114 18.921 86.1531 18.921ZM95.434 16.9738L95.3644 17.6692C95.3097 18.2255 95.2043 18.7798 95.0483 19.3319C94.8966 19.8883 94.7364 20.3919 94.5679 20.8429C94.4035 21.2939 94.2707 21.6479 94.1696 21.905H92.4246C92.4879 21.6564 92.5743 21.3086 92.6839 20.8619C92.7934 20.4193 92.8967 19.922 92.9936 19.3699C93.0906 18.8177 93.1517 18.255 93.177 17.6818L93.2086 16.9738H95.434ZM102.24 18.921C101.296 18.921 100.455 18.7587 99.7172 18.4342C98.9839 18.1054 98.4043 17.6544 97.9787 17.0812C97.5572 16.5038 97.3401 15.8379 97.3275 15.0834H100.084C100.101 15.3995 100.204 15.6777 100.394 15.918C100.588 16.154 100.845 16.3373 101.165 16.468C101.485 16.5986 101.846 16.664 102.246 16.664C102.663 16.664 103.032 16.5902 103.352 16.4427C103.673 16.2952 103.924 16.0908 104.105 15.8294C104.286 15.5681 104.377 15.2668 104.377 14.9254C104.377 14.5798 104.28 14.2742 104.086 14.0087C103.896 13.7389 103.622 13.5282 103.264 13.3765C102.91 13.2247 102.488 13.1489 102 13.1489H100.792V11.1384H102C102.413 11.1384 102.777 11.0668 103.093 10.9235C103.414 10.7802 103.662 10.5821 103.839 10.3292C104.016 10.0721 104.105 9.77283 104.105 9.43143C104.105 9.1069 104.027 8.8224 103.871 8.57794C103.719 8.32927 103.504 8.13539 103.226 7.9963C102.952 7.85722 102.632 7.78767 102.265 7.78767C101.894 7.78767 101.555 7.85511 101.247 7.98998C100.94 8.12064 100.693 8.3082 100.508 8.55265C100.322 8.79711 100.223 9.08371 100.21 9.41247H97.5867C97.5993 8.66645 97.8122 8.00895 98.2252 7.43996C98.6383 6.87096 99.1946 6.4263 99.8943 6.10598C100.598 5.78144 101.393 5.61918 102.278 5.61918C103.171 5.61918 103.953 5.78144 104.623 6.10598C105.293 6.43052 105.814 6.86885 106.185 7.42099C106.56 7.96891 106.745 8.58426 106.741 9.26706C106.745 9.992 106.52 10.5968 106.065 11.0815C105.614 11.5662 105.026 11.8739 104.301 12.0045V12.1057C105.253 12.2279 105.978 12.5588 106.476 13.0983C106.977 13.6336 107.226 14.3037 107.222 15.1087C107.226 15.8463 107.013 16.5017 106.583 17.0749C106.157 17.6481 105.569 18.0991 104.819 18.4279C104.069 18.7566 103.209 18.921 102.24 18.921ZM108.993 16.468V14.3121L114.399 5.7962H116.258V8.78025H115.158L111.75 14.173V14.2742H119.431V16.468H108.993ZM115.208 18.744V15.8105L115.259 14.8558V5.7962H117.825V18.744H115.208ZM126.714 5.7962V18.744H123.977V8.3946H123.901L120.936 10.2533V7.82561L124.141 5.7962H126.714Z" fill="white"/>
<path d="M45.7116 29.1949C45.6683 28.8288 45.4925 28.5446 45.1842 28.3423C44.8759 28.14 44.4978 28.0389 44.0498 28.0389C43.7223 28.0389 43.4357 28.0919 43.19 28.1978C42.9468 28.3038 42.7565 28.4495 42.6192 28.635C42.4843 28.8204 42.4169 29.0311 42.4169 29.2672C42.4169 29.4647 42.4639 29.6345 42.5578 29.7766C42.6541 29.9162 42.777 30.0331 42.9263 30.127C43.0756 30.2185 43.2322 30.2944 43.3959 30.3546C43.5597 30.4124 43.7102 30.4593 43.8475 30.4955L44.5989 30.6978C44.7916 30.7484 45.006 30.8182 45.242 30.9073C45.4804 30.9964 45.708 31.1181 45.9248 31.2722C46.144 31.4239 46.3246 31.619 46.4667 31.8574C46.6088 32.0959 46.6798 32.3885 46.6798 32.7353C46.6798 33.1351 46.5751 33.4964 46.3655 33.8191C46.1584 34.1418 45.8549 34.3983 45.4551 34.5886C45.0578 34.7789 44.5749 34.874 44.0065 34.874C43.4766 34.874 43.0178 34.7885 42.63 34.6175C42.2447 34.4465 41.9412 34.2081 41.7197 33.9022C41.5005 33.5963 41.3765 33.2411 41.3476 32.8365H42.2724C42.2965 33.1159 42.3904 33.3471 42.5542 33.5301C42.7204 33.7107 42.9299 33.8456 43.1828 33.9347C43.4381 34.0214 43.7126 34.0648 44.0065 34.0648C44.3485 34.0648 44.6555 34.0094 44.9277 33.8986C45.1999 33.7854 45.4154 33.6289 45.5744 33.429C45.7333 33.2266 45.8128 32.9906 45.8128 32.7209C45.8128 32.4752 45.7442 32.2753 45.6069 32.1212C45.4696 31.967 45.289 31.8418 45.065 31.7455C44.841 31.6491 44.5989 31.5648 44.3388 31.4926L43.4284 31.2325C42.8504 31.0663 42.3928 30.829 42.0556 30.5208C41.7185 30.2125 41.5499 29.8091 41.5499 29.3105C41.5499 28.8963 41.6619 28.535 41.8858 28.2267C42.1122 27.916 42.4157 27.6752 42.7962 27.5042C43.1792 27.3308 43.6067 27.2441 44.0787 27.2441C44.5556 27.2441 44.9795 27.3296 45.3504 27.5006C45.7213 27.6692 46.0151 27.9004 46.2319 28.1942C46.451 28.488 46.5666 28.8216 46.5787 29.1949H45.7116ZM50.4505 29.1949V29.9174H47.5749V29.1949H50.4505ZM48.413 27.8655H49.2656V33.1544C49.2656 33.3952 49.3005 33.5759 49.3704 33.6963C49.4426 33.8143 49.5341 33.8938 49.6449 33.9347C49.7581 33.9733 49.8773 33.9925 50.0026 33.9925C50.0965 33.9925 50.1736 33.9877 50.2338 33.9781C50.294 33.966 50.3422 33.9564 50.3783 33.9492L50.5517 34.7151C50.4939 34.7367 50.4132 34.7584 50.3097 34.7801C50.2061 34.8042 50.0748 34.8162 49.9159 34.8162C49.675 34.8162 49.439 34.7644 49.2078 34.6609C48.979 34.5573 48.7887 34.3996 48.637 34.1876C48.4877 33.9757 48.413 33.7083 48.413 33.3856V27.8655ZM55.2301 32.4752V29.1949H56.0827V34.744H55.2301V33.8047H55.1723C55.0422 34.0865 54.8399 34.3261 54.5654 34.5236C54.2908 34.7187 53.944 34.8162 53.5249 34.8162C53.1781 34.8162 52.8698 34.7403 52.6001 34.5886C52.3303 34.4345 52.1184 34.2033 51.9642 33.895C51.8101 33.5843 51.733 33.1929 51.733 32.7209V29.1949H52.5856V32.6631C52.5856 33.0677 52.6988 33.3904 52.9252 33.6313C53.154 33.8721 53.4454 33.9925 53.7995 33.9925C54.0114 33.9925 54.227 33.9383 54.4461 33.83C54.6677 33.7216 54.8532 33.5554 55.0025 33.3314C55.1542 33.1074 55.2301 32.822 55.2301 32.4752ZM59.7396 34.8596C59.2772 34.8596 58.8689 34.7428 58.5149 34.5091C58.1609 34.2731 57.8839 33.9407 57.684 33.512C57.4841 33.0809 57.3841 32.5715 57.3841 31.9839C57.3841 31.401 57.4841 30.8953 57.684 30.4666C57.8839 30.0379 58.1621 29.7067 58.5185 29.4731C58.875 29.2395 59.2868 29.1227 59.754 29.1227C60.1153 29.1227 60.4007 29.1829 60.6102 29.3033C60.8222 29.4213 60.9835 29.5562 61.0943 29.7079C61.2075 29.8572 61.2954 29.9801 61.3581 30.0764H61.4303V27.3452H62.2829V34.744H61.4592V33.8914H61.3581C61.2954 33.9925 61.2063 34.1202 61.0907 34.2743C60.9751 34.426 60.8101 34.5621 60.5958 34.6825C60.3814 34.8006 60.096 34.8596 59.7396 34.8596ZM59.8552 34.0937C60.1972 34.0937 60.4862 34.0046 60.7222 33.8263C60.9583 33.6457 61.1377 33.3964 61.2605 33.0785C61.3833 32.7582 61.4448 32.3885 61.4448 31.9694C61.4448 31.5552 61.3846 31.1927 61.2641 30.882C61.1437 30.5689 60.9655 30.3257 60.7295 30.1523C60.4934 29.9765 60.202 29.8885 59.8552 29.8885C59.4939 29.8885 59.1929 29.9813 58.952 30.1667C58.7136 30.3498 58.5342 30.599 58.4137 30.9145C58.2957 31.2276 58.2367 31.5793 58.2367 31.9694C58.2367 32.3644 58.2969 32.7233 58.4174 33.046C58.5402 33.3663 58.7208 33.6216 58.9593 33.8119C59.2001 33.9998 59.4987 34.0937 59.8552 34.0937ZM66.2893 34.8596C65.7547 34.8596 65.2934 34.7415 64.9057 34.5055C64.5203 34.2671 64.2229 33.9347 64.0134 33.5084C63.8062 33.0797 63.7027 32.5812 63.7027 32.0128C63.7027 31.4444 63.8062 30.9434 64.0134 30.5099C64.2229 30.074 64.5143 29.7344 64.8876 29.4912C65.2633 29.2455 65.7017 29.1227 66.2026 29.1227C66.4916 29.1227 66.777 29.1708 67.0588 29.2672C67.3406 29.3635 67.5971 29.5201 67.8283 29.7368C68.0595 29.9512 68.2438 30.2354 68.3811 30.5894C68.5183 30.9434 68.587 31.3794 68.587 31.8972V32.2585H64.3096V31.5215H67.7199C67.7199 31.2084 67.6573 30.929 67.5321 30.6833C67.4093 30.4377 67.2334 30.2438 67.0046 30.1017C66.7782 29.9596 66.5109 29.8885 66.2026 29.8885C65.863 29.8885 65.5692 29.9728 65.3211 30.1414C65.0755 30.3076 64.8864 30.5244 64.754 30.7917C64.6215 31.059 64.5553 31.3457 64.5553 31.6515V32.1428C64.5553 32.5619 64.6275 32.9172 64.772 33.2086C64.9189 33.4976 65.1224 33.718 65.3826 33.8697C65.6427 34.019 65.9449 34.0937 66.2893 34.0937C66.5133 34.0937 66.7156 34.0624 66.8963 33.9998C67.0793 33.9347 67.2371 33.8384 67.3695 33.7107C67.502 33.5807 67.6043 33.4193 67.6766 33.2266L68.5003 33.4579C68.4136 33.7372 68.2679 33.9829 68.0631 34.1948C67.8584 34.4044 67.6055 34.5681 67.3045 34.6862C67.0034 34.8018 66.6651 34.8596 66.2893 34.8596ZM70.7365 31.4059V34.744H69.8839V29.1949H70.7076V30.062H70.7799C70.9099 29.7802 71.1074 29.5538 71.3723 29.3828C71.6373 29.2094 71.9793 29.1227 72.3983 29.1227C72.7741 29.1227 73.1028 29.1997 73.3846 29.3539C73.6664 29.5056 73.8855 29.7368 74.0421 30.0475C74.1986 30.3558 74.2769 30.746 74.2769 31.218V34.744H73.4243V31.2758C73.4243 30.8399 73.3111 30.5003 73.0847 30.257C72.8583 30.0114 72.5477 29.8885 72.1527 29.8885C71.8805 29.8885 71.6373 29.9476 71.4229 30.0656C71.211 30.1836 71.0436 30.3558 70.9208 30.5822C70.7979 30.8086 70.7365 31.0831 70.7365 31.4059ZM78.2481 29.1949V29.9174H75.3725V29.1949H78.2481ZM76.2106 27.8655H77.0632V33.1544C77.0632 33.3952 77.0981 33.5759 77.1679 33.6963C77.2402 33.8143 77.3317 33.8938 77.4425 33.9347C77.5557 33.9733 77.6749 33.9925 77.8002 33.9925C77.8941 33.9925 77.9712 33.9877 78.0314 33.9781C78.0916 33.966 78.1398 33.9564 78.1759 33.9492L78.3493 34.7151C78.2915 34.7367 78.2108 34.7584 78.1072 34.7801C78.0037 34.8042 77.8724 34.8162 77.7135 34.8162C77.4726 34.8162 77.2366 34.7644 77.0054 34.6609C76.7766 34.5573 76.5863 34.3996 76.4346 34.1876C76.2853 33.9757 76.2106 33.7083 76.2106 33.3856V27.8655ZM83.3618 30.4377L82.596 30.6544C82.5478 30.5268 82.4767 30.4027 82.3828 30.2823C82.2913 30.1595 82.1661 30.0583 82.0071 29.9789C81.8481 29.8994 81.6446 29.8596 81.3966 29.8596C81.057 29.8596 80.774 29.9379 80.5476 30.0945C80.3236 30.2486 80.2116 30.4449 80.2116 30.6833C80.2116 30.8953 80.2887 31.0627 80.4428 31.1855C80.597 31.3083 80.8378 31.4107 81.1653 31.4926L81.989 31.6949C82.4852 31.8153 82.8549 31.9995 83.0981 32.2476C83.3414 32.4933 83.463 32.81 83.463 33.1977C83.463 33.5157 83.3715 33.7999 83.1884 34.0503C83.0078 34.3008 82.7549 34.4983 82.4298 34.6428C82.1046 34.7873 81.7265 34.8596 81.2954 34.8596C80.7294 34.8596 80.261 34.7367 79.8901 34.4911C79.5192 34.2454 79.2844 33.8866 79.1856 33.4145L79.9948 33.2122C80.0719 33.5108 80.2176 33.7348 80.432 33.8841C80.6487 34.0335 80.9317 34.1081 81.281 34.1081C81.6783 34.1081 81.9939 34.0238 82.2275 33.8552C82.4635 33.6842 82.5815 33.4795 82.5815 33.2411C82.5815 33.0484 82.5141 32.8871 82.3792 32.757C82.2443 32.6245 82.0372 32.5258 81.7578 32.4608L80.833 32.244C80.3248 32.1236 79.9515 31.9369 79.7131 31.684C79.477 31.4287 79.359 31.1096 79.359 30.7267C79.359 30.4136 79.4469 30.1366 79.6227 29.8958C79.801 29.6549 80.043 29.4659 80.3489 29.3286C80.6572 29.1913 81.0064 29.1227 81.3966 29.1227C81.9457 29.1227 82.3768 29.2431 82.6899 29.4839C83.0054 29.7248 83.2294 30.0427 83.3618 30.4377Z" fill="white"/>
</g>
<defs>
<clipPath id="clip0_17_2891">
<rect width="121.443" height="39" fill="white" transform="translate(40.7695 0.743958)"/>
</clipPath>
</defs>
</svg>
