<svg width="261" height="306" viewBox="0 0 261 306" fill="none" xmlns="http://www.w3.org/2000/svg">
<path d="M77.6735 164.192C76.2227 159.831 75.2543 155.053 73.2474 151.174C49.9842 106.214 26.5247 61.4234 3.26307 16.4616C3.26307 16.4616 -1.7921 0.627642 1.73291 0.627641C5.25791 0.62764 3.01477 0.627641 10.2146 0.627641C37.8795 0.288185 65.5504 0.706816 93.2141 0.294048C103.01 0.147886 109.845 4.88715 115.27 15.3641C151.208 84.766 187.334 154.005 223.43 223.269C235.046 245.558 246.859 267.677 258.312 290.104C260.002 293.412 261.764 299.159 260.652 301.68C259.464 304.373 254.919 305.669 251.826 305.704C223.916 306.019 196.003 305.84 168.091 305.992C158.511 306.044 151.476 301.391 146.029 290.743C124.988 249.618 103.56 208.825 82.2192 167.958C81.2992 166.196 79.8203 164.923 78.115 163.784C77.6283 164.147 77.6735 164.192 77.6735 164.192Z" fill="#6867EB" fill-opacity="0.7"/>
</svg>
