<svg width="1156" height="98" viewBox="0 0 1156 98" fill="none" xmlns="http://www.w3.org/2000/svg">
<g clip-path="url(#clip0_11_681)">
<path fill-rule="evenodd" clip-rule="evenodd" d="M14 29C19.5228 29 24 33.4771 24 39V29H34C39.5228 29 44 33.4771 44 39C44 44.5228 39.5228 49 34 49C39.5228 49 44 53.4772 44 59C44 61.7423 42.8961 64.2268 41.1085 66.0334L41.0711 66.0711L41.0379 66.1041C39.2309 67.8943 36.7446 69 34 69C31.2741 69 28.8029 67.9093 26.999 66.1405C26.9756 66.1175 26.9522 66.0943 26.9289 66.0711C26.907 66.0492 26.8852 66.0272 26.8635 66.0051C25.0924 64.2009 24 61.728 24 59C24 64.5228 19.5228 69 14 69C8.47715 69 4 64.5228 4 59V49H14C8.47715 49 4 44.5228 4 39C4 33.4771 8.47715 29 14 29ZM22 39C22 43.4183 18.4183 47 14 47V31C18.4183 31 22 34.5817 22 39ZM42 59C42 54.5817 38.4183 51 34 51C29.5817 51 26 54.5817 26 59H42ZM6 51V59C6 63.4183 9.58172 67 14 67C18.4183 67 22 63.4183 22 59V51H6ZM26 47V31H34C38.4183 31 42 34.5817 42 39C42 43.4183 38.4183 47 34 47H26Z" fill="#263238"/>
</g>
<g clip-path="url(#clip1_11_681)">
<path fill-rule="evenodd" clip-rule="evenodd" d="M197.986 38.9613L188 48.8467C189.997 50.824 192.279 52.4904 194.767 53.7941C195.454 55.5997 196.532 57.293 198 58.7462C203.523 64.2135 212.477 64.2135 218 58.7462C219.468 57.293 220.546 55.5997 221.233 53.794C223.721 52.4904 226.003 50.824 228 48.8467L218.022 38.9693C218.015 38.9619 218.007 38.9546 218 38.9472C212.477 33.4798 203.523 33.4798 198 38.9472C197.995 38.9519 197.991 38.9566 197.986 38.9613ZM217.045 55.5776C214.135 56.5498 211.08 57.0477 208 57.0477C204.92 57.0477 201.866 56.5498 198.956 55.5776C199.271 55.9917 199.619 56.3891 200 56.7663C204.418 61.1402 211.582 61.1402 216 56.7663C216.381 56.3891 216.729 55.9917 217.045 55.5776ZM200.205 40.7291C200.955 41.2198 201.753 41.6397 202.588 41.982C204.304 42.6856 206.143 43.0477 208 43.0477C209.857 43.0477 211.696 42.6856 213.412 41.982C214.247 41.6397 215.045 41.2198 215.795 40.7291C211.432 36.6192 204.568 36.6192 200.205 40.7291Z" fill="#3B4158"/>
</g>
<g clip-path="url(#clip2_11_681)">
<path d="M419.996 44.5163C420.001 44.4746 420.001 44.4325 419.996 44.3908C420.001 44.3568 420.001 44.3222 419.996 44.2881L419.588 41.3555C419.53 41.0046 419.372 40.6767 419.134 40.4083L419.064 40.3285L418.937 40.2029L411.883 34.2464L412.081 34.4404C411.919 34.2505 411.716 34.0986 411.486 33.9959C411.256 33.8932 411.006 33.8423 410.754 33.847H408.612C408.264 33.8402 407.924 33.9488 407.646 34.1551C407.355 33.95 407.004 33.842 406.645 33.847H404.503C404.222 33.8425 403.945 33.9109 403.7 34.0451C403.455 34.1794 403.25 34.3748 403.107 34.6115C402.885 34.9497 402.802 35.3571 402.874 35.7526L403.142 37.6012C402.964 37.5026 402.763 37.4515 402.56 37.4529H392.189C391.817 37.4552 391.453 37.5621 391.141 37.761C390.839 37.9461 390.597 38.2111 390.443 38.5255L389.64 37.8523C389.324 37.5655 388.906 37.4101 388.476 37.4186H372.204C371.83 37.4253 371.465 37.5276 371.144 37.7153C370.706 37.967 370.384 38.3763 370.248 38.8564L365.08 55.8019C364.984 56.0811 364.974 56.3822 365.053 56.6668C365.132 56.9513 365.295 57.2064 365.522 57.3995C365.582 57.4487 365.644 57.4944 365.709 57.5363C365.709 57.5363 365.604 57.4679 365.546 57.4109L372.599 63.3788C372.898 63.6482 373.288 63.7987 373.693 63.801H390.094C390.468 63.7915 390.833 63.6852 391.153 63.4929C391.333 63.3962 391.495 63.2687 391.63 63.1163L391.688 63.0365L391.781 62.9224L391.851 62.7968L392.619 63.4473C392.913 63.7059 393.295 63.8482 393.69 63.8467H410.125C410.499 63.8345 410.864 63.7284 411.184 63.5386C411.361 63.4359 411.522 63.3091 411.662 63.162L411.72 63.0821L411.813 62.9681C411.863 62.8958 411.905 62.8195 411.941 62.7398C411.979 62.6706 412.01 62.598 412.034 62.523L416.748 47.0496V46.9127C416.754 46.8596 416.754 46.806 416.748 46.7529V46.6502C416.754 46.6162 416.754 46.5815 416.748 46.5475C416.753 46.4753 416.753 46.4029 416.748 46.3307H418.261C418.393 46.3425 418.525 46.3425 418.657 46.3307H418.762C418.847 46.3058 418.929 46.2713 419.006 46.228H419.123L419.332 46.0682L419.425 45.9998L419.588 45.7943V45.7259L419.705 45.5319C419.698 45.4942 419.698 45.4556 419.705 45.4178C419.698 45.3993 419.698 45.3793 419.705 45.3608C419.729 45.2939 419.749 45.2252 419.763 45.1553C419.757 45.1328 419.757 45.1094 419.763 45.0869C419.757 45.0529 419.757 45.0182 419.763 44.9842C419.763 44.9842 419.996 44.5391 419.996 44.5163Z" fill="black"/>
<path d="M388.953 38.7196C389.015 38.7744 389.058 38.8464 389.077 38.926C389.095 39.0055 389.089 39.0888 389.058 39.1646L383.901 56.0986C383.836 56.2835 383.704 56.4381 383.529 56.5323C383.387 56.6255 383.222 56.6806 383.052 56.692H366.663C366.523 56.6854 366.391 56.6286 366.291 56.5323C366.231 56.4784 366.19 56.4083 366.171 56.3311C366.152 56.2539 366.157 56.173 366.186 56.0986L371.354 39.1646C371.413 38.9774 371.542 38.8187 371.715 38.7196C371.859 38.6331 372.023 38.5821 372.192 38.5712H388.58C388.719 38.5725 388.852 38.6256 388.953 38.7196ZM380.398 52.6867L383.482 42.5765H374.846L371.773 52.6867H380.398ZM404.597 38.8907C404.652 38.9544 404.722 39.005 404.801 39.0386C404.88 39.0721 404.965 39.0879 405.051 39.0847H407.181C407.262 39.0855 407.342 39.066 407.413 39.0281C407.484 38.9901 407.544 38.935 407.588 38.8679C407.626 38.8155 407.652 38.7562 407.666 38.6934C407.68 38.6307 407.681 38.5659 407.669 38.5028L407.25 35.4903C407.21 35.3508 407.139 35.2221 407.041 35.1137C406.985 35.05 406.915 34.9995 406.836 34.9659C406.758 34.9323 406.673 34.9165 406.587 34.9197H404.457C404.376 34.9189 404.296 34.9384 404.225 34.9764C404.153 35.0143 404.093 35.0694 404.05 35.1365C403.968 35.2963 403.933 35.399 403.968 35.4903L404.399 38.5028C404.421 38.6495 404.49 38.7854 404.597 38.8907ZM411.359 35.4674C411.319 35.328 411.248 35.1993 411.15 35.0909C411.096 35.0274 411.028 34.9769 410.952 34.9432C410.875 34.9096 410.791 34.8937 410.707 34.8969H408.566C408.486 34.8946 408.407 34.9136 408.337 34.9518C408.268 34.99 408.21 35.0459 408.17 35.1137C408.092 35.2149 408.059 35.3421 408.077 35.4674L408.507 38.4799C408.534 38.6251 408.603 38.7597 408.705 38.8679C408.762 38.9304 408.832 38.9801 408.911 39.0135C408.989 39.047 409.074 39.0635 409.159 39.0619H411.301C411.381 39.0629 411.459 39.0435 411.528 39.0054C411.598 38.9673 411.656 38.9121 411.697 38.8451C411.737 38.7941 411.765 38.7347 411.78 38.6716C411.794 38.6084 411.793 38.5429 411.778 38.4799L411.359 35.4674ZM402.723 40.0319L402.513 38.5484H392.189C392.027 38.5572 391.87 38.6084 391.735 38.6968C391.649 38.7426 391.574 38.8061 391.516 38.8829C391.458 38.9598 391.417 39.0481 391.397 39.1418L390.536 41.9717C390.502 42.0424 390.49 42.1218 390.502 42.1992C390.515 42.2766 390.551 42.3484 390.606 42.4054C390.704 42.4958 390.832 42.5485 390.967 42.5537H403.514L400.43 52.6639H387.917C387.756 52.6675 387.599 52.7149 387.463 52.8008C387.299 52.9033 387.178 53.0618 387.126 53.2459L386.253 56.0758C386.224 56.1484 386.217 56.2273 386.231 56.3038C386.245 56.3804 386.281 56.4515 386.334 56.5094C386.429 56.6059 386.558 56.6631 386.695 56.6692H403.13C403.3 56.6548 403.464 56.6 403.607 56.5094C403.779 56.4148 403.908 56.2599 403.968 56.0758L408.694 40.6024H403.374C403.29 40.604 403.206 40.5887 403.128 40.5573C403.05 40.5259 402.979 40.4791 402.92 40.4198C402.824 40.3163 402.756 40.1908 402.723 40.0547V40.0319Z" fill="white"/>
</g>
<g clip-path="url(#clip3_11_681)">
<path d="M596.997 38.4113C596.997 38.4451 596.997 38.4873 596.988 38.5127C596.944 38.8424 596.944 39.1721 596.97 39.5102C596.988 39.5947 597.005 39.6793 597.076 39.7469C597.19 39.8737 597.366 39.8484 597.437 39.6962C597.472 39.6201 597.472 39.544 597.454 39.4679C597.366 39.1467 597.349 38.8086 597.34 38.4789C597.34 38.462 597.34 38.4366 597.34 38.4113C597.437 38.4028 597.525 38.3944 597.604 38.3944C597.666 38.3859 597.719 38.3774 597.763 38.3521C597.895 38.2845 597.895 38.1408 597.754 38.0731C597.701 38.0478 597.631 38.0393 597.569 38.0393C597.349 38.0478 597.129 38.0478 596.908 38.0478C596.829 38.0478 596.75 38.0562 596.671 38.0647C596.627 38.0731 596.574 38.0731 596.539 38.0985C596.477 38.1238 596.442 38.1661 596.442 38.2253C596.45 38.2845 596.477 38.3183 596.539 38.3436C596.574 38.369 596.618 38.3774 596.662 38.3774C596.767 38.3859 596.882 38.4028 596.997 38.4113ZM599.419 38.8001C599.419 38.8086 599.427 38.817 599.427 38.817C599.463 39.0453 599.498 39.2651 599.524 39.4849C599.533 39.5609 599.542 39.6286 599.595 39.6877C599.709 39.8314 599.885 39.8145 599.965 39.6624C600 39.5863 600.009 39.5102 599.991 39.4257C599.938 39.1721 599.912 38.9185 599.859 38.6733C599.824 38.5212 599.78 38.3774 599.736 38.2422C599.709 38.1577 599.648 38.0985 599.542 38.09C599.436 38.0731 599.357 38.1238 599.313 38.1999C599.26 38.2675 599.216 38.3352 599.181 38.4113C599.119 38.5465 599.066 38.6818 598.996 38.8086C598.987 38.8424 598.978 38.8678 598.961 38.8931C598.952 38.8762 598.943 38.8678 598.943 38.8678C598.829 38.6564 598.723 38.4451 598.608 38.2422C598.591 38.2253 598.582 38.2084 598.573 38.1915C598.52 38.1154 598.459 38.0731 598.362 38.0731C598.274 38.0816 598.203 38.1323 598.159 38.2084C598.142 38.2422 598.142 38.2675 598.133 38.3014C598.097 38.5719 598.053 38.8424 598.018 39.1129C598.001 39.2651 597.992 39.4172 597.992 39.5694C597.983 39.6032 597.992 39.6455 598.009 39.6793C598.027 39.7469 598.08 39.7892 598.15 39.7976C598.238 39.8061 598.3 39.7807 598.326 39.7131C598.353 39.6624 598.362 39.6201 598.371 39.5778C598.406 39.4257 598.432 39.282 598.459 39.1383C598.476 39.0537 598.485 38.9861 598.511 38.8931C598.529 38.9269 598.547 38.9523 598.564 38.9776C598.644 39.0791 598.723 39.1805 598.82 39.2651C598.917 39.3327 598.996 39.3242 599.075 39.2482C599.093 39.2312 599.102 39.2228 599.119 39.2059C599.198 39.0875 599.295 38.9692 599.375 38.8508C599.392 38.8339 599.401 38.817 599.419 38.8001Z" fill="#3A3B7B"/>
<path d="M579.124 38.5774C579.063 38.738 579.052 38.8538 579.08 38.95C579.111 39.0808 579.192 39.1236 579.302 39.0903C580.337 38.8448 582.605 39.5417 583.445 39.736C583.643 39.7767 583.804 39.5313 583.669 39.3113C583.472 39.0982 581.204 38.1859 580.339 38.1362C580 38.1178 579.394 38.0343 579.124 38.5774Z" fill="#3A3B7B"/>
<path d="M587.99 35.6244C588.101 35.6854 588.162 35.7437 588.193 35.8088C588.238 35.8942 588.214 35.9533 588.138 35.9834C587.454 36.3037 586.544 37.6828 586.177 38.1585C586.088 38.2679 585.882 38.2043 585.851 38.0244C585.858 37.8209 586.664 36.3243 587.115 35.9167C587.291 35.7575 587.584 35.4453 587.99 35.6244Z" fill="#3A3B7B"/>
<path d="M582.544 34.9454C582.677 34.8496 582.815 34.816 582.885 34.8783C583.917 35.7252 584.464 37.0663 584.803 38.2941C584.815 38.3227 584.816 38.3638 584.806 38.4066C584.802 38.4432 584.774 38.4818 584.73 38.5118C584.682 38.5448 584.642 38.5548 584.623 38.5264C584.17 37.936 581.588 35.6392 582.544 34.9454Z" fill="#3A3B7B"/>
<path d="M560.695 49.6285C560.943 49.4518 561.211 49.3047 561.496 49.1905C561.793 49.1089 562.111 49.1224 562.4 49.2291C562.689 49.3359 562.933 49.53 563.097 49.7822C563.244 50.0337 563.301 50.3241 563.26 50.6096C563.22 50.8951 563.084 51.1602 562.873 51.3651C562.709 51.5312 562.523 51.6759 562.321 51.7954C561.416 52.3564 560.503 52.8866 559.59 53.4475C559.404 53.5879 559.206 53.7139 558.998 53.8241C558.682 53.9752 558.321 54.0157 557.978 53.9385C557.634 53.8614 557.33 53.6713 557.116 53.4014C556.957 53.2103 556.823 53.0013 556.716 52.779C555.851 51.0347 554.955 49.2981 554.122 47.523C553.738 46.7546 553.426 45.8709 553.121 45.018C552.99 44.7702 552.964 44.4829 553.05 44.2171C553.135 43.9514 553.326 43.7282 553.58 43.5951C553.835 43.462 554.133 43.4294 554.412 43.5043C554.692 43.5791 554.929 43.7556 555.075 43.996C555.523 44.5672 555.919 45.1739 556.26 45.8095C557.124 47.3463 557.949 48.8831 558.782 50.3738C558.83 50.4562 558.884 50.5357 558.942 50.612C559.569 50.3591 560.158 50.0285 560.695 49.6285Z" fill="#3A3B7B"/>
<path d="M569.635 49.0924C567.658 51.313 564.343 50.7521 562.678 47.8936C561.493 45.865 561.285 42.5147 563.863 40.4016C564.413 39.9592 565.072 39.6578 565.776 39.5256C566.64 39.4067 567.521 39.553 568.294 39.9435C569.066 40.3341 569.689 40.9489 570.076 41.7002C571.485 44.1591 571.285 47.2942 569.635 49.0924ZM568.835 43.9132C568.625 43.309 568.203 42.7931 567.642 42.4532C567.324 42.2359 566.938 42.1302 566.549 42.154C566.16 42.1778 565.791 42.3296 565.504 42.5838C564.359 43.5597 564.119 45.8727 564.952 47.2481C565.058 47.4724 565.214 47.6717 565.409 47.8322C565.603 47.9926 565.832 48.1102 566.079 48.1768C566.326 48.2434 566.586 48.2574 566.839 48.2178C567.092 48.1781 567.333 48.0859 567.546 47.9474C568.166 47.4856 568.622 46.8497 568.848 46.1281C569.075 45.4065 569.062 44.635 568.811 43.9209L568.835 43.9132Z" fill="#3A3B7B"/>
<path d="M577.706 44.8815C577.503 44.9233 577.294 44.9258 577.09 44.8888C576.887 44.8518 576.693 44.7762 576.521 44.6663C576.37 44.5834 576.24 44.4695 576.14 44.3326C576.04 44.1957 575.974 44.0394 575.945 43.8747C575.916 43.7101 575.925 43.5414 575.972 43.3807C576.019 43.2199 576.102 43.0712 576.216 42.9451C576.415 42.6917 576.697 42.5103 577.017 42.4303C577.852 42.1977 578.711 42.056 579.579 42.0076C579.77 41.9864 579.963 42.0018 580.147 42.0532C580.332 42.1046 580.503 42.1907 580.653 42.3067C580.802 42.4227 580.925 42.5661 581.016 42.7285C581.106 42.8909 581.162 43.069 581.18 43.2525C581.43 44.1534 581.458 45.0981 581.26 46.0111C580.54 48.9618 578.058 49.9761 575.272 49.0309C574.49 48.7782 573.804 48.3074 573.302 47.6785C572.633 46.9212 572.159 46.0237 571.917 45.0582C571.721 44.1985 571.743 43.3063 571.98 42.4562C572.216 41.606 572.662 40.8225 573.278 40.1711C573.863 39.4631 574.623 38.906 575.488 38.5498C576.035 38.2605 576.674 38.1783 577.281 38.3192C577.419 38.3558 577.544 38.4271 577.643 38.5256C577.742 38.6241 577.812 38.7464 577.846 38.8797C577.88 39.0129 577.875 39.1524 577.834 39.2835C577.792 39.4147 577.715 39.5328 577.61 39.6255C577.41 39.7992 577.192 39.9537 576.961 40.0866C576.249 40.5216 575.63 41.0822 575.136 41.7387C574.812 42.1635 574.588 42.6512 574.482 43.1676C574.375 43.684 574.388 44.2166 574.519 44.7278C574.701 45.4249 575.104 46.0506 575.672 46.5182C577.433 48.0551 579.723 46.572 579.323 44.4742C578.738 44.6126 578.226 44.7586 577.706 44.8815Z" fill="#3A3B7B"/>
<path d="M588.466 49.2153C585.864 50.7522 582.902 49.2153 582.253 45.988C581.781 43.6828 582.678 40.4554 585.816 39.226C586.484 38.97 587.208 38.8801 587.922 38.9647C588.779 39.1153 589.565 39.5204 590.17 40.1229C590.775 40.7253 591.167 41.4947 591.292 42.3227C591.821 45.0659 590.62 47.9936 588.466 49.2153ZM589.371 44.0439C589.37 43.4056 589.135 42.7879 588.706 42.2996C588.477 41.9976 588.146 41.7812 587.769 41.6873C587.393 41.5935 586.994 41.6279 586.641 41.7848C585.232 42.3688 584.239 44.4896 584.599 46.0495C584.627 46.2943 584.709 46.5304 584.842 46.7412C584.974 46.9521 585.153 47.1326 585.366 47.2702C585.579 47.4078 585.82 47.4991 586.074 47.5378C586.327 47.5764 586.586 47.5615 586.833 47.4941C587.578 47.2444 588.222 46.7777 588.677 46.1591C589.132 45.5406 589.375 44.8011 589.371 44.0439Z" fill="#3A3B7B"/>
<path d="M593.924 49.8609C593.884 50.1421 593.73 50.3969 593.495 50.5691C593.26 50.7413 592.964 50.8169 592.671 50.7792C592.378 50.7415 592.112 50.5936 591.933 50.368C591.753 50.1425 591.675 49.8578 591.714 49.5766C591.753 49.2953 591.907 49.0406 592.142 48.8684C592.377 48.6962 592.674 48.6206 592.967 48.6583C593.26 48.696 593.525 48.8439 593.705 49.0694C593.884 49.295 593.963 49.5797 593.924 49.8609ZM593.227 39.495C593.379 39.2718 593.603 39.1018 593.864 39.0104C594.125 38.919 594.41 38.9111 594.676 38.9878C594.947 39.0528 595.186 39.2051 595.354 39.4191C595.521 39.6331 595.607 39.8959 595.597 40.1635C595.562 40.5927 595.495 41.0189 595.397 41.4391C595.133 42.8606 594.876 44.2822 594.596 45.6884C594.468 46.2494 594.3 46.7872 594.116 47.3558C594.052 47.5336 593.945 47.6942 593.803 47.8246C593.716 47.9227 593.604 47.9979 593.478 48.0433C593.351 48.0888 593.216 48.1029 593.082 48.0845C592.949 48.0661 592.823 48.0158 592.715 47.9381C592.607 47.8604 592.522 47.758 592.466 47.6402C592.371 47.4289 592.32 47.2018 592.314 46.9717C592.314 46.0188 592.314 45.0583 592.378 44.0978C592.487 42.727 592.701 41.3657 593.019 40.0252C593.056 39.8456 593.127 39.6738 593.227 39.518V39.495Z" fill="#3A3B7B"/>
<path fill-rule="evenodd" clip-rule="evenodd" d="M557.313 56.0356C557.218 56.2382 557.192 56.464 557.238 56.6813C557.269 56.9677 557.337 57.2495 557.439 57.5201C557.568 57.8515 557.711 58.1792 557.888 58.5831C557.929 58.676 557.971 58.773 558.016 58.8751C558.254 59.4223 558.554 60.1216 558.953 61.1336C559.066 61.4211 559.167 61.711 559.268 62.0028C559.309 62.1207 559.35 62.2391 559.392 62.3576C559.542 62.7792 559.801 63.1579 560.144 63.458C560.289 63.623 560.482 63.7432 560.699 63.8033C560.92 63.8646 561.155 63.8607 561.373 63.7922C561.592 63.7236 561.784 63.5935 561.924 63.4188C562.062 63.2475 562.143 63.041 562.159 62.8254C562.249 62.4053 562.218 61.9697 562.071 61.5647C561.837 60.8922 561.571 60.2187 561.265 59.56L561.263 59.5571C560.758 58.5266 560.245 57.5032 559.708 56.4793L559.704 56.4721C559.547 56.2054 559.342 55.9669 559.1 55.7675C558.942 55.5895 558.725 55.4694 558.486 55.428C558.241 55.3858 557.988 55.4283 557.773 55.5482C557.57 55.6597 557.408 55.8304 557.313 56.0356Z" fill="#3A3B7B"/>
<path fill-rule="evenodd" clip-rule="evenodd" d="M565.022 53.498C564.231 53.3013 563.404 53.2726 562.6 53.414C561.977 53.4729 561.365 53.6108 560.939 53.8839C560.723 54.0229 560.548 54.2014 560.451 54.4282C560.353 54.6564 560.341 54.9172 560.421 55.2079C560.567 55.7403 560.757 56.2579 560.947 56.7739L560.977 56.8575L560.978 56.8594C561.548 58.3584 562.124 59.8524 562.705 61.3412C562.773 61.5758 562.869 61.8022 562.991 62.0156L562.993 62.0196C563.154 62.2848 563.361 62.522 563.604 62.7213C563.726 62.8308 563.876 62.9066 564.039 62.9405C564.204 62.9746 564.376 62.9647 564.535 62.9117C564.694 62.8588 564.836 62.7649 564.943 62.6402C565.049 62.5175 565.118 62.3698 565.144 62.2125C565.249 61.7853 565.215 61.3374 565.047 60.9291C564.995 60.7916 564.954 60.6512 564.91 60.5033C564.896 60.454 564.881 60.4039 564.866 60.3528C566.196 59.8539 567.611 59.183 568.108 57.6223C568.303 57.0829 568.32 56.4989 568.155 55.9503C567.99 55.4011 567.652 54.9143 567.187 54.5569C566.555 54.0566 565.816 53.6952 565.022 53.498ZM562.828 55.4123C562.855 55.4051 562.881 55.3984 562.907 55.3921C563.773 55.2615 564.659 55.4355 565.402 55.8821C565.729 56.1006 565.863 56.3434 565.886 56.5769C565.91 56.8174 565.819 57.0781 565.636 57.3286C565.29 57.8018 564.659 58.1806 564.089 58.2512C563.673 57.3325 563.251 56.3767 562.828 55.4123Z" fill="#3A3B7B"/>
<path d="M570.299 51.8165C571.242 51.3988 572.409 51.3266 573.323 51.6203C573.553 51.6847 573.753 51.8238 573.888 52.0139C574.022 52.2029 574.084 52.4306 574.063 52.6583C574.062 52.806 574.024 52.9514 573.953 53.0826C573.88 53.2161 573.775 53.3309 573.647 53.4174C573.519 53.5038 573.371 53.5594 573.215 53.5792C573.06 53.5991 572.901 53.5828 572.754 53.5316L572.743 53.5277L572.732 53.5223C572.657 53.4844 572.577 53.4559 572.494 53.4373L572.488 53.4362C571.846 53.2724 571.24 53.5438 571.018 53.8774C570.912 54.0364 570.899 54.197 570.987 54.343C571.082 54.4994 571.313 54.675 571.78 54.8001C571.909 54.8339 572.04 54.8666 572.174 54.8998C572.544 54.9917 572.928 55.0872 573.3 55.2194L573.301 55.22C575.015 55.8458 575.653 57.1421 575.435 58.3613C575.218 59.5669 574.169 60.6642 572.592 60.923C572.018 61.0451 571.42 61.0213 570.858 60.854C570.295 60.6861 569.788 60.3799 569.386 59.9654L569.376 59.9546C569.249 59.7985 569.164 59.615 569.126 59.4204C569.091 59.2448 569.11 59.0633 569.179 58.8972C569.247 58.7322 569.364 58.5894 569.514 58.4853C569.672 58.3673 569.863 58.2965 570.063 58.2818C570.263 58.2671 570.462 58.3087 570.637 58.4013C570.812 58.4824 570.975 58.5858 571.121 58.7088L571.123 58.711C571.382 58.9377 571.694 58.9968 571.994 58.942C572.298 58.8866 572.584 58.7139 572.767 58.4849C572.95 58.2573 573.023 57.987 572.936 57.7245C572.849 57.4601 572.585 57.164 572.007 56.9163C571.856 56.8547 571.699 56.805 571.536 56.7566C571.492 56.7436 571.447 56.7306 571.402 56.7174C571.281 56.6823 571.157 56.6461 571.036 56.6062C570.952 56.5788 570.869 56.5528 570.786 56.5271C570.561 56.4567 570.342 56.3882 570.131 56.2963C569.672 56.1461 569.275 55.8578 568.999 55.474C568.723 55.0887 568.584 54.628 568.603 54.1605C568.604 53.0214 569.352 52.2367 570.299 51.8165Z" fill="#3A3B7B"/>
<path d="M582.249 51.695C582.066 51.6094 581.864 51.5687 581.661 51.5767C581.457 51.5847 581.26 51.6411 581.085 51.741C580.911 51.8401 580.766 51.9789 580.661 52.1451C580.566 52.285 580.5 52.4415 580.467 52.6058C580.434 52.7699 580.435 52.9387 580.469 53.1025C580.503 53.313 580.541 53.5177 580.578 53.7196C580.64 54.0537 580.7 54.3802 580.739 54.7132L580.741 54.7217C580.831 55.2438 580.878 55.772 580.883 56.3012L580.883 56.3087C580.914 56.8803 580.711 57.4407 580.318 57.8711L580.311 57.8788C580.184 58.0361 580.013 58.1562 579.818 58.2256C579.623 58.295 579.411 58.3109 579.207 58.2716C579.003 58.2324 578.815 58.1394 578.663 58.0032C578.511 57.867 578.401 57.6923 578.347 57.4998C578.23 57.094 578.162 56.6766 578.145 56.2559L578.345 53.2068C578.347 53.167 578.351 53.1261 578.354 53.0849C578.362 52.9923 578.37 52.8979 578.373 52.81C578.378 52.6805 578.374 52.5474 578.342 52.4214C578.31 52.2926 578.249 52.17 578.14 52.0657C578.033 51.9624 577.888 51.8862 577.705 51.8344C577.375 51.7427 577.096 51.7456 576.864 51.8403C576.631 51.935 576.472 52.1109 576.359 52.314C576.247 52.5154 576.175 52.7539 576.121 52.9927C576.08 53.17 576.048 53.356 576.017 53.5331C576.006 53.5941 575.996 53.6541 575.985 53.7123L575.985 53.714C575.82 54.6852 575.771 55.6713 575.839 56.6532C575.852 57.1839 575.967 57.7077 576.179 58.1978C576.418 58.8303 576.852 59.3783 577.422 59.7694C577.994 60.1614 578.676 60.3774 579.379 60.3888C580.081 60.4002 580.771 60.2065 581.356 59.8334C581.94 59.4608 582.393 58.9268 582.654 58.302C583.02 57.5062 583.192 56.6407 583.157 55.7715C583.135 55.1369 583.099 54.4974 583.063 53.8612C583.046 53.5491 583.028 53.2377 583.012 52.9282C583.005 52.6178 582.898 52.3172 582.707 52.0667C582.589 51.9083 582.431 51.7806 582.249 51.695Z" fill="#3A3B7B"/>
<path d="M588.717 56.4763C588.699 56.4989 588.679 56.5223 588.659 56.5466C588.51 55.7235 588.372 54.9007 588.234 54.0766C588.185 53.781 588.135 53.4841 588.085 53.188L588.08 53.155L588.061 53.1264C588.027 53.0727 588.023 53.0201 588.023 52.9077V52.8948L588.021 52.8819C587.984 52.65 587.875 52.4341 587.708 52.2626C587.541 52.0916 587.325 51.9726 587.087 51.9209C586.85 51.8647 586.6 51.8771 586.37 51.9565C586.14 52.0358 585.94 52.1783 585.794 52.3662C585.673 52.5103 585.574 52.6702 585.499 52.841C585.331 53.2091 585.16 53.578 584.989 53.948L584.987 53.9544C584.56 54.878 584.131 55.8077 583.714 56.7448L583.713 56.7479C583.457 57.3555 583.246 57.9957 583.035 58.634C582.993 58.7614 582.951 58.8887 582.909 59.0157C582.833 59.2172 582.799 59.4311 582.811 59.645C582.797 59.8364 582.845 60.0274 582.948 60.1921C583.053 60.3602 583.21 60.4924 583.397 60.5703C583.596 60.6538 583.818 60.6716 584.028 60.6207C584.238 60.5699 584.425 60.4536 584.558 60.2902C584.729 60.0888 584.876 59.8692 584.995 59.6365C585.348 58.9433 585.686 58.2416 586.022 57.543C586.152 57.2728 586.278 57.0308 586.422 56.7672C586.431 56.7997 586.442 56.8314 586.452 56.8631C586.603 57.4995 586.857 58.109 587.205 58.6694C587.271 58.7881 587.363 58.8918 587.474 58.9735C587.587 59.0561 587.717 59.1141 587.856 59.1436C587.994 59.1731 588.138 59.1732 588.277 59.144C588.415 59.1149 588.546 59.0568 588.658 58.9745L588.882 58.8141L590.616 57.4124L590.513 58.0395C590.372 58.9015 590.233 59.7564 590.084 60.6114C589.987 60.9904 589.987 61.3862 590.085 61.7651C590.127 61.9783 590.234 62.1746 590.393 62.3289C590.554 62.4845 590.759 62.5902 590.983 62.6324C591.206 62.6745 591.438 62.6512 591.648 62.5653C591.855 62.4808 592.03 62.3393 592.153 62.1591C592.439 61.8187 592.617 61.4065 592.666 60.9717C592.739 60.3577 592.823 59.7353 592.906 59.1131C593.002 58.396 593.097 57.679 593.178 56.9758L593.179 56.9737C593.256 56.2039 593.294 55.431 593.292 54.6576C593.309 54.4132 593.245 54.1698 593.11 53.9617C592.975 53.7529 592.774 53.5906 592.537 53.4977C592.29 53.39 592.013 53.3612 591.748 53.4156C591.485 53.4697 591.246 53.603 591.068 53.796C590.748 54.0799 590.448 54.3836 590.169 54.7053L590.168 54.7075C589.864 55.0709 589.562 55.4414 589.262 55.8095C589.08 56.0332 588.898 56.2565 588.717 56.4763Z" fill="#3A3B7B"/>
</g>
<g clip-path="url(#clip4_11_681)">
<path d="M778.438 36.6904C778.438 37.1564 778.82 37.5342 779.292 37.5342H780.146C780.618 37.5342 781 37.1564 781 36.6904C781 36.2244 780.618 35.8467 780.146 35.8467H779.292C778.82 35.8467 778.438 36.2244 778.438 36.6904Z" fill="#212326"/>
<path d="M753.667 62.8467H757.816L756.608 61.6534C756.288 61.337 755.853 61.1592 755.4 61.1592H753.667C747.062 61.1592 741.708 55.8706 741.708 49.3467C741.708 42.8228 747.062 37.5342 753.667 37.5342H767.333C773.938 37.5342 779.292 42.8228 779.292 49.3467C779.292 55.8706 773.938 61.1592 767.333 61.1592H762.221C761.541 61.1592 760.889 60.8925 760.409 60.4178L758.994 59.0198C758.193 58.2287 757.106 57.7842 755.974 57.7842H753.667C748.949 57.7842 745.125 54.0066 745.125 49.3467C745.125 44.6867 748.949 40.9092 753.667 40.9092H767.333C772.051 40.9092 775.875 44.6867 775.875 49.3467C775.875 54.0066 772.051 57.7842 767.333 57.7842H764.051C763.371 57.7842 762.719 57.5175 762.239 57.0428L760.823 55.6448C760.022 54.8537 758.936 54.4092 757.803 54.4092H753.667C750.836 54.4092 748.542 52.1426 748.542 49.3467C748.542 46.5508 750.836 44.2842 753.667 44.2842H767.333C770.164 44.2842 772.458 46.5508 772.458 49.3467C772.458 52.1085 770.219 54.3538 767.437 54.4082L767.436 54.4092H766.186C765.506 54.4092 764.855 54.1425 764.374 53.6678L762.959 52.2698C762.302 51.6206 761.452 51.2049 760.543 51.0766L760.5 51.0342H753.667C752.723 51.0342 751.958 50.2787 751.958 49.3467C751.958 48.4147 752.723 47.6592 753.667 47.6592H767.333C768.277 47.6592 769.042 48.4147 769.042 49.3467C769.042 50.2787 768.277 51.0342 767.333 51.0342H763.917L765.125 52.2274C765.445 52.5439 765.88 52.7217 766.333 52.7217H767.333C769.22 52.7217 770.75 51.2106 770.75 49.3467C770.75 47.4827 769.22 45.9717 767.333 45.9717H753.667C751.78 45.9717 750.25 47.4827 750.25 49.3467C750.25 51.2106 751.78 52.7217 753.667 52.7217H759.939C760.619 52.7217 761.27 52.9884 761.751 53.463L763.166 54.861C763.967 55.6522 765.053 56.0967 766.186 56.0967H767.76V56.0837C771.335 55.866 774.167 52.9329 774.167 49.3467C774.167 45.6188 771.107 42.5967 767.333 42.5967H753.667C749.893 42.5967 746.833 45.6188 746.833 49.3467C746.833 53.0746 749.893 56.0967 753.667 56.0967H757.803C758.483 56.0967 759.135 56.3634 759.615 56.838L761.031 58.236C761.832 59.0272 762.918 59.4717 764.051 59.4717H767.333C772.994 59.4717 777.583 54.9386 777.583 49.3467C777.583 43.7548 772.994 39.2217 767.333 39.2217H753.667C748.006 39.2217 743.417 43.7548 743.417 49.3467C743.417 54.9386 748.006 59.4717 753.667 59.4717H755.974C756.653 59.4717 757.305 59.7384 757.786 60.213L759.201 61.611C760.002 62.4022 761.088 62.8467 762.221 62.8467H767.333C774.881 62.8467 781 56.8025 781 49.3467C781 41.8908 774.881 35.8467 767.333 35.8467L753.667 35.8467C746.119 35.8467 740 41.8908 740 49.3467C740 56.8025 746.119 62.8467 753.667 62.8467Z" fill="#212326"/>
</g>
<g clip-path="url(#clip5_11_681)">
<path d="M930.343 38.8467C928.312 38.8467 926.365 39.6534 924.929 41.0893L920.243 45.7756C918.807 47.2115 918 49.1591 918 51.1898C918 55.4186 921.428 58.8467 925.657 58.8467C927.688 58.8467 929.635 58.0399 931.071 56.604L934.313 53.3625C934.313 53.3624 934.313 53.3625 934.313 53.3625L943.757 43.9177C944.443 43.232 945.373 42.8467 946.343 42.8467C947.967 42.8467 949.343 43.905 949.821 45.3694L952.801 42.3887C951.442 40.2589 949.057 38.8467 946.343 38.8467C944.312 38.8467 942.365 39.6534 940.929 41.0893L928.243 53.7756C927.557 54.4614 926.627 54.8467 925.657 54.8467C923.637 54.8467 922 53.2095 922 51.1898C922 50.2199 922.385 49.2898 923.071 48.604L927.757 43.9177C928.443 43.232 929.373 42.8467 930.343 42.8467C931.967 42.8467 933.343 43.905 933.821 45.3695L936.802 42.3887C935.442 40.2589 933.057 38.8467 930.343 38.8467Z" fill="#394149"/>
<path d="M944.243 53.7756C943.557 54.4614 942.627 54.8467 941.657 54.8467C940.033 54.8467 938.657 53.7887 938.179 52.3245L935.199 55.3051C936.559 57.4346 938.943 58.8467 941.657 58.8467C943.688 58.8467 945.635 58.0399 947.071 56.604L959.757 43.9177C960.443 43.232 961.373 42.8467 962.343 42.8467C964.363 42.8467 966 44.4839 966 46.5035C966 47.4734 965.615 48.4035 964.929 49.0893L960.243 53.7756C959.557 54.4614 958.627 54.8467 957.657 54.8467C956.033 54.8467 954.657 53.7885 954.179 52.3241L951.199 55.3049C952.558 57.4345 954.943 58.8467 957.657 58.8467C959.688 58.8467 961.635 58.0399 963.071 56.604L967.757 51.9177C969.193 50.4818 970 48.5343 970 46.5035C970 42.2748 966.572 38.8467 962.343 38.8467C960.312 38.8467 958.365 39.6534 956.929 41.0893L944.243 53.7756Z" fill="#394149"/>
</g>
<g clip-path="url(#clip6_11_681)">
<path d="M1156 44.5163C1156 44.4746 1156 44.4325 1156 44.3908C1156 44.3568 1156 44.3222 1156 44.2881L1155.59 41.3555C1155.53 41.0046 1155.37 40.6767 1155.13 40.4083L1155.06 40.3285L1154.94 40.2029L1147.88 34.2464L1148.08 34.4404C1147.92 34.2505 1147.72 34.0986 1147.49 33.9959C1147.26 33.8932 1147.01 33.8423 1146.75 33.847H1144.61C1144.26 33.8402 1143.92 33.9488 1143.65 34.1551C1143.35 33.95 1143 33.842 1142.65 33.847H1140.5C1140.22 33.8425 1139.95 33.9109 1139.7 34.0451C1139.45 34.1794 1139.25 34.3748 1139.11 34.6115C1138.89 34.9497 1138.8 35.3571 1138.87 35.7526L1139.14 37.6012C1138.96 37.5026 1138.76 37.4515 1138.56 37.4529H1128.19C1127.82 37.4552 1127.45 37.5621 1127.14 37.761C1126.84 37.9461 1126.6 38.2111 1126.44 38.5255L1125.64 37.8523C1125.32 37.5655 1124.91 37.4101 1124.48 37.4186H1108.2C1107.83 37.4253 1107.47 37.5276 1107.14 37.7153C1106.71 37.967 1106.38 38.3763 1106.25 38.8564L1101.08 55.8019C1100.98 56.0811 1100.97 56.3822 1101.05 56.6668C1101.13 56.9513 1101.3 57.2064 1101.52 57.3995C1101.58 57.4487 1101.64 57.4944 1101.71 57.5363C1101.71 57.5363 1101.6 57.4679 1101.55 57.4109L1108.6 63.3788C1108.9 63.6482 1109.29 63.7987 1109.69 63.801H1126.09C1126.47 63.7915 1126.83 63.6852 1127.15 63.4929C1127.33 63.3962 1127.49 63.2687 1127.63 63.1163L1127.69 63.0365L1127.78 62.9224L1127.85 62.7968L1128.62 63.4473C1128.91 63.7059 1129.3 63.8482 1129.69 63.8467H1146.13C1146.5 63.8345 1146.86 63.7284 1147.18 63.5386C1147.36 63.4359 1147.52 63.3091 1147.66 63.162L1147.72 63.0821L1147.81 62.9681C1147.86 62.8958 1147.91 62.8195 1147.94 62.7398C1147.98 62.6706 1148.01 62.598 1148.03 62.523L1152.75 47.0496V46.9127C1152.75 46.8596 1152.75 46.806 1152.75 46.7529V46.6502C1152.75 46.6162 1152.75 46.5815 1152.75 46.5475C1152.75 46.4753 1152.75 46.4029 1152.75 46.3307H1154.26C1154.39 46.3425 1154.53 46.3425 1154.66 46.3307H1154.76C1154.85 46.3058 1154.93 46.2713 1155.01 46.228H1155.12L1155.33 46.0682L1155.43 45.9998L1155.59 45.7943V45.7259L1155.7 45.5319C1155.7 45.4942 1155.7 45.4556 1155.7 45.4178C1155.7 45.3993 1155.7 45.3793 1155.7 45.3608C1155.73 45.2939 1155.75 45.2252 1155.76 45.1553C1155.76 45.1328 1155.76 45.1094 1155.76 45.0869C1155.76 45.0529 1155.76 45.0182 1155.76 44.9842C1155.76 44.9842 1156 44.5391 1156 44.5163Z" fill="black"/>
<path d="M1124.95 38.7196C1125.01 38.7744 1125.06 38.8464 1125.08 38.926C1125.1 39.0055 1125.09 39.0888 1125.06 39.1646L1119.9 56.0986C1119.84 56.2835 1119.7 56.4381 1119.53 56.5323C1119.39 56.6255 1119.22 56.6806 1119.05 56.692H1102.66C1102.52 56.6854 1102.39 56.6286 1102.29 56.5323C1102.23 56.4784 1102.19 56.4083 1102.17 56.3311C1102.15 56.2539 1102.16 56.173 1102.19 56.0986L1107.35 39.1646C1107.41 38.9774 1107.54 38.8187 1107.71 38.7196C1107.86 38.6331 1108.02 38.5821 1108.19 38.5712H1124.58C1124.72 38.5725 1124.85 38.6256 1124.95 38.7196ZM1116.4 52.6867L1119.48 42.5765H1110.85L1107.77 52.6867H1116.4ZM1140.6 38.8907C1140.65 38.9544 1140.72 39.005 1140.8 39.0386C1140.88 39.0721 1140.96 39.0879 1141.05 39.0847H1143.18C1143.26 39.0855 1143.34 39.066 1143.41 39.0281C1143.48 38.9901 1143.54 38.935 1143.59 38.8679C1143.63 38.8155 1143.65 38.7562 1143.67 38.6934C1143.68 38.6307 1143.68 38.5659 1143.67 38.5028L1143.25 35.4903C1143.21 35.3508 1143.14 35.2221 1143.04 35.1137C1142.98 35.05 1142.92 34.9995 1142.84 34.9659C1142.76 34.9323 1142.67 34.9165 1142.59 34.9197H1140.46C1140.38 34.9189 1140.3 34.9384 1140.22 34.9764C1140.15 35.0143 1140.09 35.0694 1140.05 35.1365C1139.97 35.2963 1139.93 35.399 1139.97 35.4903L1140.4 38.5028C1140.42 38.6495 1140.49 38.7854 1140.6 38.8907ZM1147.36 35.4674C1147.32 35.328 1147.25 35.1993 1147.15 35.0909C1147.1 35.0274 1147.03 34.9769 1146.95 34.9432C1146.87 34.9096 1146.79 34.8937 1146.71 34.8969H1144.57C1144.49 34.8946 1144.41 34.9136 1144.34 34.9518C1144.27 34.99 1144.21 35.0459 1144.17 35.1137C1144.09 35.2149 1144.06 35.3421 1144.08 35.4674L1144.51 38.4799C1144.53 38.6251 1144.6 38.7597 1144.71 38.8679C1144.76 38.9304 1144.83 38.9801 1144.91 39.0135C1144.99 39.047 1145.07 39.0635 1145.16 39.0619H1147.3C1147.38 39.0629 1147.46 39.0435 1147.53 39.0054C1147.6 38.9673 1147.66 38.9121 1147.7 38.8451C1147.74 38.7941 1147.77 38.7347 1147.78 38.6716C1147.79 38.6084 1147.79 38.5429 1147.78 38.4799L1147.36 35.4674ZM1138.72 40.0319L1138.51 38.5484H1128.19C1128.03 38.5572 1127.87 38.6084 1127.73 38.6968C1127.65 38.7426 1127.57 38.8061 1127.52 38.8829C1127.46 38.9598 1127.42 39.0481 1127.4 39.1418L1126.54 41.9717C1126.5 42.0424 1126.49 42.1218 1126.5 42.1992C1126.51 42.2766 1126.55 42.3484 1126.61 42.4054C1126.7 42.4958 1126.83 42.5485 1126.97 42.5537H1139.51L1136.43 52.6639H1123.92C1123.76 52.6675 1123.6 52.7149 1123.46 52.8008C1123.3 52.9033 1123.18 53.0618 1123.13 53.2459L1122.25 56.0758C1122.22 56.1484 1122.22 56.2273 1122.23 56.3038C1122.25 56.3804 1122.28 56.4515 1122.33 56.5094C1122.43 56.6059 1122.56 56.6631 1122.69 56.6692H1139.13C1139.3 56.6548 1139.46 56.6 1139.61 56.5094C1139.78 56.4148 1139.91 56.2599 1139.97 56.0758L1144.69 40.6024H1139.37C1139.29 40.604 1139.21 40.5887 1139.13 40.5573C1139.05 40.5259 1138.98 40.4791 1138.92 40.4198C1138.82 40.3163 1138.76 40.1908 1138.72 40.0547V40.0319Z" fill="white"/>
</g>
<defs>
<clipPath id="clip0_11_681">
<rect width="40" height="40" fill="white" transform="translate(4 29)"/>
</clipPath>
<clipPath id="clip1_11_681">
<rect width="40" height="28" fill="white" transform="translate(188 34.8467)"/>
</clipPath>
<clipPath id="clip2_11_681">
<rect width="55" height="30" fill="white" transform="translate(365 33.8467)"/>
</clipPath>
<clipPath id="clip3_11_681">
<rect width="47" height="29" fill="white" transform="translate(553 34.8467)"/>
</clipPath>
<clipPath id="clip4_11_681">
<rect width="41" height="27" fill="white" transform="translate(740 35.8467)"/>
</clipPath>
<clipPath id="clip5_11_681">
<rect width="52" height="20" fill="white" transform="translate(918 38.8467)"/>
</clipPath>
<clipPath id="clip6_11_681">
<rect width="55" height="30" fill="white" transform="translate(1101 33.8467)"/>
</clipPath>
</defs>
</svg>
