<svg width="344" height="118" viewBox="0 0 344 118" fill="none" xmlns="http://www.w3.org/2000/svg">
<g clip-path="url(#clip0_17_2889)">
<g clip-path="url(#clip1_17_2889)">
<path d="M27.083 7.46902L15.6381 3.65405C15.4423 3.58879 15.2306 3.58879 15.0348 3.65405L3.58993 7.46902C3.40002 7.53232 3.23484 7.65378 3.1178 7.81618C3.00076 7.97859 2.93779 8.1737 2.93781 8.37388V17.9113C2.93781 18.1642 3.03829 18.4068 3.21715 18.5857C3.39601 18.7646 3.6386 18.865 3.89155 18.865C4.14449 18.865 4.38708 18.7646 4.56594 18.5857C4.7448 18.4068 4.84529 18.1642 4.84529 17.9113V9.6972L8.84981 11.0312C7.78586 12.7501 7.44753 14.821 7.9091 16.7891C8.37068 18.7572 9.59443 20.4617 11.3117 21.5284C9.16574 22.37 7.31071 23.8924 5.95401 25.974C5.88345 26.0789 5.83444 26.1967 5.80983 26.3207C5.78522 26.4447 5.78549 26.5723 5.81064 26.6961C5.83579 26.82 5.88531 26.9377 5.95632 27.0422C6.02733 27.1468 6.11841 27.2362 6.22428 27.3052C6.33015 27.3743 6.44868 27.4216 6.573 27.4444C6.69731 27.4673 6.82493 27.4652 6.94843 27.4383C7.07192 27.4113 7.18884 27.3601 7.29237 27.2876C7.39591 27.2151 7.484 27.1228 7.55153 27.0159C9.34814 24.2596 12.1855 22.68 15.3364 22.68C18.4874 22.68 21.3247 24.2596 23.1214 27.0159C23.2612 27.2239 23.4773 27.3684 23.7229 27.4182C23.9685 27.4681 24.2238 27.4193 24.4337 27.2824C24.6436 27.1455 24.7912 26.9315 24.8445 26.6866C24.8979 26.4418 24.8528 26.1858 24.7189 25.974C23.3622 23.8924 21.5 22.37 19.3612 21.5284C21.0768 20.4618 22.2994 18.7584 22.7609 16.7917C23.2224 14.825 22.8851 12.7556 21.8231 11.0372L27.083 9.2847C27.2729 9.22143 27.4381 9.09999 27.5552 8.93758C27.6723 8.77518 27.7353 8.58005 27.7353 8.37984C27.7353 8.17963 27.6723 7.9845 27.5552 7.8221C27.4381 7.65969 27.2729 7.53825 27.083 7.47498V7.46902ZM21.0589 15.0501C21.0591 15.9548 20.8449 16.8466 20.4337 17.6525C20.0226 18.4583 19.4262 19.1552 18.6935 19.686C17.9609 20.2167 17.1128 20.5662 16.219 20.7057C15.3251 20.8452 14.4109 20.7708 13.5513 20.4886C12.6918 20.2064 11.9114 19.7244 11.2742 19.0822C10.637 18.4399 10.1612 17.6558 9.8857 16.7941C9.61024 15.9323 9.54302 15.0176 9.68956 14.1248C9.83609 13.2321 10.1922 12.3868 10.7287 11.6583L15.0348 13.0889C15.2306 13.1542 15.4423 13.1542 15.6381 13.0889L19.9442 11.6583C20.6688 12.6407 21.0595 13.8294 21.0589 15.0501ZM15.3364 11.1838L6.90775 8.37388L15.3364 5.56392L23.7651 8.37388L15.3364 11.1838Z" fill="white"/>
<g clip-path="url(#clip2_17_2889)">
<path d="M41.819 18.744V16.7714L46.4279 12.504C46.8198 12.1247 47.1486 11.7833 47.4141 11.4798C47.6839 11.1763 47.8883 10.8792 48.0274 10.5884C48.1664 10.2934 48.236 9.97514 48.236 9.63374C48.236 9.25441 48.1496 8.92777 47.9768 8.65381C47.804 8.37563 47.5679 8.16279 47.2687 8.01527C46.9695 7.86354 46.6302 7.78767 46.2508 7.78767C45.8546 7.78767 45.509 7.86775 45.214 8.02792C44.919 8.18808 44.6914 8.41778 44.5312 8.71703C44.371 9.01628 44.291 9.37242 44.291 9.78547H41.6926C41.6926 8.9383 41.8843 8.20283 42.2679 7.57904C42.6514 6.95526 43.1888 6.47267 43.88 6.13127C44.5713 5.78987 45.3678 5.61918 46.2698 5.61918C47.197 5.61918 48.0042 5.78355 48.6912 6.1123C49.3824 6.43684 49.9198 6.88782 50.3033 7.46524C50.6869 8.04267 50.8786 8.70438 50.8786 9.4504C50.8786 9.93931 50.7817 10.4219 50.5878 10.8982C50.3982 11.3744 50.0589 11.9034 49.57 12.485C49.081 13.0625 48.3919 13.7558 47.5026 14.565L45.6123 16.4174V16.5059H51.0493V18.744H41.819ZM55.9854 16.9738L55.9158 17.6692C55.861 18.2255 55.7557 18.7798 55.5997 19.3319C55.448 19.8883 55.2878 20.3919 55.1192 20.8429C54.9549 21.2939 54.8221 21.6479 54.7209 21.905H52.976C53.0392 21.6564 53.1256 21.3086 53.2352 20.8619C53.3448 20.4193 53.4481 19.922 53.545 19.3699C53.642 18.8177 53.7031 18.255 53.7284 17.6818L53.76 16.9738H55.9854ZM58.4226 18.744V16.7714L63.0314 12.504C63.4234 12.1247 63.7521 11.7833 64.0177 11.4798C64.2874 11.1763 64.4918 10.8792 64.6309 10.5884C64.77 10.2934 64.8395 9.97514 64.8395 9.63374C64.8395 9.25441 64.7531 8.92777 64.5803 8.65381C64.4075 8.37563 64.1715 8.16279 63.8722 8.01527C63.573 7.86354 63.2337 7.78767 62.8544 7.78767C62.4582 7.78767 62.1126 7.86775 61.8175 8.02792C61.5225 8.18808 61.2949 8.41778 61.1348 8.71703C60.9746 9.01628 60.8945 9.37242 60.8945 9.78547H58.2961C58.2961 8.9383 58.4879 8.20283 58.8714 7.57904C59.255 6.95526 59.7923 6.47267 60.4836 6.13127C61.1748 5.78987 61.9714 5.61918 62.8733 5.61918C63.8006 5.61918 64.6077 5.78355 65.2947 6.1123C65.9859 6.43684 66.5233 6.88782 66.9069 7.46524C67.2904 8.04267 67.4822 8.70438 67.4822 9.4504C67.4822 9.93931 67.3853 10.4219 67.1914 10.8982C67.0017 11.3744 66.6624 11.9034 66.1735 12.485C65.6846 13.0625 64.9955 13.7558 64.1062 14.565L62.2158 16.4174V16.5059H67.6529V18.744H58.4226ZM69.1623 16.468V14.3121L74.5677 5.7962H76.4265V8.78025H75.3264L71.9188 14.173V14.2742H79.6002V16.468H69.1623ZM75.377 18.744V15.8105L75.4276 14.8558V5.7962H77.9943V18.744H75.377ZM86.1531 18.921C85.2595 18.921 84.463 18.7566 83.7633 18.4279C83.0679 18.0991 82.5157 17.646 82.1069 17.0686C81.6981 16.4912 81.4852 15.8294 81.4684 15.0834H84.1237C84.1532 15.585 84.3639 15.9917 84.7559 16.3036C85.1479 16.6155 85.6136 16.7714 86.1531 16.7714C86.583 16.7714 86.9623 16.6766 87.2911 16.487C87.624 16.2931 87.8832 16.0254 88.0687 15.684C88.2584 15.3384 88.3532 14.9422 88.3532 14.4955C88.3532 14.0403 88.2562 13.6399 88.0624 13.2943C87.8727 12.9487 87.6093 12.6789 87.2721 12.485C86.9349 12.2912 86.5493 12.1921 86.1151 12.1879C85.7358 12.1879 85.367 12.2659 85.0088 12.4218C84.6547 12.5778 84.3787 12.7906 84.1806 13.0603L81.7465 12.6241L82.3598 5.7962H90.2751V8.03424H84.6168L84.2817 11.2775H84.3576C84.5852 10.9572 84.9287 10.6916 85.3881 10.4809C85.8475 10.2702 86.3617 10.1648 86.9307 10.1648C87.7104 10.1648 88.4059 10.3481 89.017 10.7148C89.6281 11.0815 90.1107 11.5852 90.4648 12.2258C90.8188 12.8623 90.9937 13.5956 90.9895 14.4259C90.9937 15.2984 90.7914 16.0739 90.3826 16.7525C89.978 17.4268 89.4111 17.9579 88.6819 18.3457C87.957 18.7292 87.114 18.921 86.1531 18.921ZM95.434 16.9738L95.3644 17.6692C95.3097 18.2255 95.2043 18.7798 95.0483 19.3319C94.8966 19.8883 94.7364 20.3919 94.5679 20.8429C94.4035 21.2939 94.2707 21.6479 94.1696 21.905H92.4246C92.4879 21.6564 92.5743 21.3086 92.6839 20.8619C92.7934 20.4193 92.8967 19.922 92.9936 19.3699C93.0906 18.8177 93.1517 18.255 93.177 17.6818L93.2086 16.9738H95.434ZM102.24 18.921C101.296 18.921 100.455 18.7587 99.7172 18.4342C98.9839 18.1054 98.4043 17.6544 97.9787 17.0812C97.5572 16.5038 97.3401 15.8379 97.3275 15.0834H100.084C100.101 15.3995 100.204 15.6777 100.394 15.918C100.588 16.154 100.845 16.3373 101.165 16.468C101.485 16.5986 101.846 16.664 102.246 16.664C102.663 16.664 103.032 16.5902 103.352 16.4427C103.673 16.2952 103.924 16.0908 104.105 15.8294C104.286 15.5681 104.377 15.2668 104.377 14.9254C104.377 14.5798 104.28 14.2742 104.086 14.0087C103.896 13.7389 103.622 13.5282 103.264 13.3765C102.91 13.2247 102.488 13.1489 102 13.1489H100.792V11.1384H102C102.413 11.1384 102.777 11.0668 103.093 10.9235C103.414 10.7802 103.662 10.5821 103.839 10.3292C104.016 10.0721 104.105 9.77283 104.105 9.43143C104.105 9.1069 104.027 8.8224 103.871 8.57794C103.719 8.32927 103.504 8.13539 103.226 7.9963C102.952 7.85722 102.632 7.78767 102.265 7.78767C101.894 7.78767 101.555 7.85511 101.247 7.98998C100.94 8.12064 100.693 8.3082 100.508 8.55265C100.322 8.79711 100.223 9.08371 100.21 9.41247H97.5867C97.5993 8.66645 97.8122 8.00895 98.2252 7.43996C98.6383 6.87096 99.1946 6.4263 99.8943 6.10598C100.598 5.78144 101.393 5.61918 102.278 5.61918C103.171 5.61918 103.953 5.78144 104.623 6.10598C105.293 6.43052 105.814 6.86885 106.185 7.42099C106.56 7.96891 106.745 8.58426 106.741 9.26706C106.745 9.992 106.52 10.5968 106.065 11.0815C105.614 11.5662 105.026 11.8739 104.301 12.0045V12.1057C105.253 12.2279 105.978 12.5588 106.476 13.0983C106.977 13.6336 107.226 14.3037 107.222 15.1087C107.226 15.8463 107.013 16.5017 106.583 17.0749C106.157 17.6481 105.569 18.0991 104.819 18.4279C104.069 18.7566 103.209 18.921 102.24 18.921ZM108.993 16.468V14.3121L114.399 5.7962H116.258V8.78025H115.158L111.75 14.173V14.2742H119.431V16.468H108.993ZM115.208 18.744V15.8105L115.259 14.8558V5.7962H117.825V18.744H115.208ZM126.714 5.7962V18.744H123.977V8.3946H123.901L120.936 10.2533V7.82561L124.141 5.7962H126.714Z" fill="white"/>
<path d="M45.7116 29.1949C45.6683 28.8288 45.4925 28.5446 45.1842 28.3423C44.8759 28.14 44.4978 28.0389 44.0498 28.0389C43.7223 28.0389 43.4357 28.0919 43.19 28.1978C42.9468 28.3038 42.7565 28.4495 42.6192 28.635C42.4843 28.8204 42.4169 29.0311 42.4169 29.2672C42.4169 29.4647 42.4639 29.6345 42.5578 29.7766C42.6541 29.9162 42.777 30.0331 42.9263 30.127C43.0756 30.2185 43.2322 30.2944 43.3959 30.3546C43.5597 30.4124 43.7102 30.4593 43.8475 30.4955L44.5989 30.6978C44.7916 30.7484 45.006 30.8182 45.242 30.9073C45.4804 30.9964 45.708 31.1181 45.9248 31.2722C46.144 31.4239 46.3246 31.619 46.4667 31.8574C46.6088 32.0959 46.6798 32.3885 46.6798 32.7353C46.6798 33.1351 46.5751 33.4964 46.3655 33.8191C46.1584 34.1418 45.8549 34.3983 45.4551 34.5886C45.0578 34.7789 44.5749 34.874 44.0065 34.874C43.4766 34.874 43.0178 34.7885 42.63 34.6175C42.2447 34.4465 41.9412 34.2081 41.7197 33.9022C41.5005 33.5963 41.3765 33.2411 41.3476 32.8365H42.2724C42.2965 33.1159 42.3904 33.3471 42.5542 33.5301C42.7204 33.7107 42.9299 33.8456 43.1828 33.9347C43.4381 34.0214 43.7126 34.0648 44.0065 34.0648C44.3485 34.0648 44.6555 34.0094 44.9277 33.8986C45.1999 33.7854 45.4154 33.6289 45.5744 33.429C45.7333 33.2266 45.8128 32.9906 45.8128 32.7209C45.8128 32.4752 45.7442 32.2753 45.6069 32.1212C45.4696 31.967 45.289 31.8418 45.065 31.7455C44.841 31.6491 44.5989 31.5648 44.3388 31.4926L43.4284 31.2325C42.8504 31.0663 42.3928 30.829 42.0556 30.5208C41.7185 30.2125 41.5499 29.8091 41.5499 29.3105C41.5499 28.8963 41.6619 28.535 41.8858 28.2267C42.1122 27.916 42.4157 27.6752 42.7962 27.5042C43.1792 27.3308 43.6067 27.2441 44.0787 27.2441C44.5556 27.2441 44.9795 27.3296 45.3504 27.5006C45.7213 27.6692 46.0151 27.9004 46.2319 28.1942C46.451 28.488 46.5666 28.8216 46.5787 29.1949H45.7116ZM50.4505 29.1949V29.9174H47.5749V29.1949H50.4505ZM48.413 27.8655H49.2656V33.1544C49.2656 33.3952 49.3005 33.5759 49.3704 33.6963C49.4426 33.8143 49.5341 33.8938 49.6449 33.9347C49.7581 33.9733 49.8773 33.9925 50.0026 33.9925C50.0965 33.9925 50.1736 33.9877 50.2338 33.9781C50.294 33.966 50.3422 33.9564 50.3783 33.9492L50.5517 34.7151C50.4939 34.7367 50.4132 34.7584 50.3097 34.7801C50.2061 34.8042 50.0748 34.8162 49.9159 34.8162C49.675 34.8162 49.439 34.7644 49.2078 34.6609C48.979 34.5573 48.7887 34.3996 48.637 34.1876C48.4877 33.9757 48.413 33.7083 48.413 33.3856V27.8655ZM55.2301 32.4752V29.1949H56.0827V34.744H55.2301V33.8047H55.1723C55.0422 34.0865 54.8399 34.3261 54.5654 34.5236C54.2908 34.7187 53.944 34.8162 53.5249 34.8162C53.1781 34.8162 52.8698 34.7403 52.6001 34.5886C52.3303 34.4345 52.1184 34.2033 51.9642 33.895C51.8101 33.5843 51.733 33.1929 51.733 32.7209V29.1949H52.5856V32.6631C52.5856 33.0677 52.6988 33.3904 52.9252 33.6313C53.154 33.8721 53.4454 33.9925 53.7995 33.9925C54.0114 33.9925 54.227 33.9383 54.4461 33.83C54.6677 33.7216 54.8532 33.5554 55.0025 33.3314C55.1542 33.1074 55.2301 32.822 55.2301 32.4752ZM59.7396 34.8596C59.2772 34.8596 58.8689 34.7428 58.5149 34.5091C58.1609 34.2731 57.8839 33.9407 57.684 33.512C57.4841 33.0809 57.3841 32.5715 57.3841 31.9839C57.3841 31.401 57.4841 30.8953 57.684 30.4666C57.8839 30.0379 58.1621 29.7067 58.5185 29.4731C58.875 29.2395 59.2868 29.1227 59.754 29.1227C60.1153 29.1227 60.4007 29.1829 60.6102 29.3033C60.8222 29.4213 60.9835 29.5562 61.0943 29.7079C61.2075 29.8572 61.2954 29.9801 61.3581 30.0764H61.4303V27.3452H62.2829V34.744H61.4592V33.8914H61.3581C61.2954 33.9925 61.2063 34.1202 61.0907 34.2743C60.9751 34.426 60.8101 34.5621 60.5958 34.6825C60.3814 34.8006 60.096 34.8596 59.7396 34.8596ZM59.8552 34.0937C60.1972 34.0937 60.4862 34.0046 60.7222 33.8263C60.9583 33.6457 61.1377 33.3964 61.2605 33.0785C61.3833 32.7582 61.4448 32.3885 61.4448 31.9694C61.4448 31.5552 61.3846 31.1927 61.2641 30.882C61.1437 30.5689 60.9655 30.3257 60.7295 30.1523C60.4934 29.9765 60.202 29.8885 59.8552 29.8885C59.4939 29.8885 59.1929 29.9813 58.952 30.1667C58.7136 30.3498 58.5342 30.599 58.4137 30.9145C58.2957 31.2276 58.2367 31.5793 58.2367 31.9694C58.2367 32.3644 58.2969 32.7233 58.4174 33.046C58.5402 33.3663 58.7208 33.6216 58.9593 33.8119C59.2001 33.9998 59.4987 34.0937 59.8552 34.0937ZM66.2893 34.8596C65.7547 34.8596 65.2934 34.7415 64.9057 34.5055C64.5203 34.2671 64.2229 33.9347 64.0134 33.5084C63.8062 33.0797 63.7027 32.5812 63.7027 32.0128C63.7027 31.4444 63.8062 30.9434 64.0134 30.5099C64.2229 30.074 64.5143 29.7344 64.8876 29.4912C65.2633 29.2455 65.7017 29.1227 66.2026 29.1227C66.4916 29.1227 66.777 29.1708 67.0588 29.2672C67.3406 29.3635 67.5971 29.5201 67.8283 29.7368C68.0595 29.9512 68.2438 30.2354 68.3811 30.5894C68.5183 30.9434 68.587 31.3794 68.587 31.8972V32.2585H64.3096V31.5215H67.7199C67.7199 31.2084 67.6573 30.929 67.5321 30.6833C67.4093 30.4377 67.2334 30.2438 67.0046 30.1017C66.7782 29.9596 66.5109 29.8885 66.2026 29.8885C65.863 29.8885 65.5692 29.9728 65.3211 30.1414C65.0755 30.3076 64.8864 30.5244 64.754 30.7917C64.6215 31.059 64.5553 31.3457 64.5553 31.6515V32.1428C64.5553 32.5619 64.6275 32.9172 64.772 33.2086C64.9189 33.4976 65.1224 33.718 65.3826 33.8697C65.6427 34.019 65.9449 34.0937 66.2893 34.0937C66.5133 34.0937 66.7156 34.0624 66.8963 33.9998C67.0793 33.9347 67.2371 33.8384 67.3695 33.7107C67.502 33.5807 67.6043 33.4193 67.6766 33.2266L68.5003 33.4579C68.4136 33.7372 68.2679 33.9829 68.0631 34.1948C67.8584 34.4044 67.6055 34.5681 67.3045 34.6862C67.0034 34.8018 66.6651 34.8596 66.2893 34.8596ZM70.7365 31.4059V34.744H69.8839V29.1949H70.7076V30.062H70.7799C70.9099 29.7802 71.1074 29.5538 71.3723 29.3828C71.6373 29.2094 71.9793 29.1227 72.3983 29.1227C72.7741 29.1227 73.1028 29.1997 73.3846 29.3539C73.6664 29.5056 73.8855 29.7368 74.0421 30.0475C74.1986 30.3558 74.2769 30.746 74.2769 31.218V34.744H73.4243V31.2758C73.4243 30.8399 73.3111 30.5003 73.0847 30.257C72.8583 30.0114 72.5477 29.8885 72.1527 29.8885C71.8805 29.8885 71.6373 29.9476 71.4229 30.0656C71.211 30.1836 71.0436 30.3558 70.9208 30.5822C70.7979 30.8086 70.7365 31.0831 70.7365 31.4059ZM78.2481 29.1949V29.9174H75.3725V29.1949H78.2481ZM76.2106 27.8655H77.0632V33.1544C77.0632 33.3952 77.0981 33.5759 77.1679 33.6963C77.2402 33.8143 77.3317 33.8938 77.4425 33.9347C77.5557 33.9733 77.6749 33.9925 77.8002 33.9925C77.8941 33.9925 77.9712 33.9877 78.0314 33.9781C78.0916 33.966 78.1398 33.9564 78.1759 33.9492L78.3493 34.7151C78.2915 34.7367 78.2108 34.7584 78.1072 34.7801C78.0037 34.8042 77.8724 34.8162 77.7135 34.8162C77.4726 34.8162 77.2366 34.7644 77.0054 34.6609C76.7766 34.5573 76.5863 34.3996 76.4346 34.1876C76.2853 33.9757 76.2106 33.7083 76.2106 33.3856V27.8655ZM83.3618 30.4377L82.596 30.6544C82.5478 30.5268 82.4767 30.4027 82.3828 30.2823C82.2913 30.1595 82.1661 30.0583 82.0071 29.9789C81.8481 29.8994 81.6446 29.8596 81.3966 29.8596C81.057 29.8596 80.774 29.9379 80.5476 30.0945C80.3236 30.2486 80.2116 30.4449 80.2116 30.6833C80.2116 30.8953 80.2887 31.0627 80.4428 31.1855C80.597 31.3083 80.8378 31.4107 81.1653 31.4926L81.989 31.6949C82.4852 31.8153 82.8549 31.9995 83.0981 32.2476C83.3414 32.4933 83.463 32.81 83.463 33.1977C83.463 33.5157 83.3715 33.7999 83.1884 34.0503C83.0078 34.3008 82.7549 34.4983 82.4298 34.6428C82.1046 34.7873 81.7265 34.8596 81.2954 34.8596C80.7294 34.8596 80.261 34.7367 79.8901 34.4911C79.5192 34.2454 79.2844 33.8866 79.1856 33.4145L79.9948 33.2122C80.0719 33.5108 80.2176 33.7348 80.432 33.8841C80.6487 34.0335 80.9317 34.1081 81.281 34.1081C81.6783 34.1081 81.9939 34.0238 82.2275 33.8552C82.4635 33.6842 82.5815 33.4795 82.5815 33.2411C82.5815 33.0484 82.5141 32.8871 82.3792 32.757C82.2443 32.6245 82.0372 32.5258 81.7578 32.4608L80.833 32.244C80.3248 32.1236 79.9515 31.9369 79.7131 31.684C79.477 31.4287 79.359 31.1096 79.359 30.7267C79.359 30.4136 79.4469 30.1366 79.6227 29.8958C79.801 29.6549 80.043 29.4659 80.3489 29.3286C80.6572 29.1913 81.0064 29.1227 81.3966 29.1227C81.9457 29.1227 82.3768 29.2431 82.6899 29.4839C83.0054 29.7248 83.2294 30.0427 83.3618 30.4377Z" fill="white"/>
</g>
<g clip-path="url(#clip3_17_2889)">
<path d="M206.062 19.6658V14.5366L206.382 14.3678C206.59 14.2597 206.721 14.0454 206.723 13.8108C206.726 13.5768 206.599 13.36 206.393 13.2472L196.827 8.12876C196.636 8.02385 196.405 8.02446 196.212 8.13064L186.698 13.2554C186.496 13.3683 186.371 13.5825 186.372 13.815C186.373 14.0474 186.501 14.26 186.706 14.3707L190.886 16.5958C190.834 16.6883 190.801 16.7938 190.801 16.9076V22.288C190.801 22.3777 190.82 22.4664 190.857 22.5483C190.894 22.6301 190.947 22.7033 191.014 22.763C191.152 22.8854 192.474 23.9571 196.513 23.9571C200.539 23.9571 201.896 22.9442 202.037 22.8288C202.185 22.7083 202.27 22.5277 202.27 22.3363V16.818C202.27 16.7286 202.252 16.6438 202.219 16.5668L204.79 15.2084V19.6693C204.413 19.89 204.158 20.2947 204.158 20.7626C204.158 21.4649 204.727 22.0343 205.429 22.0343C206.131 22.0343 206.701 21.4649 206.701 20.7626C206.701 20.2918 206.442 19.8855 206.062 19.6658ZM200.999 21.972C200.499 22.2123 199.176 22.6854 196.513 22.6854C193.833 22.6854 192.541 22.1818 192.073 21.9396V17.2278L196.202 19.4258C196.295 19.4759 196.398 19.5022 196.504 19.5021C196.606 19.5022 196.707 19.4772 196.798 19.4293L200.999 17.2106V21.972ZM196.509 18.1459L188.33 13.8032L196.523 9.41251L204.741 13.7905L196.509 18.1459Z" fill="white"/>
</g>
<g clip-path="url(#clip4_17_2889)">
<path d="M222.834 16.468V14.3121L228.239 5.7962H230.098V8.78025H228.998L225.59 14.173V14.2742H233.272V16.468H222.834ZM229.049 18.744V15.8105L229.099 14.8558V5.7962H231.666V18.744H229.049ZM240.065 18.921C239.399 18.9168 238.756 18.8051 238.137 18.5859C237.521 18.3667 236.969 18.0106 236.48 17.5175C235.991 17.0243 235.604 16.371 235.317 15.5576C235.035 14.7441 234.893 13.7452 234.893 12.5609C234.898 11.4735 235.022 10.502 235.266 9.64638C235.515 8.78657 235.869 8.05742 236.328 7.45892C236.792 6.86042 237.346 6.40523 237.991 6.09334C238.636 5.77723 239.359 5.61918 240.16 5.61918C241.024 5.61918 241.787 5.78777 242.448 6.12495C243.11 6.45791 243.641 6.911 244.042 7.48421C244.446 8.05742 244.691 8.70017 244.775 9.41247H242.075C241.97 8.96149 241.749 8.60745 241.412 8.35034C241.074 8.09324 240.657 7.96469 240.16 7.96469C239.317 7.96469 238.676 8.33138 238.238 9.06475C237.804 9.79812 237.582 10.7949 237.574 12.0551H237.662C237.856 11.6716 238.118 11.3449 238.446 11.0752C238.779 10.8012 239.157 10.5926 239.578 10.4493C240.004 10.3018 240.453 10.228 240.925 10.228C241.692 10.228 242.375 10.4093 242.973 10.7717C243.572 11.13 244.044 11.6231 244.389 12.2511C244.735 12.8791 244.908 13.5977 244.908 14.407C244.908 15.2836 244.703 16.0634 244.294 16.7462C243.89 17.429 243.323 17.9642 242.594 18.352C241.869 18.7355 241.026 18.9252 240.065 18.921ZM240.052 16.7714C240.474 16.7714 240.851 16.6703 241.184 16.468C241.517 16.2657 241.778 15.9917 241.968 15.6461C242.158 15.3005 242.252 14.9127 242.252 14.4828C242.252 14.0529 242.158 13.6673 241.968 13.3259C241.782 12.9845 241.525 12.7126 241.197 12.5103C240.868 12.308 240.493 12.2069 240.071 12.2069C239.755 12.2069 239.462 12.2659 239.192 12.3839C238.927 12.5019 238.693 12.6663 238.491 12.877C238.293 13.0877 238.137 13.3322 238.023 13.6104C237.909 13.8843 237.852 14.1773 237.852 14.4892C237.852 14.9064 237.947 15.2878 238.137 15.6335C238.331 15.9791 238.592 16.2551 238.921 16.4617C239.254 16.6682 239.631 16.7714 240.052 16.7714ZM249.262 16.9738L249.192 17.6692C249.138 18.2255 249.032 18.7798 248.876 19.3319C248.725 19.8883 248.564 20.3919 248.396 20.8429C248.232 21.2939 248.099 21.6479 247.998 21.905H246.253C246.316 21.6564 246.402 21.3086 246.512 20.8619C246.621 20.4193 246.725 19.922 246.822 19.3699C246.919 18.8177 246.98 18.255 247.005 17.6818L247.037 16.9738H249.262ZM256.068 18.921C255.124 18.921 254.283 18.7587 253.545 18.4342C252.812 18.1054 252.232 17.6544 251.807 17.0812C251.385 16.5038 251.168 15.8379 251.156 15.0834H253.912C253.929 15.3995 254.032 15.6777 254.222 15.918C254.416 16.154 254.673 16.3373 254.993 16.468C255.313 16.5986 255.674 16.664 256.074 16.664C256.491 16.664 256.86 16.5902 257.181 16.4427C257.501 16.2952 257.752 16.0908 257.933 15.8294C258.114 15.5681 258.205 15.2668 258.205 14.9254C258.205 14.5798 258.108 14.2742 257.914 14.0087C257.724 13.7389 257.45 13.5282 257.092 13.3765C256.738 13.2247 256.316 13.1489 255.828 13.1489H254.62V11.1384H255.828C256.241 11.1384 256.605 11.0668 256.921 10.9235C257.242 10.7802 257.49 10.5821 257.667 10.3292C257.844 10.0721 257.933 9.77283 257.933 9.43143C257.933 9.1069 257.855 8.8224 257.699 8.57794C257.547 8.32927 257.332 8.13539 257.054 7.9963C256.78 7.85722 256.46 7.78767 256.093 7.78767C255.722 7.78767 255.383 7.85511 255.075 7.98998C254.768 8.12064 254.521 8.3082 254.336 8.55265C254.15 8.79711 254.051 9.08371 254.038 9.41247H251.415C251.427 8.66645 251.64 8.00895 252.053 7.43996C252.466 6.87096 253.023 6.4263 253.722 6.10598C254.426 5.78144 255.221 5.61918 256.106 5.61918C256.999 5.61918 257.781 5.78144 258.451 6.10598C259.121 6.43052 259.642 6.86885 260.013 7.42099C260.388 7.96891 260.573 8.58426 260.569 9.26706C260.573 9.992 260.348 10.5968 259.893 11.0815C259.442 11.5662 258.854 11.8739 258.129 12.0045V12.1057C259.081 12.2279 259.806 12.5588 260.304 13.0983C260.805 13.6336 261.054 14.3037 261.05 15.1087C261.054 15.8463 260.841 16.5017 260.411 17.0749C259.985 17.6481 259.397 18.0991 258.647 18.4279C257.897 18.7566 257.037 18.921 256.068 18.921ZM263.017 18.744V16.7714L267.626 12.504C268.018 12.1247 268.347 11.7833 268.613 11.4798C268.882 11.1763 269.087 10.8792 269.226 10.5884C269.365 10.2934 269.434 9.97514 269.434 9.63374C269.434 9.25441 269.348 8.92777 269.175 8.65381C269.002 8.37563 268.766 8.16279 268.467 8.01527C268.168 7.86354 267.829 7.78767 267.449 7.78767C267.053 7.78767 266.707 7.86775 266.412 8.02792C266.117 8.18808 265.89 8.41778 265.73 8.71703C265.569 9.01628 265.489 9.37242 265.489 9.78547H262.891C262.891 8.9383 263.083 8.20283 263.466 7.57904C263.85 6.95526 264.387 6.47267 265.078 6.13127C265.77 5.78987 266.566 5.61918 267.468 5.61918C268.395 5.61918 269.203 5.78355 269.89 6.1123C270.581 6.43684 271.118 6.88782 271.502 7.46524C271.885 8.04267 272.077 8.70438 272.077 9.4504C272.077 9.93931 271.98 10.4219 271.786 10.8982C271.597 11.3744 271.257 11.9034 270.768 12.485C270.279 13.0625 269.59 13.7558 268.701 14.565L266.811 16.4174V16.5059H272.248V18.744H263.017ZM279.061 18.921C278.088 18.921 277.222 18.7629 276.463 18.4468C275.709 18.1265 275.116 17.6903 274.687 17.1381C274.257 16.586 274.042 15.9601 274.042 15.2605C274.042 14.721 274.164 14.2257 274.408 13.7747C274.657 13.3196 274.994 12.9423 275.42 12.6431C275.846 12.3396 276.322 12.1457 276.849 12.0614V11.9729C276.158 11.8338 275.597 11.4988 275.167 10.9677C274.737 10.4324 274.522 9.81076 274.522 9.10268C274.522 8.43253 274.718 7.83614 275.11 7.31351C275.502 6.78667 276.039 6.37362 276.722 6.07437C277.409 5.77091 278.189 5.61918 279.061 5.61918C279.934 5.61918 280.712 5.77091 281.394 6.07437C282.081 6.37783 282.621 6.79299 283.013 7.31983C283.405 7.84247 283.603 8.43675 283.607 9.10268C283.603 9.81498 283.384 10.4367 282.95 10.9677C282.515 11.4988 281.959 11.8338 281.281 11.9729V12.0614C281.799 12.1457 282.269 12.3396 282.69 12.6431C283.116 12.9423 283.453 13.3196 283.702 13.7747C283.955 14.2257 284.083 14.721 284.088 15.2605C284.083 15.9601 283.866 16.586 283.436 17.1381C283.006 17.6903 282.412 18.1265 281.654 18.4468C280.899 18.7629 280.035 18.921 279.061 18.921ZM279.061 16.9105C279.496 16.9105 279.875 16.8326 280.199 16.6766C280.524 16.5165 280.777 16.2973 280.958 16.0191C281.144 15.7367 281.236 15.4122 281.236 15.0455C281.236 14.6704 281.141 14.3395 280.952 14.0529C280.762 13.7621 280.505 13.5345 280.18 13.3701C279.856 13.2015 279.483 13.1172 279.061 13.1172C278.644 13.1172 278.271 13.2015 277.942 13.3701C277.614 13.5345 277.354 13.7621 277.165 14.0529C276.979 14.3395 276.887 14.6704 276.887 15.0455C276.887 15.4122 276.977 15.7367 277.159 16.0191C277.34 16.2973 277.595 16.5165 277.923 16.6766C278.252 16.8326 278.632 16.9105 279.061 16.9105ZM279.061 11.1258C279.424 11.1258 279.746 11.052 280.029 10.9045C280.311 10.757 280.532 10.5526 280.693 10.2912C280.853 10.0299 280.933 9.72857 280.933 9.38718C280.933 9.05 280.853 8.75496 280.693 8.50208C280.532 8.24498 280.313 8.04477 280.035 7.90147C279.757 7.75396 279.432 7.6802 279.061 7.6802C278.695 7.6802 278.37 7.75396 278.088 7.90147C277.805 8.04477 277.584 8.24498 277.424 8.50208C277.268 8.75496 277.19 9.05 277.19 9.38718C277.19 9.72857 277.27 10.0299 277.43 10.2912C277.591 10.5526 277.812 10.757 278.094 10.9045C278.377 11.052 278.699 11.1258 279.061 11.1258Z" fill="white"/>
<path d="M224.039 27.2433V35.744H223.01V27.2433H224.039ZM226.95 31.9087V35.744H225.97V29.3685H226.917V30.3646H227C227.149 30.0409 227.376 29.7808 227.68 29.5843C227.985 29.3851 228.378 29.2855 228.859 29.2855C229.291 29.2855 229.669 29.374 229.992 29.5511C230.316 29.7254 230.568 29.9911 230.748 30.348C230.928 30.7022 231.018 31.1505 231.018 31.6929V35.744H230.038V31.7593C230.038 31.2584 229.908 30.8683 229.648 30.5888C229.388 30.3065 229.031 30.1654 228.577 30.1654C228.264 30.1654 227.985 30.2332 227.738 30.3688C227.495 30.5044 227.303 30.7022 227.162 30.9623C227.02 31.2224 226.95 31.5379 226.95 31.9087ZM237.323 30.7963L236.444 31.0454C236.388 30.8987 236.307 30.7562 236.199 30.6178C236.093 30.4767 235.95 30.3605 235.767 30.2692C235.584 30.1779 235.351 30.1322 235.065 30.1322C234.675 30.1322 234.35 30.2221 234.09 30.402C233.833 30.5791 233.704 30.8046 233.704 31.0786C233.704 31.3221 233.793 31.5144 233.97 31.6555C234.147 31.7966 234.424 31.9142 234.8 32.0083L235.746 32.2408C236.316 32.3791 236.741 32.5908 237.02 32.8758C237.3 33.1581 237.44 33.5219 237.44 33.9675C237.44 34.3327 237.335 34.6592 237.124 34.947C236.917 35.2348 236.626 35.4617 236.253 35.6277C235.879 35.7938 235.445 35.8768 234.949 35.8768C234.299 35.8768 233.761 35.7357 233.335 35.4534C232.909 35.1712 232.639 34.7589 232.525 34.2165L233.455 33.9841C233.544 34.3272 233.711 34.5845 233.957 34.7561C234.206 34.9277 234.531 35.0134 234.933 35.0134C235.389 35.0134 235.752 34.9166 236.02 34.7229C236.291 34.5264 236.427 34.2912 236.427 34.0173C236.427 33.7959 236.349 33.6105 236.194 33.4611C236.04 33.3089 235.802 33.1954 235.481 33.1207L234.418 32.8717C233.834 32.7333 233.405 32.5189 233.131 32.2283C232.86 31.935 232.724 31.5683 232.724 31.1284C232.724 30.7686 232.825 30.4504 233.027 30.1737C233.232 29.897 233.51 29.6798 233.862 29.522C234.216 29.3643 234.617 29.2855 235.065 29.2855C235.696 29.2855 236.192 29.4238 236.551 29.7005C236.914 29.9772 237.171 30.3425 237.323 30.7963ZM241.687 29.3685V30.1986H238.383V29.3685H241.687ZM239.346 27.841H240.325V33.9176C240.325 34.1944 240.366 34.4019 240.446 34.5403C240.529 34.6758 240.634 34.7672 240.761 34.8142C240.891 34.8585 241.028 34.8806 241.172 34.8806C241.28 34.8806 241.369 34.8751 241.438 34.864C241.507 34.8502 241.562 34.8391 241.604 34.8308L241.803 35.7108C241.737 35.7357 241.644 35.7606 241.525 35.7855C241.406 35.8131 241.255 35.827 241.073 35.827C240.796 35.827 240.525 35.7675 240.259 35.6485C239.996 35.5295 239.778 35.3483 239.603 35.1047C239.432 34.8612 239.346 34.5541 239.346 34.1833V27.841ZM243.16 35.744V29.3685H244.107V30.3314H244.173C244.289 30.016 244.5 29.76 244.804 29.5635C245.108 29.3671 245.452 29.2688 245.833 29.2688C245.905 29.2688 245.995 29.2702 246.103 29.273C246.211 29.2758 246.293 29.2799 246.348 29.2855V30.2816C246.315 30.2733 246.239 30.2609 246.12 30.2443C246.004 30.2249 245.881 30.2152 245.75 30.2152C245.441 30.2152 245.164 30.2802 244.92 30.4103C244.68 30.5376 244.489 30.7147 244.348 30.9416C244.209 31.1657 244.14 31.4217 244.14 31.7095V35.744H243.16ZM251.527 33.1373V29.3685H252.507V35.744H251.527V34.6648H251.461C251.311 34.9885 251.079 35.2639 250.763 35.4908C250.448 35.7149 250.05 35.827 249.568 35.827C249.17 35.827 248.815 35.7398 248.505 35.5655C248.196 35.3884 247.952 35.1227 247.775 34.7685C247.598 34.4116 247.509 33.9619 247.509 33.4196V29.3685H248.489V33.3531C248.489 33.818 248.619 34.1888 248.879 34.4655C249.142 34.7423 249.477 34.8806 249.884 34.8806C250.127 34.8806 250.375 34.8183 250.627 34.6938C250.881 34.5693 251.094 34.3784 251.266 34.121C251.44 33.8637 251.527 33.5358 251.527 33.1373ZM256.891 35.8768C256.293 35.8768 255.779 35.7357 255.347 35.4534C254.915 35.1712 254.583 34.7824 254.351 34.2871C254.118 33.7917 254.002 33.2259 254.002 32.5894C254.002 31.9419 254.121 31.3705 254.359 30.8752C254.6 30.3771 254.935 29.9883 255.364 29.7088C255.795 29.4266 256.299 29.2855 256.874 29.2855C257.323 29.2855 257.727 29.3685 258.086 29.5345C258.446 29.7005 258.741 29.933 258.97 30.2318C259.2 30.5307 259.343 30.8793 259.398 31.2778H258.418C258.344 30.9872 258.178 30.7299 257.92 30.5058C257.666 30.2789 257.323 30.1654 256.891 30.1654C256.509 30.1654 256.174 30.265 255.887 30.4643C255.601 30.6607 255.379 30.9388 255.218 31.2985C255.061 31.6555 254.982 32.0747 254.982 32.5562C254.982 33.0488 255.059 33.4777 255.214 33.8429C255.372 34.2082 255.593 34.4918 255.878 34.6938C256.166 34.8958 256.504 34.9968 256.891 34.9968C257.146 34.9968 257.377 34.9526 257.584 34.864C257.792 34.7755 257.967 34.6482 258.111 34.4821C258.255 34.3161 258.358 34.1169 258.418 33.8844H259.398C259.343 34.2608 259.206 34.5997 258.987 34.9014C258.771 35.2002 258.485 35.4382 258.128 35.6153C257.774 35.7896 257.361 35.8768 256.891 35.8768ZM263.603 29.3685V30.1986H260.299V29.3685H263.603ZM261.262 27.841H262.241V33.9176C262.241 34.1944 262.281 34.4019 262.362 34.5403C262.445 34.6758 262.55 34.7672 262.677 34.8142C262.807 34.8585 262.944 34.8806 263.088 34.8806C263.196 34.8806 263.284 34.8751 263.354 34.864C263.423 34.8502 263.478 34.8391 263.52 34.8308L263.719 35.7108C263.652 35.7357 263.56 35.7606 263.441 35.7855C263.322 35.8131 263.171 35.827 262.988 35.827C262.712 35.827 262.44 35.7675 262.175 35.6485C261.912 35.5295 261.693 35.3483 261.519 35.1047C261.347 34.8612 261.262 34.5541 261.262 34.1833V27.841ZM267.598 35.8768C267.022 35.8768 266.517 35.7398 266.083 35.4659C265.651 35.1919 265.313 34.8087 265.07 34.3161C264.829 33.8236 264.709 33.248 264.709 32.5894C264.709 31.9253 264.829 31.3456 265.07 30.8503C265.313 30.355 265.651 29.9703 266.083 29.6964C266.517 29.4224 267.022 29.2855 267.598 29.2855C268.173 29.2855 268.677 29.4224 269.109 29.6964C269.543 29.9703 269.881 30.355 270.121 30.8503C270.365 31.3456 270.487 31.9253 270.487 32.5894C270.487 33.248 270.365 33.8236 270.121 34.3161C269.881 34.8087 269.543 35.1919 269.109 35.4659C268.677 35.7398 268.173 35.8768 267.598 35.8768ZM267.598 34.9968C268.035 34.9968 268.395 34.8848 268.677 34.6606C268.959 34.4365 269.168 34.1418 269.304 33.7765C269.439 33.4113 269.507 33.0156 269.507 32.5894C269.507 32.1633 269.439 31.7662 269.304 31.3982C269.168 31.0301 268.959 30.7327 268.677 30.5058C268.395 30.2789 268.035 30.1654 267.598 30.1654C267.161 30.1654 266.801 30.2789 266.519 30.5058C266.236 30.7327 266.027 31.0301 265.892 31.3982C265.756 31.7662 265.688 32.1633 265.688 32.5894C265.688 33.0156 265.756 33.4113 265.892 33.7765C266.027 34.1418 266.236 34.4365 266.519 34.6606C266.801 34.8848 267.161 34.9968 267.598 34.9968ZM271.982 35.744V29.3685H272.928V30.3314H272.995C273.111 30.016 273.321 29.76 273.626 29.5635C273.93 29.3671 274.273 29.2688 274.655 29.2688C274.727 29.2688 274.817 29.2702 274.925 29.273C275.033 29.2758 275.114 29.2799 275.17 29.2855V30.2816C275.136 30.2733 275.06 30.2609 274.941 30.2443C274.825 30.2249 274.702 30.2152 274.572 30.2152C274.262 30.2152 273.985 30.2802 273.742 30.4103C273.501 30.5376 273.31 30.7147 273.169 30.9416C273.031 31.1657 272.961 31.4217 272.961 31.7095V35.744H271.982ZM280.847 30.7963L279.967 31.0454C279.912 30.8987 279.83 30.7562 279.722 30.6178C279.617 30.4767 279.473 30.3605 279.29 30.2692C279.108 30.1779 278.874 30.1322 278.589 30.1322C278.199 30.1322 277.874 30.2221 277.613 30.402C277.356 30.5791 277.227 30.8046 277.227 31.0786C277.227 31.3221 277.316 31.5144 277.493 31.6555C277.67 31.7966 277.947 31.9142 278.323 32.0083L279.27 32.2408C279.84 32.3791 280.264 32.5908 280.544 32.8758C280.823 33.1581 280.963 33.5219 280.963 33.9675C280.963 34.3327 280.858 34.6592 280.648 34.947C280.44 35.2348 280.149 35.4617 279.776 35.6277C279.402 35.7938 278.968 35.8768 278.473 35.8768C277.822 35.8768 277.284 35.7357 276.858 35.4534C276.432 35.1712 276.162 34.7589 276.049 34.2165L276.978 33.9841C277.067 34.3272 277.234 34.5845 277.481 34.7561C277.73 34.9277 278.055 35.0134 278.456 35.0134C278.913 35.0134 279.275 34.9166 279.543 34.7229C279.815 34.5264 279.95 34.2912 279.95 34.0173C279.95 33.7959 279.873 33.6105 279.718 33.4611C279.563 33.3089 279.325 33.1954 279.004 33.1207L277.941 32.8717C277.357 32.7333 276.929 32.5189 276.655 32.2283C276.383 31.935 276.248 31.5683 276.248 31.1284C276.248 30.7686 276.349 30.4504 276.551 30.1737C276.756 29.897 277.034 29.6798 277.385 29.522C277.739 29.3643 278.141 29.2855 278.589 29.2855C279.22 29.2855 279.715 29.4238 280.075 29.7005C280.437 29.9772 280.695 30.3425 280.847 30.7963Z" fill="white"/>
</g>
</g>
<g clip-path="url(#clip5_17_2889)">
<path d="M27.083 85.4304L15.6381 81.6154C15.4423 81.5502 15.2306 81.5502 15.0348 81.6154L3.58993 85.4304C3.40002 85.4937 3.23484 85.6151 3.1178 85.7775C3.00076 85.94 2.93779 86.1351 2.93781 86.3352V95.8727C2.93781 96.1256 3.03829 96.3682 3.21715 96.5471C3.39601 96.7259 3.6386 96.8264 3.89155 96.8264C4.14449 96.8264 4.38708 96.7259 4.56594 96.5471C4.7448 96.3682 4.84529 96.1256 4.84529 95.8727V87.6586L8.84981 88.9926C7.78586 90.7115 7.44753 92.7823 7.9091 94.7505C8.37068 96.7186 9.59443 98.4231 11.3117 99.4897C9.16574 100.331 7.31071 101.854 5.95401 103.935C5.88345 104.04 5.83444 104.158 5.80983 104.282C5.78522 104.406 5.78549 104.534 5.81064 104.658C5.83579 104.781 5.88531 104.899 5.95632 105.004C6.02733 105.108 6.11841 105.198 6.22428 105.267C6.33015 105.336 6.44868 105.383 6.573 105.406C6.69731 105.429 6.82493 105.427 6.94843 105.4C7.07192 105.373 7.18884 105.322 7.29237 105.249C7.39591 105.177 7.484 105.084 7.55153 104.977C9.34814 102.221 12.1855 100.641 15.3364 100.641C18.4874 100.641 21.3247 102.221 23.1214 104.977C23.2612 105.185 23.4773 105.33 23.7229 105.38C23.9685 105.429 24.2238 105.381 24.4337 105.244C24.6436 105.107 24.7912 104.893 24.8445 104.648C24.8979 104.403 24.8528 104.147 24.7189 103.935C23.3622 101.854 21.5 100.331 19.3612 99.4897C21.0768 98.4231 22.2994 96.7197 22.7609 94.7531C23.2224 92.7864 22.8851 90.7169 21.8231 88.9986L27.083 87.2461C27.2729 87.1828 27.4381 87.0614 27.5552 86.8989C27.6723 86.7365 27.7353 86.5414 27.7353 86.3412C27.7353 86.141 27.6723 85.9459 27.5552 85.7835C27.4381 85.6211 27.2729 85.4996 27.083 85.4363V85.4304ZM21.0589 93.0114C21.0591 93.9161 20.8449 94.808 20.4337 95.6138C20.0226 96.4197 19.4262 97.1166 18.6935 97.6473C17.9609 98.1781 17.1128 98.5275 16.219 98.667C15.3251 98.8066 14.4109 98.7322 13.5513 98.4499C12.6918 98.1677 11.9114 97.6857 11.2742 97.0435C10.637 96.4013 10.1612 95.6172 9.8857 94.7554C9.61024 93.8937 9.54302 92.9789 9.68956 92.0862C9.83609 91.1934 10.1922 90.3482 10.7287 89.6197L15.0348 91.0503C15.2306 91.1156 15.4423 91.1156 15.6381 91.0503L19.9442 89.6197C20.6688 90.602 21.0595 91.7908 21.0589 93.0114ZM15.3364 89.1452L6.90775 86.3352L15.3364 83.5253L23.7651 86.3352L15.3364 89.1452Z" fill="white"/>
<g clip-path="url(#clip6_17_2889)">
<path d="M41.819 96.7053V94.7328L46.4279 90.4654C46.8198 90.086 47.1486 89.7446 47.4141 89.4412C47.6839 89.1377 47.8883 88.8406 48.0274 88.5498C48.1664 88.2547 48.236 87.9365 48.236 87.5951C48.236 87.2158 48.1496 86.8891 47.9768 86.6152C47.804 86.337 47.5679 86.1242 47.2687 85.9766C46.9695 85.8249 46.6302 85.749 46.2508 85.749C45.8546 85.749 45.509 85.8291 45.214 85.9893C44.919 86.1494 44.6914 86.3791 44.5312 86.6784C44.371 86.9776 44.291 87.3338 44.291 87.7468H41.6926C41.6926 86.8997 41.8843 86.1642 42.2679 85.5404C42.6514 84.9166 43.1888 84.434 43.88 84.0926C44.5713 83.7512 45.3678 83.5805 46.2698 83.5805C47.197 83.5805 48.0042 83.7449 48.6912 84.0737C49.3824 84.3982 49.9198 84.8492 50.3033 85.4266C50.6869 86.004 50.8786 86.6657 50.8786 87.4118C50.8786 87.9007 50.7817 88.3833 50.5878 88.8595C50.3982 89.3358 50.0589 89.8648 49.57 90.4464C49.081 91.0238 48.3919 91.7171 47.5026 92.5264L45.6123 94.3788V94.4673H51.0493V96.7053H41.819ZM55.9854 94.9351L55.9158 95.6306C55.861 96.1869 55.7557 96.7411 55.5997 97.2933C55.448 97.8496 55.2878 98.3533 55.1192 98.8043C54.9549 99.2553 54.8221 99.6093 54.7209 99.8664H52.976C53.0392 99.6177 53.1256 99.27 53.2352 98.8232C53.3448 98.3807 53.4481 97.8833 53.545 97.3312C53.642 96.7791 53.7031 96.2164 53.7284 95.6432L53.76 94.9351H55.9854ZM58.4226 96.7053V94.7328L63.0314 90.4654C63.4234 90.086 63.7521 89.7446 64.0177 89.4412C64.2874 89.1377 64.4918 88.8406 64.6309 88.5498C64.77 88.2547 64.8395 87.9365 64.8395 87.5951C64.8395 87.2158 64.7531 86.8891 64.5803 86.6152C64.4075 86.337 64.1715 86.1242 63.8722 85.9766C63.573 85.8249 63.2337 85.749 62.8544 85.749C62.4582 85.749 62.1126 85.8291 61.8175 85.9893C61.5225 86.1494 61.2949 86.3791 61.1348 86.6784C60.9746 86.9776 60.8945 87.3338 60.8945 87.7468H58.2961C58.2961 86.8997 58.4879 86.1642 58.8714 85.5404C59.255 84.9166 59.7923 84.434 60.4836 84.0926C61.1748 83.7512 61.9714 83.5805 62.8733 83.5805C63.8006 83.5805 64.6077 83.7449 65.2947 84.0737C65.9859 84.3982 66.5233 84.8492 66.9069 85.4266C67.2904 86.004 67.4822 86.6657 67.4822 87.4118C67.4822 87.9007 67.3853 88.3833 67.1914 88.8595C67.0017 89.3358 66.6624 89.8648 66.1735 90.4464C65.6846 91.0238 64.9955 91.7171 64.1062 92.5264L62.2158 94.3788V94.4673H67.6529V96.7053H58.4226ZM69.1623 94.4293V92.2735L74.5677 83.7576H76.4265V86.7416H75.3264L71.9188 92.1344V92.2356H79.6002V94.4293H69.1623ZM75.377 96.7053V93.7718L75.4276 92.8172V83.7576H77.9943V96.7053H75.377ZM86.1531 96.8823C85.2595 96.8823 84.463 96.718 83.7633 96.3892C83.0679 96.0605 82.5157 95.6074 82.1069 95.03C81.6981 94.4525 81.4852 93.7908 81.4684 93.0448H84.1237C84.1532 93.5464 84.3639 93.9531 84.7559 94.265C85.1479 94.5769 85.6136 94.7328 86.1531 94.7328C86.583 94.7328 86.9623 94.638 87.2911 94.4483C87.624 94.2544 87.8832 93.9868 88.0687 93.6454C88.2584 93.2998 88.3532 92.9036 88.3532 92.4568C88.3532 92.0016 88.2562 91.6012 88.0624 91.2556C87.8727 90.91 87.6093 90.6403 87.2721 90.4464C86.9349 90.2525 86.5493 90.1535 86.1151 90.1493C85.7358 90.1493 85.367 90.2272 85.0088 90.3832C84.6547 90.5391 84.3787 90.752 84.1806 91.0217L81.7465 90.5855L82.3598 83.7576H90.2751V85.9956H84.6168L84.2817 89.2389H84.3576C84.5852 88.9185 84.9287 88.653 85.3881 88.4423C85.8475 88.2315 86.3617 88.1262 86.9307 88.1262C87.7104 88.1262 88.4059 88.3095 89.017 88.6762C89.6281 89.0429 90.1107 89.5465 90.4648 90.1872C90.8188 90.8236 90.9937 91.557 90.9895 92.3873C90.9937 93.2598 90.7914 94.0353 90.3826 94.7138C89.978 95.3882 89.4111 95.9193 88.6819 96.307C87.957 96.6906 87.114 96.8823 86.1531 96.8823ZM95.434 94.9351L95.3644 95.6306C95.3097 96.1869 95.2043 96.7411 95.0483 97.2933C94.8966 97.8496 94.7364 98.3533 94.5679 98.8043C94.4035 99.2553 94.2707 99.6093 94.1696 99.8664H92.4246C92.4879 99.6177 92.5743 99.27 92.6839 98.8232C92.7934 98.3807 92.8967 97.8833 92.9936 97.3312C93.0906 96.7791 93.1517 96.2164 93.177 95.6432L93.2086 94.9351H95.434ZM102.24 96.8823C101.296 96.8823 100.455 96.7201 99.7172 96.3955C98.9839 96.0668 98.4043 95.6158 97.9787 95.0426C97.5572 94.4652 97.3401 93.7992 97.3275 93.0448H100.084C100.101 93.3609 100.204 93.6391 100.394 93.8793C100.588 94.1153 100.845 94.2987 101.165 94.4293C101.485 94.56 101.846 94.6253 102.246 94.6253C102.663 94.6253 103.032 94.5516 103.352 94.4041C103.673 94.2565 103.924 94.0521 104.105 93.7908C104.286 93.5295 104.377 93.2281 104.377 92.8867C104.377 92.5411 104.28 92.2356 104.086 91.97C103.896 91.7003 103.622 91.4895 103.264 91.3378C102.91 91.1861 102.488 91.1102 102 91.1102H100.792V89.0998H102C102.413 89.0998 102.777 89.0281 103.093 88.8848C103.414 88.7415 103.662 88.5434 103.839 88.2905C104.016 88.0334 104.105 87.7342 104.105 87.3928C104.105 87.0683 104.027 86.7838 103.871 86.5393C103.719 86.2906 103.504 86.0968 103.226 85.9577C102.952 85.8186 102.632 85.749 102.265 85.749C101.894 85.749 101.555 85.8165 101.247 85.9513C100.94 86.082 100.693 86.2696 100.508 86.514C100.322 86.7585 100.223 87.0451 100.21 87.3738H97.5867C97.5993 86.6278 97.8122 85.9703 98.2252 85.4013C98.6383 84.8323 99.1946 84.3877 99.8943 84.0673C100.598 83.7428 101.393 83.5805 102.278 83.5805C103.171 83.5805 103.953 83.7428 104.623 84.0673C105.293 84.3919 105.814 84.8302 106.185 85.3824C106.56 85.9303 106.745 86.5456 106.741 87.2284C106.745 87.9534 106.52 88.5582 106.065 89.0429C105.614 89.5276 105.026 89.8353 104.301 89.9659V90.0671C105.253 90.1893 105.978 90.5202 106.476 91.0596C106.977 91.5949 107.226 92.2651 107.222 93.0701C107.226 93.8077 107.013 94.4631 106.583 95.0363C106.157 95.6095 105.569 96.0605 104.819 96.3892C104.069 96.718 103.209 96.8823 102.24 96.8823ZM108.993 94.4293V92.2735L114.399 83.7576H116.258V86.7416H115.158L111.75 92.1344V92.2356H119.431V94.4293H108.993ZM115.208 96.7053V93.7718L115.259 92.8172V83.7576H117.825V96.7053H115.208ZM126.714 83.7576V96.7053H123.977V86.356H123.901L120.936 88.2147V85.787L124.141 83.7576H126.714Z" fill="white"/>
<path d="M45.7116 107.156C45.6683 106.79 45.4925 106.506 45.1842 106.304C44.8759 106.101 44.4978 106 44.0498 106C43.7223 106 43.4357 106.053 43.19 106.159C42.9468 106.265 42.7565 106.411 42.6192 106.596C42.4843 106.782 42.4169 106.993 42.4169 107.229C42.4169 107.426 42.4639 107.596 42.5578 107.738C42.6541 107.878 42.777 107.994 42.9263 108.088C43.0756 108.18 43.2322 108.256 43.3959 108.316C43.5597 108.374 43.7102 108.421 43.8475 108.457L44.5989 108.659C44.7916 108.71 45.006 108.78 45.242 108.869C45.4804 108.958 45.708 109.079 45.9248 109.234C46.144 109.385 46.3246 109.58 46.4667 109.819C46.6088 110.057 46.6798 110.35 46.6798 110.697C46.6798 111.096 46.5751 111.458 46.3655 111.78C46.1584 112.103 45.8549 112.36 45.4551 112.55C45.0578 112.74 44.5749 112.835 44.0065 112.835C43.4766 112.835 43.0178 112.75 42.63 112.579C42.2447 112.408 41.9412 112.169 41.7197 111.864C41.5005 111.558 41.3765 111.202 41.3476 110.798H42.2724C42.2965 111.077 42.3904 111.308 42.5542 111.491C42.7204 111.672 42.9299 111.807 43.1828 111.896C43.4381 111.983 43.7126 112.026 44.0065 112.026C44.3485 112.026 44.6555 111.971 44.9277 111.86C45.1999 111.747 45.4154 111.59 45.5744 111.39C45.7333 111.188 45.8128 110.952 45.8128 110.682C45.8128 110.437 45.7442 110.237 45.6069 110.083C45.4696 109.928 45.289 109.803 45.065 109.707C44.841 109.61 44.5989 109.526 44.3388 109.454L43.4284 109.194C42.8504 109.028 42.3928 108.79 42.0556 108.482C41.7185 108.174 41.5499 107.77 41.5499 107.272C41.5499 106.858 41.6619 106.496 41.8858 106.188C42.1122 105.877 42.4157 105.637 42.7962 105.466C43.1792 105.292 43.6067 105.205 44.0787 105.205C44.5556 105.205 44.9795 105.291 45.3504 105.462C45.7213 105.631 46.0151 105.862 46.2319 106.156C46.451 106.449 46.5666 106.783 46.5787 107.156H45.7116ZM50.4505 107.156V107.879H47.5749V107.156H50.4505ZM48.413 105.827H49.2656V111.116C49.2656 111.357 49.3005 111.537 49.3704 111.658C49.4426 111.776 49.5341 111.855 49.6449 111.896C49.7581 111.935 49.8773 111.954 50.0026 111.954C50.0965 111.954 50.1736 111.949 50.2338 111.939C50.294 111.927 50.3422 111.918 50.3783 111.911L50.5517 112.676C50.4939 112.698 50.4132 112.72 50.3097 112.741C50.2061 112.766 50.0748 112.778 49.9159 112.778C49.675 112.778 49.439 112.726 49.2078 112.622C48.979 112.519 48.7887 112.361 48.637 112.149C48.4877 111.937 48.413 111.67 48.413 111.347V105.827ZM55.2301 110.437V107.156H56.0827V112.705H55.2301V111.766H55.1723C55.0422 112.048 54.8399 112.287 54.5654 112.485C54.2908 112.68 53.944 112.778 53.5249 112.778C53.1781 112.778 52.8698 112.702 52.6001 112.55C52.3303 112.396 52.1184 112.165 51.9642 111.856C51.8101 111.546 51.733 111.154 51.733 110.682V107.156H52.5856V110.624C52.5856 111.029 52.6988 111.352 52.9252 111.593C53.154 111.833 53.4454 111.954 53.7995 111.954C54.0114 111.954 54.227 111.9 54.4461 111.791C54.6677 111.683 54.8532 111.517 55.0025 111.293C55.1542 111.069 55.2301 110.783 55.2301 110.437ZM59.7396 112.821C59.2772 112.821 58.8689 112.704 58.5149 112.47C58.1609 112.234 57.8839 111.902 57.684 111.473C57.4841 111.042 57.3841 110.533 57.3841 109.945C57.3841 109.362 57.4841 108.857 57.684 108.428C57.8839 107.999 58.1621 107.668 58.5185 107.434C58.875 107.201 59.2868 107.084 59.754 107.084C60.1153 107.084 60.4007 107.144 60.6102 107.265C60.8222 107.383 60.9835 107.518 61.0943 107.669C61.2075 107.819 61.2954 107.941 61.3581 108.038H61.4303V105.307H62.2829V112.705H61.4592V111.853H61.3581C61.2954 111.954 61.2063 112.082 61.0907 112.236C60.9751 112.387 60.8101 112.523 60.5958 112.644C60.3814 112.762 60.096 112.821 59.7396 112.821ZM59.8552 112.055C60.1972 112.055 60.4862 111.966 60.7222 111.788C60.9583 111.607 61.1377 111.358 61.2605 111.04C61.3833 110.72 61.4448 110.35 61.4448 109.931C61.4448 109.517 61.3846 109.154 61.2641 108.843C61.1437 108.53 60.9655 108.287 60.7295 108.114C60.4934 107.938 60.202 107.85 59.8552 107.85C59.4939 107.85 59.1929 107.943 58.952 108.128C58.7136 108.311 58.5342 108.56 58.4137 108.876C58.2957 109.189 58.2367 109.541 58.2367 109.931C58.2367 110.326 58.2969 110.685 58.4174 111.007C58.5402 111.328 58.7208 111.583 58.9593 111.773C59.2001 111.961 59.4987 112.055 59.8552 112.055ZM66.2893 112.821C65.7547 112.821 65.2934 112.703 64.9057 112.467C64.5203 112.228 64.2229 111.896 64.0134 111.47C63.8062 111.041 63.7027 110.543 63.7027 109.974C63.7027 109.406 63.8062 108.905 64.0134 108.471C64.2229 108.035 64.5143 107.696 64.8876 107.453C65.2633 107.207 65.7017 107.084 66.2026 107.084C66.4916 107.084 66.777 107.132 67.0588 107.229C67.3406 107.325 67.5971 107.481 67.8283 107.698C68.0595 107.913 68.2438 108.197 68.3811 108.551C68.5183 108.905 68.587 109.341 68.587 109.859V110.22H64.3096V109.483H67.7199C67.7199 109.17 67.6573 108.89 67.5321 108.645C67.4093 108.399 67.2334 108.205 67.0046 108.063C66.7782 107.921 66.5109 107.85 66.2026 107.85C65.863 107.85 65.5692 107.934 65.3211 108.103C65.0755 108.269 64.8864 108.486 64.754 108.753C64.6215 109.02 64.5553 109.307 64.5553 109.613V110.104C64.5553 110.523 64.6275 110.879 64.772 111.17C64.9189 111.459 65.1224 111.679 65.3826 111.831C65.6427 111.98 65.9449 112.055 66.2893 112.055C66.5133 112.055 66.7156 112.024 66.8963 111.961C67.0793 111.896 67.2371 111.8 67.3695 111.672C67.502 111.542 67.6043 111.381 67.6766 111.188L68.5003 111.419C68.4136 111.699 68.2679 111.944 68.0631 112.156C67.8584 112.366 67.6055 112.53 67.3045 112.648C67.0034 112.763 66.6651 112.821 66.2893 112.821ZM70.7365 109.367V112.705H69.8839V107.156H70.7076V108.023H70.7799C70.9099 107.742 71.1074 107.515 71.3723 107.344C71.6373 107.171 71.9793 107.084 72.3983 107.084C72.7741 107.084 73.1028 107.161 73.3846 107.315C73.6664 107.467 73.8855 107.698 74.0421 108.009C74.1986 108.317 74.2769 108.707 74.2769 109.179V112.705H73.4243V109.237C73.4243 108.801 73.3111 108.462 73.0847 108.218C72.8583 107.973 72.5477 107.85 72.1527 107.85C71.8805 107.85 71.6373 107.909 71.4229 108.027C71.211 108.145 71.0436 108.317 70.9208 108.544C70.7979 108.77 70.7365 109.044 70.7365 109.367ZM78.2481 107.156V107.879H75.3725V107.156H78.2481ZM76.2106 105.827H77.0632V111.116C77.0632 111.357 77.0981 111.537 77.1679 111.658C77.2402 111.776 77.3317 111.855 77.4425 111.896C77.5557 111.935 77.6749 111.954 77.8002 111.954C77.8941 111.954 77.9712 111.949 78.0314 111.939C78.0916 111.927 78.1398 111.918 78.1759 111.911L78.3493 112.676C78.2915 112.698 78.2108 112.72 78.1072 112.741C78.0037 112.766 77.8724 112.778 77.7135 112.778C77.4726 112.778 77.2366 112.726 77.0054 112.622C76.7766 112.519 76.5863 112.361 76.4346 112.149C76.2853 111.937 76.2106 111.67 76.2106 111.347V105.827ZM83.3618 108.399L82.596 108.616C82.5478 108.488 82.4767 108.364 82.3828 108.244C82.2913 108.121 82.1661 108.02 82.0071 107.94C81.8481 107.861 81.6446 107.821 81.3966 107.821C81.057 107.821 80.774 107.899 80.5476 108.056C80.3236 108.21 80.2116 108.406 80.2116 108.645C80.2116 108.857 80.2887 109.024 80.4428 109.147C80.597 109.27 80.8378 109.372 81.1653 109.454L81.989 109.656C82.4852 109.777 82.8549 109.961 83.0981 110.209C83.3414 110.455 83.463 110.771 83.463 111.159C83.463 111.477 83.3715 111.761 83.1884 112.012C83.0078 112.262 82.7549 112.46 82.4298 112.604C82.1046 112.749 81.7265 112.821 81.2954 112.821C80.7294 112.821 80.261 112.698 79.8901 112.452C79.5192 112.207 79.2844 111.848 79.1856 111.376L79.9948 111.174C80.0719 111.472 80.2176 111.696 80.432 111.846C80.6487 111.995 80.9317 112.069 81.281 112.069C81.6783 112.069 81.9939 111.985 82.2275 111.817C82.4635 111.646 82.5815 111.441 82.5815 111.202C82.5815 111.01 82.5141 110.848 82.3792 110.718C82.2443 110.586 82.0372 110.487 81.7578 110.422L80.833 110.205C80.3248 110.085 79.9515 109.898 79.7131 109.645C79.477 109.39 79.359 109.071 79.359 108.688C79.359 108.375 79.4469 108.098 79.6227 107.857C79.801 107.616 80.043 107.427 80.3489 107.29C80.6572 107.153 81.0064 107.084 81.3966 107.084C81.9457 107.084 82.3768 107.204 82.6899 107.445C83.0054 107.686 83.2294 108.004 83.3618 108.399Z" fill="white"/>
</g>
<g clip-path="url(#clip7_17_2889)">
<path d="M206.062 97.6272V92.498L206.382 92.3292C206.59 92.2211 206.721 92.0068 206.723 91.7722C206.726 91.5382 206.599 91.3214 206.393 91.2085L196.827 86.0901C196.636 85.9852 196.405 85.9858 196.212 86.092L186.698 91.2168C186.496 91.3297 186.371 91.5439 186.372 91.7763C186.373 92.0087 186.501 92.2214 186.706 92.3321L190.886 94.5571C190.834 94.6497 190.801 94.7552 190.801 94.869V100.249C190.801 100.339 190.82 100.428 190.857 100.51C190.894 100.591 190.947 100.665 191.014 100.724C191.152 100.847 192.474 101.918 196.513 101.918C200.539 101.918 201.896 100.906 202.037 100.79C202.185 100.67 202.27 100.489 202.27 100.298V94.7793C202.27 94.69 202.252 94.6051 202.219 94.5282L204.79 93.1697V97.6307C204.413 97.8513 204.158 98.256 204.158 98.724C204.158 99.4263 204.727 99.9957 205.429 99.9957C206.131 99.9957 206.701 99.4263 206.701 98.724C206.701 98.2532 206.442 97.8469 206.062 97.6272ZM200.999 99.9334C200.499 100.174 199.176 100.647 196.513 100.647C193.833 100.647 192.541 100.143 192.073 99.9009V95.1891L196.202 97.3872C196.295 97.4373 196.398 97.4635 196.504 97.4635C196.606 97.4636 196.707 97.4386 196.798 97.3907L200.999 95.172V99.9334ZM196.509 96.1073L188.33 91.7646L196.523 87.3739L204.741 91.7519L196.509 96.1073Z" fill="white"/>
</g>
<g clip-path="url(#clip8_17_2889)">
<path d="M222.834 94.4293V92.2735L228.239 83.7576H230.098V86.7416H228.998L225.59 92.1344V92.2356H233.272V94.4293H222.834ZM229.049 96.7053V93.7718L229.099 92.8172V83.7576H231.666V96.7053H229.049ZM240.065 96.8823C239.399 96.8781 238.756 96.7664 238.137 96.5473C237.521 96.3281 236.969 95.972 236.48 95.4788C235.991 94.9857 235.604 94.3324 235.317 93.519C235.035 92.7055 234.893 91.7066 234.893 90.5223C234.898 89.4349 235.022 88.4633 235.266 87.6077C235.515 86.7479 235.869 86.0188 236.328 85.4203C236.792 84.8218 237.346 84.3666 237.991 84.0547C238.636 83.7386 239.359 83.5805 240.16 83.5805C241.024 83.5805 241.787 83.7491 242.448 84.0863C243.11 84.4193 243.641 84.8724 244.042 85.4456C244.446 86.0188 244.691 86.6615 244.775 87.3738H242.075C241.97 86.9229 241.749 86.5688 241.412 86.3117C241.074 86.0546 240.657 85.9261 240.16 85.9261C239.317 85.9261 238.676 86.2927 238.238 87.0261C237.804 87.7595 237.582 88.7563 237.574 90.0165H237.662C237.856 89.6329 238.118 89.3063 238.446 89.0366C238.779 88.7626 239.157 88.554 239.578 88.4107C240.004 88.2631 240.453 88.1894 240.925 88.1894C241.692 88.1894 242.375 88.3706 242.973 88.7331C243.572 89.0913 244.044 89.5845 244.389 90.2125C244.735 90.8405 244.908 91.5591 244.908 92.3683C244.908 93.245 244.703 94.0247 244.294 94.7075C243.89 95.3903 243.323 95.9256 242.594 96.3133C241.869 96.6969 241.026 96.8866 240.065 96.8823ZM240.052 94.7328C240.474 94.7328 240.851 94.6317 241.184 94.4293C241.517 94.227 241.778 93.9531 241.968 93.6075C242.158 93.2619 242.252 92.8741 242.252 92.4442C242.252 92.0143 242.158 91.6286 241.968 91.2872C241.782 90.9458 241.525 90.674 241.197 90.4717C240.868 90.2694 240.493 90.1682 240.071 90.1682C239.755 90.1682 239.462 90.2272 239.192 90.3452C238.927 90.4633 238.693 90.6276 238.491 90.8384C238.293 91.0491 238.137 91.2936 238.023 91.5717C237.909 91.8457 237.852 92.1386 237.852 92.4505C237.852 92.8678 237.947 93.2492 238.137 93.5948C238.331 93.9404 238.592 94.2165 238.921 94.423C239.254 94.6295 239.631 94.7328 240.052 94.7328ZM249.262 94.9351L249.192 95.6306C249.138 96.1869 249.032 96.7411 248.876 97.2933C248.725 97.8496 248.564 98.3533 248.396 98.8043C248.232 99.2553 248.099 99.6093 247.998 99.8664H246.253C246.316 99.6177 246.402 99.27 246.512 98.8232C246.621 98.3807 246.725 97.8833 246.822 97.3312C246.919 96.7791 246.98 96.2164 247.005 95.6432L247.037 94.9351H249.262ZM256.068 96.8823C255.124 96.8823 254.283 96.7201 253.545 96.3955C252.812 96.0668 252.232 95.6158 251.807 95.0426C251.385 94.4652 251.168 93.7992 251.156 93.0448H253.912C253.929 93.3609 254.032 93.6391 254.222 93.8793C254.416 94.1153 254.673 94.2987 254.993 94.4293C255.313 94.56 255.674 94.6253 256.074 94.6253C256.491 94.6253 256.86 94.5516 257.181 94.4041C257.501 94.2565 257.752 94.0521 257.933 93.7908C258.114 93.5295 258.205 93.2281 258.205 92.8867C258.205 92.5411 258.108 92.2356 257.914 91.97C257.724 91.7003 257.45 91.4895 257.092 91.3378C256.738 91.1861 256.316 91.1102 255.828 91.1102H254.62V89.0998H255.828C256.241 89.0998 256.605 89.0281 256.921 88.8848C257.242 88.7415 257.49 88.5434 257.667 88.2905C257.844 88.0334 257.933 87.7342 257.933 87.3928C257.933 87.0683 257.855 86.7838 257.699 86.5393C257.547 86.2906 257.332 86.0968 257.054 85.9577C256.78 85.8186 256.46 85.749 256.093 85.749C255.722 85.749 255.383 85.8165 255.075 85.9513C254.768 86.082 254.521 86.2696 254.336 86.514C254.15 86.7585 254.051 87.0451 254.038 87.3738H251.415C251.427 86.6278 251.64 85.9703 252.053 85.4013C252.466 84.8323 253.023 84.3877 253.722 84.0673C254.426 83.7428 255.221 83.5805 256.106 83.5805C256.999 83.5805 257.781 83.7428 258.451 84.0673C259.121 84.3919 259.642 84.8302 260.013 85.3824C260.388 85.9303 260.573 86.5456 260.569 87.2284C260.573 87.9534 260.348 88.5582 259.893 89.0429C259.442 89.5276 258.854 89.8353 258.129 89.9659V90.0671C259.081 90.1893 259.806 90.5202 260.304 91.0596C260.805 91.5949 261.054 92.2651 261.05 93.0701C261.054 93.8077 260.841 94.4631 260.411 95.0363C259.985 95.6095 259.397 96.0605 258.647 96.3892C257.897 96.718 257.037 96.8823 256.068 96.8823ZM263.017 96.7053V94.7328L267.626 90.4654C268.018 90.086 268.347 89.7446 268.613 89.4412C268.882 89.1377 269.087 88.8406 269.226 88.5498C269.365 88.2547 269.434 87.9365 269.434 87.5951C269.434 87.2158 269.348 86.8891 269.175 86.6152C269.002 86.337 268.766 86.1242 268.467 85.9766C268.168 85.8249 267.829 85.749 267.449 85.749C267.053 85.749 266.707 85.8291 266.412 85.9893C266.117 86.1494 265.89 86.3791 265.73 86.6784C265.569 86.9776 265.489 87.3338 265.489 87.7468H262.891C262.891 86.8997 263.083 86.1642 263.466 85.5404C263.85 84.9166 264.387 84.434 265.078 84.0926C265.77 83.7512 266.566 83.5805 267.468 83.5805C268.395 83.5805 269.203 83.7449 269.89 84.0737C270.581 84.3982 271.118 84.8492 271.502 85.4266C271.885 86.004 272.077 86.6657 272.077 87.4118C272.077 87.9007 271.98 88.3833 271.786 88.8595C271.597 89.3358 271.257 89.8648 270.768 90.4464C270.279 91.0238 269.59 91.7171 268.701 92.5264L266.811 94.3788V94.4673H272.248V96.7053H263.017ZM279.061 96.8823C278.088 96.8823 277.222 96.7243 276.463 96.4082C275.709 96.0879 275.116 95.6516 274.687 95.0995C274.257 94.5474 274.042 93.9215 274.042 93.2218C274.042 92.6823 274.164 92.1871 274.408 91.7361C274.657 91.2809 274.994 90.9037 275.42 90.6044C275.846 90.301 276.322 90.1071 276.849 90.0228V89.9343C276.158 89.7952 275.597 89.4601 275.167 88.9291C274.737 88.3938 274.522 87.7721 274.522 87.064C274.522 86.3939 274.718 85.7975 275.11 85.2749C275.502 84.748 276.039 84.335 276.722 84.0357C277.409 83.7323 278.189 83.5805 279.061 83.5805C279.934 83.5805 280.712 83.7323 281.394 84.0357C282.081 84.3392 282.621 84.7544 283.013 85.2812C283.405 85.8038 283.603 86.3981 283.607 87.064C283.603 87.7763 283.384 88.398 282.95 88.9291C282.515 89.4601 281.959 89.7952 281.281 89.9343V90.0228C281.799 90.1071 282.269 90.301 282.69 90.6044C283.116 90.9037 283.453 91.2809 283.702 91.7361C283.955 92.1871 284.083 92.6823 284.088 93.2218C284.083 93.9215 283.866 94.5474 283.436 95.0995C283.006 95.6516 282.412 96.0879 281.654 96.4082C280.899 96.7243 280.035 96.8823 279.061 96.8823ZM279.061 94.8719C279.496 94.8719 279.875 94.7939 280.199 94.638C280.524 94.4778 280.777 94.2587 280.958 93.9805C281.144 93.6981 281.236 93.3735 281.236 93.0069C281.236 92.6318 281.141 92.3009 280.952 92.0143C280.762 91.7235 280.505 91.4959 280.18 91.3315C279.856 91.1629 279.483 91.0786 279.061 91.0786C278.644 91.0786 278.271 91.1629 277.942 91.3315C277.614 91.4959 277.354 91.7235 277.165 92.0143C276.979 92.3009 276.887 92.6318 276.887 93.0069C276.887 93.3735 276.977 93.6981 277.159 93.9805C277.34 94.2587 277.595 94.4778 277.923 94.638C278.252 94.7939 278.632 94.8719 279.061 94.8719ZM279.061 89.0871C279.424 89.0871 279.746 89.0134 280.029 88.8659C280.311 88.7183 280.532 88.5139 280.693 88.2526C280.853 87.9913 280.933 87.6899 280.933 87.3485C280.933 87.0114 280.853 86.7163 280.693 86.4634C280.532 86.2063 280.313 86.0061 280.035 85.8628C279.757 85.7153 279.432 85.6416 279.061 85.6416C278.695 85.6416 278.37 85.7153 278.088 85.8628C277.805 86.0061 277.584 86.2063 277.424 86.4634C277.268 86.7163 277.19 87.0114 277.19 87.3485C277.19 87.6899 277.27 87.9913 277.43 88.2526C277.591 88.5139 277.812 88.7183 278.094 88.8659C278.377 89.0134 278.699 89.0871 279.061 89.0871Z" fill="white"/>
<path d="M224.039 105.205V113.705H223.01V105.205H224.039ZM226.95 109.87V113.705H225.97V107.33H226.917V108.326H227C227.149 108.002 227.376 107.742 227.68 107.546C227.985 107.346 228.378 107.247 228.859 107.247C229.291 107.247 229.669 107.335 229.992 107.512C230.316 107.687 230.568 107.952 230.748 108.309C230.928 108.664 231.018 109.112 231.018 109.654V113.705H230.038V109.721C230.038 109.22 229.908 108.83 229.648 108.55C229.388 108.268 229.031 108.127 228.577 108.127C228.264 108.127 227.985 108.195 227.738 108.33C227.495 108.466 227.303 108.664 227.162 108.924C227.02 109.184 226.95 109.499 226.95 109.87ZM237.323 108.758L236.444 109.007C236.388 108.86 236.307 108.718 236.199 108.579C236.093 108.438 235.95 108.322 235.767 108.231C235.584 108.139 235.351 108.094 235.065 108.094C234.675 108.094 234.35 108.183 234.09 108.363C233.833 108.54 233.704 108.766 233.704 109.04C233.704 109.283 233.793 109.476 233.97 109.617C234.147 109.758 234.424 109.876 234.8 109.97L235.746 110.202C236.316 110.34 236.741 110.552 237.02 110.837C237.3 111.119 237.44 111.483 237.44 111.929C237.44 112.294 237.335 112.621 237.124 112.908C236.917 113.196 236.626 113.423 236.253 113.589C235.879 113.755 235.445 113.838 234.949 113.838C234.299 113.838 233.761 113.697 233.335 113.415C232.909 113.133 232.639 112.72 232.525 112.178L233.455 111.945C233.544 112.289 233.711 112.546 233.957 112.717C234.206 112.889 234.531 112.975 234.933 112.975C235.389 112.975 235.752 112.878 236.02 112.684C236.291 112.488 236.427 112.253 236.427 111.979C236.427 111.757 236.349 111.572 236.194 111.422C236.04 111.27 235.802 111.157 235.481 111.082L234.418 110.833C233.834 110.695 233.405 110.48 233.131 110.19C232.86 109.896 232.724 109.53 232.724 109.09C232.724 108.73 232.825 108.412 233.027 108.135C233.232 107.858 233.51 107.641 233.862 107.483C234.216 107.326 234.617 107.247 235.065 107.247C235.696 107.247 236.192 107.385 236.551 107.662C236.914 107.939 237.171 108.304 237.323 108.758ZM241.687 107.33V108.16H238.383V107.33H241.687ZM239.346 105.802H240.325V111.879C240.325 112.156 240.366 112.363 240.446 112.502C240.529 112.637 240.634 112.729 240.761 112.776C240.891 112.82 241.028 112.842 241.172 112.842C241.28 112.842 241.369 112.836 241.438 112.825C241.507 112.812 241.562 112.8 241.604 112.792L241.803 113.672C241.737 113.697 241.644 113.722 241.525 113.747C241.406 113.775 241.255 113.788 241.073 113.788C240.796 113.788 240.525 113.729 240.259 113.61C239.996 113.491 239.778 113.31 239.603 113.066C239.432 112.823 239.346 112.515 239.346 112.145V105.802ZM243.16 113.705V107.33H244.107V108.293H244.173C244.289 107.977 244.5 107.721 244.804 107.525C245.108 107.328 245.452 107.23 245.833 107.23C245.905 107.23 245.995 107.232 246.103 107.234C246.211 107.237 246.293 107.241 246.348 107.247V108.243C246.315 108.235 246.239 108.222 246.12 108.206C246.004 108.186 245.881 108.177 245.75 108.177C245.441 108.177 245.164 108.242 244.92 108.372C244.68 108.499 244.489 108.676 244.348 108.903C244.209 109.127 244.14 109.383 244.14 109.671V113.705H243.16ZM251.527 111.099V107.33H252.507V113.705H251.527V112.626H251.461C251.311 112.95 251.079 113.225 250.763 113.452C250.448 113.676 250.05 113.788 249.568 113.788C249.17 113.788 248.815 113.701 248.505 113.527C248.196 113.35 247.952 113.084 247.775 112.73C247.598 112.373 247.509 111.923 247.509 111.381V107.33H248.489V111.315C248.489 111.779 248.619 112.15 248.879 112.427C249.142 112.704 249.477 112.842 249.884 112.842C250.127 112.842 250.375 112.78 250.627 112.655C250.881 112.531 251.094 112.34 251.266 112.082C251.44 111.825 251.527 111.497 251.527 111.099ZM256.891 113.838C256.293 113.838 255.779 113.697 255.347 113.415C254.915 113.133 254.583 112.744 254.351 112.248C254.118 111.753 254.002 111.187 254.002 110.551C254.002 109.903 254.121 109.332 254.359 108.837C254.6 108.338 254.935 107.95 255.364 107.67C255.795 107.388 256.299 107.247 256.874 107.247C257.323 107.247 257.727 107.33 258.086 107.496C258.446 107.662 258.741 107.894 258.97 108.193C259.2 108.492 259.343 108.841 259.398 109.239H258.418C258.344 108.949 258.178 108.691 257.92 108.467C257.666 108.24 257.323 108.127 256.891 108.127C256.509 108.127 256.174 108.226 255.887 108.426C255.601 108.622 255.379 108.9 255.218 109.26C255.061 109.617 254.982 110.036 254.982 110.518C254.982 111.01 255.059 111.439 255.214 111.804C255.372 112.17 255.593 112.453 255.878 112.655C256.166 112.857 256.504 112.958 256.891 112.958C257.146 112.958 257.377 112.914 257.584 112.825C257.792 112.737 257.967 112.61 258.111 112.444C258.255 112.277 258.358 112.078 258.418 111.846H259.398C259.343 112.222 259.206 112.561 258.987 112.863C258.771 113.162 258.485 113.4 258.128 113.577C257.774 113.751 257.361 113.838 256.891 113.838ZM263.603 107.33V108.16H260.299V107.33H263.603ZM261.262 105.802H262.241V111.879C262.241 112.156 262.281 112.363 262.362 112.502C262.445 112.637 262.55 112.729 262.677 112.776C262.807 112.82 262.944 112.842 263.088 112.842C263.196 112.842 263.284 112.836 263.354 112.825C263.423 112.812 263.478 112.8 263.52 112.792L263.719 113.672C263.652 113.697 263.56 113.722 263.441 113.747C263.322 113.775 263.171 113.788 262.988 113.788C262.712 113.788 262.44 113.729 262.175 113.61C261.912 113.491 261.693 113.31 261.519 113.066C261.347 112.823 261.262 112.515 261.262 112.145V105.802ZM267.598 113.838C267.022 113.838 266.517 113.701 266.083 113.427C265.651 113.153 265.313 112.77 265.07 112.277C264.829 111.785 264.709 111.209 264.709 110.551C264.709 109.887 264.829 109.307 265.07 108.812C265.313 108.316 265.651 107.932 266.083 107.658C266.517 107.384 267.022 107.247 267.598 107.247C268.173 107.247 268.677 107.384 269.109 107.658C269.543 107.932 269.881 108.316 270.121 108.812C270.365 109.307 270.487 109.887 270.487 110.551C270.487 111.209 270.365 111.785 270.121 112.277C269.881 112.77 269.543 113.153 269.109 113.427C268.677 113.701 268.173 113.838 267.598 113.838ZM267.598 112.958C268.035 112.958 268.395 112.846 268.677 112.622C268.959 112.398 269.168 112.103 269.304 111.738C269.439 111.373 269.507 110.977 269.507 110.551C269.507 110.125 269.439 109.728 269.304 109.36C269.168 108.991 268.959 108.694 268.677 108.467C268.395 108.24 268.035 108.127 267.598 108.127C267.161 108.127 266.801 108.24 266.519 108.467C266.236 108.694 266.027 108.991 265.892 109.36C265.756 109.728 265.688 110.125 265.688 110.551C265.688 110.977 265.756 111.373 265.892 111.738C266.027 112.103 266.236 112.398 266.519 112.622C266.801 112.846 267.161 112.958 267.598 112.958ZM271.982 113.705V107.33H272.928V108.293H272.995C273.111 107.977 273.321 107.721 273.626 107.525C273.93 107.328 274.273 107.23 274.655 107.23C274.727 107.23 274.817 107.232 274.925 107.234C275.033 107.237 275.114 107.241 275.17 107.247V108.243C275.136 108.235 275.06 108.222 274.941 108.206C274.825 108.186 274.702 108.177 274.572 108.177C274.262 108.177 273.985 108.242 273.742 108.372C273.501 108.499 273.31 108.676 273.169 108.903C273.031 109.127 272.961 109.383 272.961 109.671V113.705H271.982ZM280.847 108.758L279.967 109.007C279.912 108.86 279.83 108.718 279.722 108.579C279.617 108.438 279.473 108.322 279.29 108.231C279.108 108.139 278.874 108.094 278.589 108.094C278.199 108.094 277.874 108.183 277.613 108.363C277.356 108.54 277.227 108.766 277.227 109.04C277.227 109.283 277.316 109.476 277.493 109.617C277.67 109.758 277.947 109.876 278.323 109.97L279.27 110.202C279.84 110.34 280.264 110.552 280.544 110.837C280.823 111.119 280.963 111.483 280.963 111.929C280.963 112.294 280.858 112.621 280.648 112.908C280.44 113.196 280.149 113.423 279.776 113.589C279.402 113.755 278.968 113.838 278.473 113.838C277.822 113.838 277.284 113.697 276.858 113.415C276.432 113.133 276.162 112.72 276.049 112.178L276.978 111.945C277.067 112.289 277.234 112.546 277.481 112.717C277.73 112.889 278.055 112.975 278.456 112.975C278.913 112.975 279.275 112.878 279.543 112.684C279.815 112.488 279.95 112.253 279.95 111.979C279.95 111.757 279.873 111.572 279.718 111.422C279.563 111.27 279.325 111.157 279.004 111.082L277.941 110.833C277.357 110.695 276.929 110.48 276.655 110.19C276.383 109.896 276.248 109.53 276.248 109.09C276.248 108.73 276.349 108.412 276.551 108.135C276.756 107.858 277.034 107.641 277.385 107.483C277.739 107.326 278.141 107.247 278.589 107.247C279.22 107.247 279.715 107.385 280.075 107.662C280.437 107.939 280.695 108.304 280.847 108.758Z" fill="white"/>
</g>
</g>
</g>
<defs>
<clipPath id="clip0_17_2889">
<rect width="343.347" height="116.961" fill="white" transform="translate(0.0765991 0.743958)"/>
</clipPath>
<clipPath id="clip1_17_2889">
<rect width="343.347" height="39" fill="white" transform="translate(0.0765991 0.743958)"/>
</clipPath>
<clipPath id="clip2_17_2889">
<rect width="121.443" height="39" fill="white" transform="translate(40.7695 0.743958)"/>
</clipPath>
<clipPath id="clip3_17_2889">
<rect width="20.3465" height="20.3465" fill="white" transform="translate(186.374 5.83057)"/>
</clipPath>
<clipPath id="clip4_17_2889">
<rect width="121.443" height="39" fill="white" transform="translate(221.98 0.743958)"/>
</clipPath>
<clipPath id="clip5_17_2889">
<rect width="343.347" height="39" fill="white" transform="translate(0.0765991 78.7053)"/>
</clipPath>
<clipPath id="clip6_17_2889">
<rect width="121.443" height="39" fill="white" transform="translate(40.7695 78.7053)"/>
</clipPath>
<clipPath id="clip7_17_2889">
<rect width="20.3465" height="20.3465" fill="white" transform="translate(186.374 83.7919)"/>
</clipPath>
<clipPath id="clip8_17_2889">
<rect width="121.443" height="39" fill="white" transform="translate(221.98 78.7053)"/>
</clipPath>
</defs>
</svg>
