<svg width="38" height="74" viewBox="0 0 38 74" fill="none" xmlns="http://www.w3.org/2000/svg">
<mask id="path-1-inside-1_11_651" fill="white">
<path d="M37.1533 0.816878C32.4031 0.816878 27.6994 1.7525 23.3108 3.57033C18.9222 5.38815 14.9346 8.05258 11.5757 11.4115C8.21678 14.7704 5.55235 18.758 3.73452 23.1466C1.9167 27.5352 0.981077 32.2389 0.981078 36.9891C0.981078 41.7393 1.9167 46.443 3.73453 50.8316C5.55235 55.2203 8.21678 59.2079 11.5757 62.5668C14.9346 65.9257 18.9222 68.5901 23.3108 70.4079C27.6994 72.2258 32.4031 73.1614 37.1533 73.1614L37.1533 36.9891L37.1533 0.816878Z"/>
</mask>
<path d="M37.1533 0.816878C32.4031 0.816878 27.6994 1.7525 23.3108 3.57033C18.9222 5.38815 14.9346 8.05258 11.5757 11.4115C8.21678 14.7704 5.55235 18.758 3.73452 23.1466C1.9167 27.5352 0.981077 32.2389 0.981078 36.9891C0.981078 41.7393 1.9167 46.443 3.73453 50.8316C5.55235 55.2203 8.21678 59.2079 11.5757 62.5668C14.9346 65.9257 18.9222 68.5901 23.3108 70.4079C27.6994 72.2258 32.4031 73.1614 37.1533 73.1614L37.1533 36.9891L37.1533 0.816878Z" stroke="white" stroke-width="2" mask="url(#path-1-inside-1_11_651)"/>
</svg>
