<svg width="343" height="49" viewBox="0 0 343 49" fill="none" xmlns="http://www.w3.org/2000/svg">
<g clip-path="url(#clip0_17_2827)">
<path fill-rule="evenodd" clip-rule="evenodd" d="M14.0001 4.72449C19.5229 4.72449 24.0001 9.20164 24.0001 14.7245V4.72449H34.0001C39.5229 4.72449 44.0001 9.20164 44.0001 14.7245C44.0001 20.2473 39.5229 24.7245 34.0001 24.7245C39.5229 24.7245 44.0001 29.2017 44.0001 34.7245C44.0001 37.4668 42.8962 39.9513 41.1086 41.7579L41.0712 41.7956L41.038 41.8286C39.231 43.6188 36.7447 44.7245 34.0001 44.7245C31.2742 44.7245 28.803 43.6338 26.9991 41.865C26.9757 41.842 26.9523 41.8188 26.929 41.7956C26.9071 41.7737 26.8853 41.7517 26.8636 41.7296C25.0925 39.9254 24.0001 37.4525 24.0001 34.7245C24.0001 40.2473 19.5229 44.7245 14.0001 44.7245C8.47721 44.7245 4.00006 40.2473 4.00006 34.7245V24.7245H14.0001C8.47721 24.7245 4.00006 20.2473 4.00006 14.7245C4.00006 9.20164 8.47721 4.72449 14.0001 4.72449ZM22.0001 14.7245C22.0001 19.1428 18.4184 22.7245 14.0001 22.7245V6.72449C18.4184 6.72449 22.0001 10.3062 22.0001 14.7245ZM42.0001 34.7245C42.0001 30.3062 38.4184 26.7245 34.0001 26.7245C29.5818 26.7245 26.0001 30.3062 26.0001 34.7245H42.0001ZM6.00006 26.7245V34.7245C6.00006 39.1428 9.58178 42.7245 14.0001 42.7245C18.4184 42.7245 22.0001 39.1428 22.0001 34.7245V26.7245H6.00006ZM26.0001 22.7245V6.72449H34.0001C38.4184 6.72449 42.0001 10.3062 42.0001 14.7245C42.0001 19.1428 38.4184 22.7245 34.0001 22.7245H26.0001Z" fill="#263238"/>
</g>
<g clip-path="url(#clip1_17_2827)">
<path fill-rule="evenodd" clip-rule="evenodd" d="M112.319 14.6859L102.333 24.5713C104.331 26.5486 106.612 28.215 109.1 29.5187C109.788 31.3243 110.865 33.0176 112.333 34.4708C117.856 39.9381 126.811 39.9381 132.333 34.4708C133.801 33.0176 134.879 31.3243 135.567 29.5186C138.054 28.215 140.336 26.5486 142.333 24.5713L132.356 14.6939C132.348 14.6866 132.341 14.6792 132.333 14.6718C126.811 9.20446 117.856 9.20446 112.333 14.6718C112.329 14.6765 112.324 14.6812 112.319 14.6859ZM131.378 31.3022C128.468 32.2744 125.413 32.7723 122.333 32.7723C119.254 32.7723 116.199 32.2744 113.289 31.3022C113.604 31.7163 113.952 32.1137 114.333 32.4909C118.752 36.8648 125.915 36.8648 130.333 32.4909C130.714 32.1137 131.063 31.7163 131.378 31.3022ZM114.538 16.4537C115.289 16.9444 116.087 17.3643 116.921 17.7066C118.637 18.4102 120.476 18.7723 122.333 18.7723C124.191 18.7723 126.03 18.4102 127.745 17.7066C128.58 17.3643 129.378 16.9444 130.128 16.4537C125.765 12.3438 118.902 12.3438 114.538 16.4537Z" fill="#3B4158"/>
</g>
<g clip-path="url(#clip2_17_2827)">
<path d="M248.662 20.2409C248.668 20.1992 248.668 20.1571 248.662 20.1154C248.668 20.0814 248.668 20.0468 248.662 20.0127L248.255 17.0801C248.196 16.7292 248.039 16.4013 247.801 16.1329L247.731 16.0531L247.603 15.9275L240.55 9.97096L240.747 10.165C240.586 9.97508 240.382 9.8232 240.153 9.72051C239.923 9.61782 239.673 9.56693 239.421 9.57159H237.279C236.931 9.56482 236.59 9.67337 236.313 9.87969C236.021 9.67462 235.67 9.56662 235.312 9.57159H233.17C232.889 9.56712 232.612 9.63546 232.367 9.76972C232.122 9.90397 231.917 10.0994 231.773 10.3361C231.552 10.6743 231.469 11.0817 231.54 11.4772L231.808 13.3258C231.631 13.2273 231.43 13.1761 231.226 13.1775H220.855C220.483 13.1798 220.12 13.2867 219.808 13.4856C219.506 13.6707 219.264 13.9358 219.109 14.2501L218.306 13.5769C217.99 13.2901 217.573 13.1347 217.142 13.1433H200.87C200.497 13.1499 200.132 13.2522 199.811 13.4399C199.372 13.6917 199.051 14.1009 198.915 14.581L193.747 31.5265C193.65 31.8057 193.641 32.1068 193.719 32.3914C193.798 32.6759 193.962 32.931 194.189 33.1241C194.248 33.1733 194.311 33.219 194.375 33.2609C194.375 33.2609 194.271 33.1925 194.212 33.1355L201.266 39.1034C201.564 39.3728 201.954 39.5233 202.36 39.5256H218.76C219.135 39.5161 219.5 39.4098 219.819 39.2175C220 39.1208 220.162 38.9933 220.297 38.8409L220.355 38.7611L220.448 38.647L220.518 38.5214L221.286 39.1719C221.58 39.4305 221.962 39.5728 222.357 39.5713H238.792C239.166 39.5591 239.531 39.453 239.851 39.2632C240.028 39.1605 240.188 39.0337 240.328 38.8866L240.387 38.8067L240.48 38.6927C240.529 38.6204 240.572 38.5441 240.608 38.4644C240.646 38.3952 240.677 38.3226 240.701 38.2476L245.415 22.7742V22.6373C245.421 22.5842 245.421 22.5306 245.415 22.4775V22.3748C245.421 22.3408 245.421 22.3061 245.415 22.2721C245.42 22.1999 245.42 22.1275 245.415 22.0553H246.928C247.06 22.0671 247.192 22.0671 247.324 22.0553H247.429C247.514 22.0304 247.596 21.9959 247.673 21.9526H247.789L247.999 21.7928L248.092 21.7244L248.255 21.5189V21.4505L248.371 21.2565C248.365 21.2188 248.365 21.1802 248.371 21.1424C248.365 21.1239 248.365 21.1039 248.371 21.0854C248.396 21.0185 248.416 20.9498 248.43 20.8799C248.424 20.8574 248.424 20.834 248.43 20.8115C248.424 20.7775 248.424 20.7428 248.43 20.7088C248.43 20.7088 248.662 20.2637 248.662 20.2409Z" fill="black"/>
<path d="M217.62 14.4442C217.681 14.499 217.724 14.571 217.743 14.6506C217.762 14.7302 217.755 14.8134 217.724 14.8892L212.568 31.8232C212.503 32.0081 212.37 32.1627 212.196 32.2569C212.053 32.3501 211.889 32.4052 211.718 32.4166H195.33C195.19 32.41 195.057 32.3532 194.957 32.2569C194.898 32.203 194.856 32.1329 194.837 32.0557C194.819 31.9785 194.824 31.8976 194.853 31.8232L200.021 14.8892C200.08 14.702 200.209 14.5433 200.381 14.4442C200.526 14.3577 200.69 14.3068 200.859 14.2958H217.247C217.386 14.2972 217.519 14.3502 217.62 14.4442ZM209.064 28.4114L212.149 18.3011H203.512L200.44 28.4114H209.064ZM233.263 14.6154C233.319 14.6791 233.389 14.7296 233.468 14.7632C233.546 14.7967 233.631 14.8125 233.717 14.8093H235.847C235.928 14.8101 236.008 14.7906 236.08 14.7527C236.151 14.7148 236.211 14.6596 236.255 14.5925C236.292 14.5401 236.319 14.4808 236.333 14.4181C236.347 14.3553 236.348 14.2905 236.336 14.2274L235.917 11.2149C235.877 11.0754 235.805 10.9467 235.708 10.8383C235.652 10.7746 235.582 10.7241 235.503 10.6905C235.424 10.6569 235.339 10.6411 235.254 10.6443H233.124C233.042 10.6435 232.962 10.663 232.891 10.701C232.82 10.7389 232.76 10.794 232.716 10.8611C232.635 11.0209 232.6 11.1236 232.635 11.2149L233.065 14.2274C233.087 14.3741 233.157 14.51 233.263 14.6154ZM240.026 11.192C239.986 11.0526 239.914 10.9239 239.816 10.8155C239.763 10.752 239.695 10.7015 239.618 10.6678C239.541 10.6342 239.458 10.6183 239.374 10.6215H237.232C237.152 10.6193 237.074 10.6382 237.004 10.6764C236.934 10.7146 236.876 10.7705 236.837 10.8383C236.759 10.9395 236.726 11.0667 236.743 11.192L237.174 14.2046C237.201 14.3497 237.27 14.4843 237.372 14.5925C237.429 14.655 237.499 14.7047 237.577 14.7381C237.656 14.7716 237.74 14.7881 237.826 14.7865H239.968C240.047 14.7875 240.126 14.7681 240.195 14.73C240.264 14.692 240.323 14.6367 240.363 14.5697C240.404 14.5187 240.432 14.4594 240.446 14.3962C240.46 14.333 240.46 14.2675 240.445 14.2046L240.026 11.192ZM231.389 15.7565L231.18 14.273H220.855C220.693 14.2818 220.536 14.333 220.401 14.4214C220.316 14.4672 220.241 14.5307 220.183 14.6076C220.125 14.6844 220.084 14.7727 220.064 14.8664L219.203 17.6963C219.168 17.767 219.156 17.8464 219.169 17.9238C219.181 18.0012 219.217 18.073 219.272 18.13C219.371 18.2204 219.499 18.2731 219.633 18.2783H232.181L229.096 28.3885H216.584C216.422 28.3921 216.265 28.4395 216.13 28.5254C215.965 28.6279 215.845 28.7864 215.792 28.9705L214.919 31.8004C214.891 31.873 214.883 31.9519 214.898 32.0285C214.912 32.105 214.948 32.1761 215.001 32.234C215.096 32.3305 215.225 32.3877 215.361 32.3938H231.797C231.967 32.3794 232.13 32.3246 232.274 32.234C232.446 32.1394 232.575 31.9845 232.635 31.8004L237.36 16.327H232.041C231.957 16.3286 231.873 16.3133 231.795 16.2819C231.717 16.2505 231.646 16.2037 231.587 16.1444C231.491 16.041 231.423 15.9154 231.389 15.7793V15.7565Z" fill="white"/>
</g>
<g clip-path="url(#clip3_17_2827)">
<path d="M339.997 14.136C339.997 14.1698 339.997 14.2121 339.988 14.2374C339.944 14.5671 339.944 14.8968 339.97 15.2349C339.988 15.3195 340.005 15.404 340.076 15.4716C340.19 15.5984 340.366 15.5731 340.437 15.4209C340.472 15.3448 340.472 15.2688 340.455 15.1927C340.366 14.8714 340.349 14.5333 340.34 14.2036C340.34 14.1867 340.34 14.1614 340.34 14.136C340.437 14.1275 340.525 14.1191 340.604 14.1191C340.666 14.1106 340.719 14.1022 340.763 14.0768C340.895 14.0092 340.895 13.8655 340.754 13.7979C340.701 13.7725 340.631 13.764 340.569 13.764C340.349 13.7725 340.129 13.7725 339.908 13.7725C339.829 13.7725 339.75 13.781 339.671 13.7894C339.627 13.7979 339.574 13.7979 339.539 13.8232C339.477 13.8486 339.442 13.8908 339.442 13.95C339.45 14.0092 339.477 14.043 339.539 14.0684C339.574 14.0937 339.618 14.1022 339.662 14.1022C339.768 14.1106 339.882 14.1275 339.997 14.136ZM342.419 14.5249C342.419 14.5333 342.427 14.5418 342.427 14.5418C342.463 14.77 342.498 14.9898 342.524 15.2096C342.533 15.2857 342.542 15.3533 342.595 15.4125C342.709 15.5562 342.886 15.5393 342.965 15.3871C343 15.311 343.009 15.2349 342.991 15.1504C342.938 14.8968 342.912 14.6432 342.859 14.3981C342.824 14.2459 342.78 14.1022 342.736 13.9669C342.709 13.8824 342.648 13.8232 342.542 13.8148C342.436 13.7979 342.357 13.8486 342.313 13.9247C342.26 13.9923 342.216 14.0599 342.181 14.136C342.119 14.2712 342.066 14.4065 341.996 14.5333C341.987 14.5671 341.978 14.5925 341.961 14.6178C341.952 14.6009 341.943 14.5925 341.943 14.5925C341.829 14.3811 341.723 14.1698 341.608 13.9669C341.591 13.95 341.582 13.9331 341.573 13.9162C341.52 13.8401 341.459 13.7979 341.362 13.7979C341.274 13.8063 341.203 13.857 341.159 13.9331C341.142 13.9669 341.142 13.9923 341.133 14.0261C341.098 14.2966 341.053 14.5671 341.018 14.8376C341.001 14.9898 340.992 15.142 340.992 15.2941C340.983 15.3279 340.992 15.3702 341.009 15.404C341.027 15.4716 341.08 15.5139 341.15 15.5224C341.238 15.5308 341.3 15.5055 341.327 15.4378C341.353 15.3871 341.362 15.3448 341.371 15.3026C341.406 15.1504 341.432 15.0067 341.459 14.863C341.476 14.7785 341.485 14.7108 341.512 14.6178C341.529 14.6517 341.547 14.677 341.564 14.7024C341.644 14.8038 341.723 14.9053 341.82 14.9898C341.917 15.0574 341.996 15.049 342.075 14.9729C342.093 14.956 342.102 14.9475 342.119 14.9306C342.199 14.8123 342.295 14.6939 342.375 14.5756C342.392 14.5587 342.401 14.5418 342.419 14.5249Z" fill="#3A3B7B"/>
<path d="M322.124 14.3021C322.063 14.4627 322.051 14.5785 322.08 14.6747C322.111 14.8055 322.192 14.8483 322.302 14.8151C323.337 14.5695 325.605 15.2665 326.445 15.4607C326.643 15.5015 326.804 15.2561 326.669 15.036C326.472 14.823 324.204 13.9107 323.339 13.8609C323 13.8425 322.394 13.7591 322.124 14.3021Z" fill="#3A3B7B"/>
<path d="M330.99 11.3488C331.101 11.4099 331.162 11.4682 331.193 11.5333C331.238 11.6187 331.214 11.6778 331.138 11.7079C330.454 12.0282 329.544 13.4073 329.177 13.883C329.088 13.9924 328.882 13.9288 328.851 13.7489C328.858 13.5454 329.664 12.0488 330.115 11.6412C330.291 11.482 330.584 11.1697 330.99 11.3488Z" fill="#3A3B7B"/>
<path d="M325.544 10.67C325.677 10.5742 325.815 10.5406 325.885 10.6029C326.917 11.4498 327.464 12.7909 327.803 14.0187C327.815 14.0473 327.816 14.0884 327.806 14.1312C327.802 14.1678 327.774 14.2064 327.73 14.2364C327.682 14.2694 327.642 14.2794 327.622 14.251C327.17 13.6607 324.587 11.3638 325.544 10.67Z" fill="#3A3B7B"/>
<path d="M303.695 25.3531C303.943 25.1764 304.211 25.0293 304.496 24.9151C304.793 24.8335 305.111 24.847 305.4 24.9537C305.689 25.0605 305.933 25.2546 306.097 25.5068C306.244 25.7583 306.301 26.0487 306.26 26.3342C306.22 26.6197 306.084 26.8848 305.873 27.0897C305.709 27.2558 305.523 27.4005 305.321 27.5201C304.416 28.081 303.503 28.6112 302.59 29.1721C302.404 29.3125 302.206 29.4385 301.998 29.5487C301.682 29.6998 301.321 29.7403 300.978 29.6631C300.634 29.586 300.33 29.396 300.116 29.1261C299.957 28.9349 299.823 28.7259 299.716 28.5036C298.851 26.7593 297.955 25.0227 297.122 23.2476C296.738 22.4793 296.426 21.5955 296.121 20.7426C295.99 20.4948 295.964 20.2075 296.05 19.9418C296.135 19.676 296.326 19.4528 296.58 19.3197C296.835 19.1866 297.133 19.154 297.412 19.2289C297.692 19.3038 297.929 19.4802 298.075 19.7206C298.523 20.2918 298.919 20.8985 299.26 21.5341C300.124 23.0709 300.949 24.6077 301.782 26.0985C301.83 26.1808 301.884 26.2603 301.942 26.3367C302.569 26.0838 303.158 25.7531 303.695 25.3531Z" fill="#3A3B7B"/>
<path d="M312.635 24.817C310.658 27.0376 307.343 26.4767 305.678 23.6182C304.493 21.5896 304.285 18.2393 306.863 16.1262C307.413 15.6838 308.072 15.3824 308.776 15.2502C309.64 15.1313 310.521 15.2776 311.294 15.6681C312.066 16.0587 312.689 16.6735 313.076 17.4248C314.485 19.8837 314.285 23.0188 312.635 24.817ZM311.835 19.6378C311.625 19.0336 311.203 18.5177 310.642 18.1778C310.324 17.9605 309.938 17.8549 309.549 17.8786C309.16 17.9024 308.791 18.0542 308.504 18.3084C307.359 19.2844 307.119 21.5973 307.952 22.9728C308.058 23.197 308.214 23.3964 308.409 23.5568C308.603 23.7172 308.832 23.8349 309.079 23.9014C309.326 23.9681 309.586 23.982 309.839 23.9424C310.092 23.9027 310.334 23.8105 310.546 23.672C311.166 23.2102 311.622 22.5743 311.848 21.8527C312.075 21.1311 312.062 20.3596 311.811 19.6455L311.835 19.6378Z" fill="#3A3B7B"/>
<path d="M320.706 20.6061C320.503 20.6479 320.294 20.6504 320.09 20.6134C319.887 20.5764 319.693 20.5008 319.521 20.391C319.37 20.308 319.24 20.1941 319.14 20.0572C319.04 19.9203 318.974 19.764 318.945 19.5993C318.916 19.4347 318.925 19.266 318.972 19.1053C319.019 18.9445 319.102 18.7958 319.216 18.6697C319.415 18.4163 319.697 18.2349 320.017 18.1549C320.852 17.9223 321.711 17.7806 322.579 17.7323C322.77 17.711 322.963 17.7265 323.147 17.7778C323.332 17.8292 323.503 17.9153 323.653 18.0313C323.802 18.1473 323.925 18.2907 324.016 18.4531C324.106 18.6155 324.162 18.7937 324.18 18.9771C324.43 19.8781 324.458 20.8227 324.26 21.7357C323.54 24.6864 321.058 25.7007 318.272 24.7555C317.49 24.5028 316.804 24.032 316.302 23.4031C315.633 22.6458 315.159 21.7484 314.917 20.7829C314.721 19.9231 314.743 19.0309 314.98 18.1808C315.216 17.3306 315.662 16.5471 316.278 15.8957C316.863 15.1878 317.623 14.6306 318.488 14.2744C319.035 13.9851 319.674 13.9029 320.281 14.0438C320.419 14.0804 320.544 14.1517 320.643 14.2502C320.742 14.3487 320.813 14.471 320.846 14.6043C320.88 14.7375 320.875 14.877 320.834 15.0081C320.792 15.1393 320.715 15.2574 320.61 15.3502C320.41 15.5239 320.192 15.6783 319.961 15.8112C319.249 16.2462 318.63 16.8068 318.136 17.4633C317.812 17.8881 317.589 18.3759 317.482 18.8923C317.375 19.4086 317.388 19.9412 317.519 20.4525C317.701 21.1495 318.104 21.7752 318.672 22.2428C320.433 23.7797 322.723 22.2966 322.323 20.1988C321.738 20.3372 321.226 20.4832 320.706 20.6061Z" fill="#3A3B7B"/>
<path d="M331.466 24.9399C328.864 26.4768 325.902 24.9399 325.253 21.7126C324.781 19.4074 325.678 16.18 328.816 14.9506C329.484 14.6946 330.208 14.6048 330.922 14.6893C331.779 14.8399 332.565 15.245 333.17 15.8475C333.775 16.4499 334.167 17.2193 334.292 18.0473C334.821 20.7905 333.62 23.7182 331.466 24.9399ZM332.371 19.7685C332.37 19.1302 332.135 18.5125 331.706 18.0242C331.477 17.7222 331.146 17.5059 330.769 17.4119C330.393 17.3181 329.994 17.3525 329.641 17.5094C328.232 18.0934 327.239 20.2142 327.599 21.7741C327.627 22.0189 327.709 22.255 327.842 22.4658C327.974 22.6767 328.153 22.8572 328.366 22.9948C328.579 23.1324 328.82 23.2237 329.074 23.2624C329.327 23.301 329.586 23.2861 329.833 23.2187C330.578 22.969 331.222 22.5023 331.677 21.8837C332.132 21.2652 332.375 20.5257 332.371 19.7685Z" fill="#3A3B7B"/>
<path d="M336.924 25.5854C336.884 25.8666 336.73 26.1214 336.495 26.2936C336.26 26.4658 335.964 26.5413 335.671 26.5036C335.378 26.4659 335.112 26.318 334.933 26.0925C334.753 25.867 334.675 25.5823 334.714 25.3011C334.753 25.0198 334.907 24.7651 335.142 24.5929C335.377 24.4207 335.674 24.3451 335.967 24.3828C336.26 24.4205 336.525 24.5684 336.705 24.7939C336.884 25.0194 336.963 25.3042 336.924 25.5854ZM336.227 15.2195C336.379 14.9963 336.603 14.8263 336.864 14.7349C337.125 14.6435 337.41 14.6356 337.676 14.7123C337.947 14.7773 338.186 14.9296 338.354 15.1436C338.521 15.3576 338.607 15.6204 338.597 15.888C338.562 16.3172 338.495 16.7434 338.397 17.1635C338.132 18.5851 337.876 20.0067 337.596 21.4129C337.468 21.9738 337.3 22.5117 337.116 23.0803C337.052 23.2581 336.945 23.4187 336.803 23.5491C336.716 23.6471 336.604 23.7224 336.478 23.7678C336.351 23.8132 336.215 23.8274 336.082 23.809C335.949 23.7906 335.823 23.7403 335.715 23.6626C335.607 23.5849 335.522 23.4824 335.466 23.3647C335.371 23.1534 335.32 22.9263 335.314 22.6961C335.314 21.7433 335.314 20.7828 335.378 19.8222C335.487 18.4515 335.701 17.0902 336.019 15.7497C336.056 15.5701 336.127 15.3983 336.227 15.2425V15.2195Z" fill="#3A3B7B"/>
<path fill-rule="evenodd" clip-rule="evenodd" d="M300.313 31.7602C300.218 31.9628 300.192 32.1886 300.238 32.4059C300.269 32.6923 300.337 32.9741 300.439 33.2447C300.568 33.5761 300.711 33.9038 300.888 34.3077C300.929 34.4006 300.971 34.4976 301.016 34.5997C301.254 35.1469 301.554 35.8462 301.953 36.8582C302.066 37.1457 302.167 37.4356 302.268 37.7274C302.309 37.8454 302.35 37.9637 302.392 38.0822C302.542 38.5038 302.801 38.8825 303.144 39.1827C303.289 39.3476 303.482 39.4678 303.699 39.5279C303.92 39.5892 304.155 39.5854 304.373 39.5168C304.592 39.4482 304.784 39.3181 304.924 39.1434C305.062 38.9721 305.144 38.7656 305.159 38.55C305.249 38.1299 305.218 37.6943 305.071 37.2893C304.837 36.6168 304.571 35.9434 304.265 35.2847L304.263 35.2818C303.758 34.2512 303.245 33.2278 302.708 32.2039L302.704 32.1967C302.547 31.93 302.342 31.6916 302.1 31.4921C301.942 31.3141 301.725 31.194 301.486 31.1526C301.241 31.1104 300.988 31.1529 300.773 31.2728C300.57 31.3844 300.408 31.555 300.313 31.7602Z" fill="#3A3B7B"/>
<path fill-rule="evenodd" clip-rule="evenodd" d="M308.022 29.2226C307.231 29.0259 306.404 28.9972 305.6 29.1386C304.977 29.1975 304.365 29.3354 303.94 29.6085C303.723 29.7475 303.548 29.926 303.451 30.1529C303.353 30.381 303.341 30.6418 303.421 30.9325C303.567 31.4649 303.757 31.9826 303.947 32.4986L303.977 32.5821L303.978 32.584C304.548 34.083 305.124 35.577 305.705 37.0658C305.773 37.3004 305.869 37.5268 305.991 37.7402L305.993 37.7442C306.154 38.0094 306.361 38.2466 306.604 38.4459C306.726 38.5554 306.876 38.6312 307.039 38.6651C307.204 38.6992 307.376 38.6893 307.535 38.6363C307.694 38.5834 307.836 38.4895 307.943 38.3648C308.049 38.2421 308.118 38.0944 308.144 37.9371C308.249 37.5099 308.215 37.062 308.047 36.6537C307.995 36.5162 307.954 36.3758 307.91 36.228C307.896 36.1787 307.881 36.1285 307.866 36.0774C309.196 35.5785 310.611 34.9076 311.108 33.3469C311.303 32.8075 311.32 32.2235 311.155 31.6749C310.99 31.1257 310.652 30.6389 310.187 30.2815C309.555 29.7813 308.816 29.4198 308.022 29.2226ZM305.829 31.1369C305.855 31.1297 305.881 31.123 305.908 31.1167C306.773 30.9861 307.659 31.1601 308.402 31.6067C308.729 31.8252 308.863 32.068 308.886 32.3016C308.91 32.5421 308.819 32.8027 308.636 33.0532C308.29 33.5264 307.659 33.9052 307.089 33.9758C306.673 33.0571 306.251 32.1013 305.829 31.1369Z" fill="#3A3B7B"/>
<path d="M313.299 27.5412C314.242 27.1234 315.409 27.0512 316.323 27.3449C316.553 27.4093 316.753 27.5484 316.888 27.7386C317.022 27.9275 317.084 28.1552 317.063 28.3829C317.062 28.5307 317.024 28.676 316.953 28.8072C316.88 28.9407 316.775 29.0556 316.647 29.142C316.519 29.2284 316.371 29.284 316.215 29.3038C316.06 29.3237 315.901 29.3074 315.754 29.2562L315.743 29.2523L315.732 29.247C315.657 29.2091 315.577 29.1805 315.494 29.1619L315.488 29.1608C314.846 28.997 314.239 29.2684 314.018 29.602C313.912 29.761 313.899 29.9216 313.987 30.0677C314.082 30.2241 314.313 30.3996 314.78 30.5247C314.909 30.5585 315.04 30.5912 315.174 30.6245C315.544 30.7163 315.928 30.8118 316.3 30.944L316.301 30.9446C318.015 31.5704 318.653 32.8667 318.435 34.0859C318.218 35.2915 317.169 36.3888 315.592 36.6476C315.018 36.7697 314.42 36.746 313.858 36.5786C313.295 36.4107 312.788 36.1045 312.386 35.69L312.376 35.6792C312.249 35.5231 312.164 35.3397 312.126 35.145C312.091 34.9694 312.11 34.7879 312.179 34.6218C312.247 34.4568 312.364 34.314 312.514 34.2099C312.672 34.0919 312.863 34.0211 313.063 34.0064C313.263 33.9917 313.462 34.0333 313.637 34.1259C313.812 34.207 313.975 34.3104 314.121 34.4334L314.123 34.4356C314.382 34.6623 314.694 34.7214 314.994 34.6667C315.298 34.6112 315.583 34.4385 315.767 34.2095C315.95 33.9819 316.023 33.7116 315.936 33.4491C315.849 33.1848 315.585 32.8886 315.007 32.6409C314.856 32.5793 314.699 32.5296 314.536 32.4812C314.492 32.4682 314.447 32.4552 314.402 32.442C314.281 32.4069 314.157 32.3707 314.036 32.3308C313.952 32.3034 313.869 32.2775 313.786 32.2517C313.561 32.1814 313.342 32.1128 313.131 32.0209C312.672 31.8707 312.275 31.5824 311.999 31.1987C311.723 30.8133 311.584 30.3526 311.603 29.8852C311.604 28.746 312.352 27.9613 313.299 27.5412Z" fill="#3A3B7B"/>
<path d="M325.249 27.4198C325.066 27.3341 324.864 27.2934 324.661 27.3014C324.457 27.3094 324.259 27.3659 324.085 27.4657C323.911 27.5648 323.766 27.7036 323.661 27.8698C323.566 28.0097 323.5 28.1662 323.467 28.3305C323.434 28.4947 323.435 28.6634 323.469 28.8272C323.503 29.0377 323.541 29.2424 323.578 29.4443C323.64 29.7784 323.7 30.105 323.739 30.4379L323.741 30.4464C323.831 30.9686 323.878 31.4967 323.882 32.026L323.883 32.0335C323.914 32.605 323.711 33.1655 323.318 33.5958L323.311 33.6035C323.184 33.7608 323.013 33.8809 322.817 33.9503C322.622 34.0197 322.411 34.0357 322.207 33.9964C322.003 33.9571 321.815 33.8642 321.663 33.7279C321.511 33.5917 321.401 33.417 321.347 33.2245C321.23 32.8187 321.162 32.4013 321.145 31.9807L321.344 28.9315C321.347 28.8917 321.351 28.8509 321.354 28.8096C321.362 28.717 321.37 28.6227 321.373 28.5347C321.378 28.4052 321.373 28.2721 321.342 28.1461C321.31 28.0173 321.249 27.8948 321.14 27.7904C321.033 27.6872 320.888 27.611 320.705 27.5591C320.375 27.4674 320.096 27.4703 319.864 27.565C319.631 27.6597 319.472 27.8356 319.359 28.0387C319.247 28.2401 319.175 28.4786 319.121 28.7175C319.08 28.8947 319.048 29.0807 319.017 29.2578C319.006 29.3189 318.996 29.3788 318.985 29.437L318.985 29.4387C318.82 30.4099 318.771 31.3961 318.839 32.378C318.851 32.9086 318.967 33.4324 319.179 33.9226C319.418 34.555 319.852 35.103 320.422 35.4942C320.994 35.8861 321.676 36.1021 322.379 36.1135C323.081 36.1249 323.771 35.9312 324.356 35.5581C324.94 35.1855 325.393 34.6515 325.654 34.0268C326.02 33.2309 326.192 32.3654 326.156 31.4962C326.135 30.8616 326.099 30.2222 326.063 29.5859C326.046 29.2739 326.028 28.9624 326.012 28.6529C326.004 28.3426 325.898 28.042 325.707 27.7914C325.589 27.6331 325.431 27.5053 325.249 27.4198Z" fill="#3A3B7B"/>
<path d="M331.717 32.2009C331.699 32.2235 331.679 32.2469 331.659 32.2712C331.51 31.4481 331.372 30.6253 331.234 29.8012C331.185 29.5056 331.135 29.2087 331.085 28.9126L331.08 28.8796L331.061 28.851C331.027 28.7973 331.023 28.7447 331.023 28.6324V28.6194L331.021 28.6065C330.984 28.3746 330.875 28.1587 330.708 27.9872C330.541 27.8162 330.325 27.6972 330.087 27.6455C329.85 27.5893 329.6 27.6017 329.37 27.6812C329.14 27.7604 328.94 27.9029 328.794 28.0908C328.673 28.2349 328.574 28.3948 328.499 28.5657C328.331 28.9337 328.16 29.3026 327.989 29.6726L327.987 29.679C327.56 30.6026 327.131 31.5324 326.714 32.4694L326.713 32.4725C326.457 33.0801 326.246 33.7203 326.035 34.3586C325.993 34.486 325.951 34.6133 325.909 34.7403C325.833 34.9418 325.799 35.1557 325.811 35.3696C325.797 35.561 325.845 35.7521 325.948 35.9168C326.053 36.0848 326.21 36.217 326.397 36.2949C326.596 36.3785 326.818 36.3962 327.028 36.3453C327.238 36.2945 327.425 36.1782 327.558 36.0148C327.729 35.8134 327.876 35.5938 327.995 35.3611C328.348 34.6679 328.686 33.9662 329.022 33.2676C329.152 32.9974 329.278 32.7554 329.422 32.4918C329.432 32.5243 329.442 32.556 329.452 32.5878C329.603 33.2241 329.857 33.8336 330.205 34.394C330.271 34.5127 330.363 34.6164 330.474 34.6981C330.587 34.7807 330.717 34.8387 330.856 34.8682C330.994 34.8977 331.138 34.8978 331.277 34.8686C331.415 34.8395 331.546 34.7814 331.658 34.6992L331.882 34.5387L333.616 33.137L333.513 33.7641C333.372 34.6261 333.233 35.481 333.084 36.336C332.987 36.715 332.987 37.1108 333.085 37.4897C333.127 37.7029 333.234 37.8992 333.393 38.0535C333.554 38.2091 333.759 38.3149 333.983 38.357C334.206 38.3992 334.438 38.3758 334.648 38.2899C334.855 38.2054 335.03 38.0639 335.153 37.8837C335.439 37.5433 335.617 37.1311 335.666 36.6963C335.74 36.0823 335.823 35.4599 335.906 34.8378C336.002 34.1206 336.097 33.4036 336.178 32.7005L336.179 32.6983C336.257 31.9285 336.294 31.1556 336.292 30.3822C336.309 30.1378 336.245 29.8944 336.11 29.6863C335.975 29.4775 335.774 29.3152 335.537 29.2223C335.29 29.1146 335.013 29.0858 334.748 29.1402C334.485 29.1943 334.246 29.3276 334.068 29.5206C333.748 29.8045 333.448 30.1083 333.169 30.43L333.168 30.4321C332.864 30.7955 332.562 31.166 332.262 31.5341C332.08 31.7578 331.898 31.9811 331.717 32.2009Z" fill="#3A3B7B"/>
</g>
<defs>
<clipPath id="clip0_17_2827">
<rect width="40" height="40" fill="white" transform="translate(4.00006 4.72449)"/>
</clipPath>
<clipPath id="clip1_17_2827">
<rect width="40" height="28" fill="white" transform="translate(102.333 10.5713)"/>
</clipPath>
<clipPath id="clip2_17_2827">
<rect width="55" height="30" fill="white" transform="translate(193.667 9.57129)"/>
</clipPath>
<clipPath id="clip3_17_2827">
<rect width="47" height="29" fill="white" transform="translate(296 10.5713)"/>
</clipPath>
</defs>
</svg>
