<svg width="347" height="49" viewBox="0 0 347 49" fill="none" xmlns="http://www.w3.org/2000/svg">
<g clip-path="url(#clip0_17_2854)">
<path d="M42.4375 12.415C42.4375 12.881 42.8199 13.2588 43.2917 13.2588H44.1458C44.6176 13.2588 45 12.881 45 12.415C45 11.949 44.6176 11.5713 44.1458 11.5713H43.2917C42.8199 11.5713 42.4375 11.949 42.4375 12.415Z" fill="#212326"/>
<path d="M17.6667 38.5713H21.8161L20.6081 37.378C20.2877 37.0616 19.8532 36.8838 19.4001 36.8838H17.6667C11.0623 36.8838 5.70833 31.5952 5.70833 25.0713C5.70833 18.5474 11.0623 13.2588 17.6667 13.2588H31.3333C37.9378 13.2588 43.2917 18.5474 43.2917 25.0713C43.2917 31.5952 37.9378 36.8838 31.3333 36.8838H26.2209C25.5413 36.8838 24.8895 36.6171 24.4089 36.1424L22.9937 34.7444C22.1928 33.9533 21.1064 33.5088 19.9737 33.5088H17.6667C12.9492 33.5088 9.125 29.7312 9.125 25.0713C9.125 20.4114 12.9492 16.6338 17.6667 16.6338H31.3333C36.0508 16.6338 39.875 20.4114 39.875 25.0713C39.875 29.7312 36.0508 33.5088 31.3333 33.5088H28.0507C27.371 33.5088 26.7193 33.2421 26.2387 32.7674L24.8234 31.3694C24.0225 30.5783 22.9362 30.1338 21.8035 30.1338H17.6667C14.8362 30.1338 12.5417 27.8672 12.5417 25.0713C12.5417 22.2754 14.8362 20.0088 17.6667 20.0088H31.3333C34.1638 20.0088 36.4583 22.2754 36.4583 25.0713C36.4583 27.8331 34.2194 30.0784 31.4367 30.1328L31.4361 30.1338H30.1861C29.5064 30.1338 28.8547 29.8671 28.3741 29.3924L26.9588 27.9944C26.3017 27.3452 25.4524 26.9295 24.5429 26.8012L24.5 26.7588H17.6667C16.7232 26.7588 15.9583 26.0033 15.9583 25.0713C15.9583 24.1393 16.7232 23.3838 17.6667 23.3838H31.3333C32.2768 23.3838 33.0417 24.1393 33.0417 25.0713C33.0417 26.0033 32.2768 26.7588 31.3333 26.7588H27.9167L29.1247 27.9521C29.445 28.2685 29.8795 28.4463 30.3326 28.4463H31.3333C33.2203 28.4463 34.75 26.9352 34.75 25.0713C34.75 23.2073 33.2203 21.6963 31.3333 21.6963H17.6667C15.7797 21.6963 14.25 23.2073 14.25 25.0713C14.25 26.9352 15.7797 28.4463 17.6667 28.4463H23.9389C24.6186 28.4463 25.2703 28.713 25.7509 29.1876L27.1662 30.5856C27.9671 31.3768 29.0534 31.8213 30.1861 31.8213H31.7604V31.8083C35.3354 31.5906 38.1667 28.6575 38.1667 25.0713C38.1667 21.3434 35.1072 18.3213 31.3333 18.3213H17.6667C13.8928 18.3213 10.8333 21.3434 10.8333 25.0713C10.8333 28.7992 13.8928 31.8213 17.6667 31.8213H21.8035C22.4831 31.8213 23.1349 32.088 23.6155 32.5626L25.0307 33.9606C25.8317 34.7518 26.918 35.1963 28.0507 35.1963H31.3333C36.9943 35.1963 41.5833 30.6632 41.5833 25.0713C41.5833 19.4794 36.9943 14.9463 31.3333 14.9463H17.6667C12.0057 14.9463 7.41667 19.4794 7.41667 25.0713C7.41667 30.6632 12.0057 35.1963 17.6667 35.1963H19.9737C20.6534 35.1963 21.3051 35.463 21.7857 35.9376L23.201 37.3356C24.0019 38.1268 25.0882 38.5713 26.2209 38.5713H31.3333C38.8812 38.5713 45 32.5271 45 25.0713C45 17.6154 38.8812 11.5713 31.3333 11.5713L17.6667 11.5713C10.1188 11.5713 4 17.6154 4 25.0713C4 32.5271 10.1188 38.5713 17.6667 38.5713Z" fill="#212326"/>
</g>
<g clip-path="url(#clip1_17_2854)">
<path d="M140.771 12.415C140.771 12.881 141.153 13.2588 141.625 13.2588H142.479C142.951 13.2588 143.333 12.881 143.333 12.415C143.333 11.949 142.951 11.5713 142.479 11.5713H141.625C141.153 11.5713 140.771 11.949 140.771 12.415Z" fill="#212326"/>
<path d="M116 38.5713H120.149L118.941 37.378C118.621 37.0616 118.187 36.8838 117.733 36.8838H116C109.396 36.8838 104.042 31.5952 104.042 25.0713C104.042 18.5474 109.396 13.2588 116 13.2588H129.667C136.271 13.2588 141.625 18.5474 141.625 25.0713C141.625 31.5952 136.271 36.8838 129.667 36.8838H124.554C123.875 36.8838 123.223 36.6171 122.742 36.1424L121.327 34.7444C120.526 33.9533 119.44 33.5088 118.307 33.5088H116C111.283 33.5088 107.458 29.7312 107.458 25.0713C107.458 20.4114 111.283 16.6338 116 16.6338H129.667C134.384 16.6338 138.208 20.4114 138.208 25.0713C138.208 29.7312 134.384 33.5088 129.667 33.5088H126.384C125.704 33.5088 125.053 33.2421 124.572 32.7674L123.157 31.3694C122.356 30.5783 121.27 30.1338 120.137 30.1338H116C113.17 30.1338 110.875 27.8672 110.875 25.0713C110.875 22.2754 113.17 20.0088 116 20.0088H129.667C132.497 20.0088 134.792 22.2754 134.792 25.0713C134.792 27.8331 132.553 30.0784 129.77 30.1328L129.769 30.1338H128.519C127.84 30.1338 127.188 29.8671 126.707 29.3924L125.292 27.9944C124.635 27.3452 123.786 26.9295 122.876 26.8012L122.833 26.7588H116C115.057 26.7588 114.292 26.0033 114.292 25.0713C114.292 24.1393 115.057 23.3838 116 23.3838H129.667C130.61 23.3838 131.375 24.1393 131.375 25.0713C131.375 26.0033 130.61 26.7588 129.667 26.7588H126.25L127.458 27.9521C127.778 28.2685 128.213 28.4463 128.666 28.4463H129.667C131.554 28.4463 133.083 26.9352 133.083 25.0713C133.083 23.2073 131.554 21.6963 129.667 21.6963H116C114.113 21.6963 112.583 23.2073 112.583 25.0713C112.583 26.9352 114.113 28.4463 116 28.4463H122.272C122.952 28.4463 123.604 28.713 124.084 29.1876L125.499 30.5856C126.3 31.3768 127.387 31.8213 128.519 31.8213H130.094V31.8083C133.669 31.5906 136.5 28.6575 136.5 25.0713C136.5 21.3434 133.441 18.3213 129.667 18.3213H116C112.226 18.3213 109.167 21.3434 109.167 25.0713C109.167 28.7992 112.226 31.8213 116 31.8213H120.137C120.816 31.8213 121.468 32.088 121.949 32.5626L123.364 33.9606C124.165 34.7518 125.251 35.1963 126.384 35.1963H129.667C135.328 35.1963 139.917 30.6632 139.917 25.0713C139.917 19.4794 135.328 14.9463 129.667 14.9463H116C110.339 14.9463 105.75 19.4794 105.75 25.0713C105.75 30.6632 110.339 35.1963 116 35.1963H118.307C118.987 35.1963 119.638 35.463 120.119 35.9376L121.534 37.3356C122.335 38.1268 123.422 38.5713 124.554 38.5713H129.667C137.215 38.5713 143.333 32.5271 143.333 25.0713C143.333 17.6154 137.215 11.5713 129.667 11.5713L116 11.5713C108.452 11.5713 102.333 17.6154 102.333 25.0713C102.333 32.5271 108.452 38.5713 116 38.5713Z" fill="#212326"/>
</g>
<g clip-path="url(#clip2_17_2854)">
<path d="M207.01 14.5713C204.979 14.5713 203.032 15.378 201.596 16.8139L196.909 21.5002C195.473 22.9362 194.667 24.8837 194.667 26.9144C194.667 31.1432 198.095 34.5713 202.324 34.5713C204.354 34.5713 206.302 33.7646 207.738 32.3286L210.979 29.0871C210.979 29.087 210.979 29.0872 210.979 29.0871L220.424 19.6424C221.11 18.9566 222.04 18.5713 223.01 18.5713C224.634 18.5713 226.01 19.6296 226.487 21.094L229.468 18.1133C228.108 15.9835 225.724 14.5713 223.01 14.5713C220.979 14.5713 219.032 15.378 217.596 16.8139L204.909 29.5002C204.224 30.186 203.293 30.5713 202.324 30.5713C200.304 30.5713 198.667 28.9341 198.667 26.9144C198.667 25.9446 199.052 25.0144 199.738 24.3286L204.424 19.6424C205.11 18.9566 206.04 18.5713 207.01 18.5713C208.634 18.5713 210.01 19.6296 210.487 21.0941L213.468 18.1133C212.108 15.9836 209.724 14.5713 207.01 14.5713Z" fill="#394149"/>
<path d="M220.909 29.5002C220.224 30.186 219.293 30.5713 218.324 30.5713C216.7 30.5713 215.324 29.5133 214.846 28.0491L211.865 31.0298C213.225 33.1592 215.61 34.5713 218.324 34.5713C220.354 34.5713 222.302 33.7646 223.738 32.3286L236.424 19.6424C237.11 18.9566 238.04 18.5713 239.01 18.5713C241.029 18.5713 242.667 20.2085 242.667 22.2282C242.667 23.198 242.281 24.1282 241.596 24.814L236.909 29.5002C236.224 30.186 235.293 30.5713 234.324 30.5713C232.7 30.5713 231.323 29.5131 230.846 28.0488L227.865 31.0295C229.225 33.1592 231.609 34.5713 234.324 34.5713C236.354 34.5713 238.302 33.7646 239.738 32.3286L244.424 27.6424C245.86 26.2064 246.667 24.2589 246.667 22.2282C246.667 17.9994 243.239 14.5713 239.01 14.5713C236.979 14.5713 235.032 15.378 233.596 16.8139L220.909 29.5002Z" fill="#394149"/>
</g>
<g clip-path="url(#clip3_17_2854)">
<path d="M346.996 20.2409C347.001 20.1992 347.001 20.1571 346.996 20.1154C347.001 20.0814 347.001 20.0468 346.996 20.0127L346.588 17.0801C346.53 16.7292 346.372 16.4013 346.134 16.1329L346.064 16.0531L345.937 15.9275L338.883 9.97096L339.081 10.165C338.919 9.97508 338.716 9.8232 338.486 9.72051C338.256 9.61782 338.006 9.56693 337.754 9.57159H335.612C335.264 9.56482 334.924 9.67337 334.646 9.87969C334.355 9.67462 334.004 9.56662 333.645 9.57159H331.503C331.222 9.56712 330.945 9.63546 330.7 9.76972C330.455 9.90397 330.25 10.0994 330.107 10.3361C329.885 10.6743 329.802 11.0817 329.874 11.4772L330.142 13.3258C329.964 13.2273 329.763 13.1761 329.56 13.1775H319.189C318.817 13.1798 318.453 13.2867 318.141 13.4856C317.839 13.6707 317.597 13.9358 317.443 14.2501L316.64 13.5769C316.324 13.2901 315.906 13.1347 315.476 13.1433H299.204C298.83 13.1499 298.465 13.2522 298.144 13.4399C297.706 13.6917 297.384 14.1009 297.248 14.581L292.08 31.5265C291.984 31.8057 291.974 32.1068 292.053 32.3914C292.132 32.6759 292.295 32.931 292.522 33.1241C292.582 33.1733 292.644 33.219 292.709 33.2609C292.709 33.2609 292.604 33.1925 292.546 33.1355L299.599 39.1034C299.898 39.3728 300.288 39.5233 300.693 39.5256H317.094C317.468 39.5161 317.833 39.4098 318.153 39.2175C318.333 39.1208 318.495 38.9933 318.63 38.8409L318.688 38.7611L318.781 38.647L318.851 38.5214L319.619 39.1719C319.913 39.4305 320.295 39.5728 320.69 39.5713H337.125C337.499 39.5591 337.864 39.453 338.184 39.2632C338.361 39.1605 338.522 39.0337 338.662 38.8866L338.72 38.8067L338.813 38.6927C338.863 38.6204 338.905 38.5441 338.941 38.4644C338.979 38.3952 339.01 38.3226 339.034 38.2476L343.748 22.7742V22.6373C343.754 22.5842 343.754 22.5306 343.748 22.4775V22.3748C343.754 22.3408 343.754 22.3061 343.748 22.2721C343.753 22.1999 343.753 22.1275 343.748 22.0553H345.261C345.393 22.0671 345.525 22.0671 345.657 22.0553H345.762C345.847 22.0304 345.929 21.9959 346.006 21.9526H346.123L346.332 21.7928L346.425 21.7244L346.588 21.5189V21.4505L346.705 21.2565C346.698 21.2188 346.698 21.1802 346.705 21.1424C346.698 21.1239 346.698 21.1039 346.705 21.0854C346.729 21.0185 346.749 20.9498 346.763 20.8799C346.757 20.8574 346.757 20.834 346.763 20.8115C346.757 20.7775 346.757 20.7428 346.763 20.7088C346.763 20.7088 346.996 20.2637 346.996 20.2409Z" fill="black"/>
<path d="M315.953 14.4442C316.015 14.499 316.058 14.571 316.077 14.6506C316.095 14.7302 316.089 14.8134 316.058 14.8892L310.901 31.8232C310.836 32.0081 310.704 32.1627 310.529 32.2569C310.387 32.3501 310.222 32.4052 310.052 32.4166H293.663C293.523 32.41 293.391 32.3532 293.291 32.2569C293.231 32.203 293.189 32.1329 293.171 32.0557C293.152 31.9785 293.157 31.8976 293.186 31.8232L298.354 14.8892C298.413 14.702 298.542 14.5433 298.715 14.4442C298.859 14.3577 299.023 14.3068 299.192 14.2958H315.58C315.719 14.2972 315.852 14.3502 315.953 14.4442ZM307.398 28.4114L310.482 18.3011H301.846L298.773 28.4114H307.398ZM331.596 14.6154C331.652 14.6791 331.722 14.7296 331.801 14.7632C331.88 14.7967 331.965 14.8125 332.05 14.8093H334.18C334.262 14.8101 334.342 14.7906 334.413 14.7527C334.484 14.7148 334.544 14.6596 334.588 14.5925C334.626 14.5401 334.652 14.4808 334.666 14.4181C334.68 14.3553 334.681 14.2905 334.669 14.2274L334.25 11.2149C334.21 11.0754 334.139 10.9467 334.041 10.8383C333.985 10.7746 333.915 10.7241 333.836 10.6905C333.758 10.6569 333.673 10.6411 333.587 10.6443H331.457C331.376 10.6435 331.296 10.663 331.224 10.701C331.153 10.7389 331.093 10.794 331.049 10.8611C330.968 11.0209 330.933 11.1236 330.968 11.2149L331.399 14.2274C331.421 14.3741 331.49 14.51 331.596 14.6154ZM338.359 11.192C338.319 11.0526 338.248 10.9239 338.15 10.8155C338.096 10.752 338.028 10.7015 337.952 10.6678C337.875 10.6342 337.791 10.6183 337.707 10.6215H335.566C335.486 10.6193 335.407 10.6382 335.337 10.6764C335.268 10.7146 335.21 10.7705 335.17 10.8383C335.092 10.9395 335.059 11.0667 335.077 11.192L335.507 14.2046C335.534 14.3497 335.603 14.4843 335.705 14.5925C335.762 14.655 335.832 14.7047 335.911 14.7381C335.989 14.7716 336.074 14.7881 336.159 14.7865H338.301C338.381 14.7875 338.459 14.7681 338.528 14.73C338.598 14.692 338.656 14.6367 338.697 14.5697C338.737 14.5187 338.765 14.4594 338.78 14.3962C338.794 14.333 338.793 14.2675 338.778 14.2046L338.359 11.192ZM329.723 15.7565L329.513 14.273H319.189C319.027 14.2818 318.87 14.333 318.735 14.4214C318.649 14.4672 318.574 14.5307 318.516 14.6076C318.458 14.6844 318.417 14.7727 318.397 14.8664L317.536 17.6963C317.502 17.767 317.49 17.8464 317.502 17.9238C317.515 18.0012 317.551 18.073 317.606 18.13C317.704 18.2204 317.832 18.2731 317.967 18.2783H330.514L327.43 28.3885H314.917C314.756 28.3921 314.599 28.4395 314.463 28.5254C314.298 28.6279 314.178 28.7864 314.126 28.9705L313.253 31.8004C313.224 31.873 313.217 31.9519 313.231 32.0285C313.245 32.105 313.281 32.1761 313.334 32.234C313.429 32.3305 313.558 32.3877 313.695 32.3938H330.13C330.3 32.3794 330.464 32.3246 330.607 32.234C330.779 32.1394 330.908 31.9845 330.968 31.8004L335.694 16.327H330.374C330.29 16.3286 330.206 16.3133 330.128 16.2819C330.05 16.2505 329.979 16.2037 329.92 16.1444C329.824 16.041 329.756 15.9154 329.723 15.7793V15.7565Z" fill="white"/>
</g>
<defs>
<clipPath id="clip0_17_2854">
<rect width="41" height="27" fill="white" transform="translate(4 11.5713)"/>
</clipPath>
<clipPath id="clip1_17_2854">
<rect width="41" height="27" fill="white" transform="translate(102.333 11.5713)"/>
</clipPath>
<clipPath id="clip2_17_2854">
<rect width="52" height="20" fill="white" transform="translate(194.667 14.5713)"/>
</clipPath>
<clipPath id="clip3_17_2854">
<rect width="55" height="30" fill="white" transform="translate(292 9.57129)"/>
</clipPath>
</defs>
</svg>
