<svg width="427" height="74" viewBox="0 0 427 74" fill="none" xmlns="http://www.w3.org/2000/svg">
<rect x="0.574219" y="0.300049" width="227.368" height="72.3445" rx="4" fill="#6960F5"/>
<path d="M55.3716 41.2437H47.2422V28.8355H55.3716V30.2121H48.7862V34.2118H55.2414V35.5884H48.7862V39.867H55.3716V41.2437ZM65.2188 41.2437H63.619L60.9029 37.5603L58.2055 41.2437H56.6057L60.0472 36.6301L56.7917 32.2585H58.4101L60.9029 35.6814L63.4143 32.2585H65.0142L61.7587 36.6301L65.2188 41.2437ZM71.2704 41.4669C70.0426 41.4669 68.9822 40.8716 68.2381 39.8856V44.6666H66.8429V32.2585H68.2381V33.5979C68.8892 32.6863 70.0054 32.0352 71.2704 32.0352C73.633 32.0352 75.27 33.8211 75.27 36.7418C75.27 39.6438 73.633 41.4669 71.2704 41.4669ZM70.9169 40.2205C72.7214 40.2205 73.8004 38.7323 73.8004 36.7418C73.8004 34.7513 72.7214 33.2816 70.9169 33.2816C69.8194 33.2816 68.7218 33.9327 68.2381 34.714V38.7695C68.7218 39.5508 69.8194 40.2205 70.9169 40.2205ZM78.8839 41.2437H77.4887V28.8355H78.8839V41.2437ZM85.5923 41.4669C82.8577 41.4669 81.1462 39.3462 81.1462 36.7418C81.1462 34.1374 82.8577 32.0352 85.5923 32.0352C88.3269 32.0352 90.0384 34.1374 90.0384 36.7418C90.0384 39.3462 88.3269 41.4669 85.5923 41.4669ZM85.5923 40.2205C87.5084 40.2205 88.5687 38.5834 88.5687 36.7418C88.5687 34.9187 87.5084 33.2816 85.5923 33.2816C83.6762 33.2816 82.6158 34.9187 82.6158 36.7418C82.6158 38.5834 83.6762 40.2205 85.5923 40.2205ZM93.7081 41.2437H92.3129V32.2585H93.7081V33.6909C94.4336 32.7607 95.4754 32.0538 96.7031 32.0538V33.4863C96.5357 33.4677 96.3683 33.449 96.1637 33.449C95.2893 33.449 94.1173 34.156 93.7081 34.8815V41.2437ZM102.527 41.4669C99.8485 41.4669 97.9324 39.5508 97.9324 36.7418C97.9324 34.1374 99.7927 32.0352 102.36 32.0352C105.076 32.0352 106.676 34.156 106.676 36.8534V37.2068H99.4206C99.5322 38.8997 100.704 40.3135 102.639 40.3135C103.681 40.3135 104.704 39.9042 105.429 39.1601L106.099 40.0717C105.188 40.9646 103.978 41.4669 102.527 41.4669ZM105.299 36.1651C105.281 34.8443 104.388 33.1886 102.341 33.1886C100.425 33.1886 99.4764 34.8071 99.402 36.1651H105.299ZM119.684 41.4669C116.112 41.4669 113.303 38.8625 113.303 35.0489C113.303 31.2353 116.112 28.6309 119.684 28.6309C121.879 28.6309 123.405 29.6727 124.391 31.0865L123.107 31.812C122.4 30.7516 121.098 30.0075 119.684 30.0075C116.968 30.0075 114.903 32.0724 114.903 35.0489C114.903 37.9881 116.968 40.0903 119.684 40.0903C121.098 40.0903 122.4 39.3276 123.107 38.2858L124.409 38.9927C123.367 40.4251 121.879 41.4669 119.684 41.4669ZM130.246 41.4669C127.512 41.4669 125.8 39.3462 125.8 36.7418C125.8 34.1374 127.512 32.0352 130.246 32.0352C132.981 32.0352 134.693 34.1374 134.693 36.7418C134.693 39.3462 132.981 41.4669 130.246 41.4669ZM130.246 40.2205C132.163 40.2205 133.223 38.5834 133.223 36.7418C133.223 34.9187 132.163 33.2816 130.246 33.2816C128.33 33.2816 127.27 34.9187 127.27 36.7418C127.27 38.5834 128.33 40.2205 130.246 40.2205ZM144.427 41.2437H143.032V39.9787C142.343 40.76 141.171 41.4669 139.832 41.4669C137.953 41.4669 136.967 40.5367 136.967 38.602V32.2585H138.362V38.1742C138.362 39.7554 139.162 40.2205 140.39 40.2205C141.469 40.2205 142.511 39.588 143.032 38.8625V32.2585H144.427V41.2437ZM148.608 41.2437H147.213V32.2585H148.608V33.6909C149.334 32.7607 150.376 32.0538 151.603 32.0538V33.4863C151.436 33.4677 151.269 33.449 151.064 33.449C150.19 33.449 149.018 34.156 148.608 34.8815V41.2437ZM156.218 41.4669C154.73 41.4669 153.502 41.0018 152.591 40.0531L153.298 39.0485C153.893 39.7368 155.028 40.3321 156.256 40.3321C157.632 40.3321 158.395 39.681 158.395 38.7881C158.395 36.6115 152.833 37.9509 152.833 34.621C152.833 33.2072 154.023 32.0352 156.163 32.0352C157.707 32.0352 158.786 32.6119 159.492 33.3374L158.841 34.3048C158.302 33.6537 157.335 33.17 156.163 33.17C154.935 33.17 154.172 33.7839 154.172 34.5838C154.172 36.5371 159.734 35.2535 159.734 38.7509C159.734 40.2577 158.525 41.4669 156.218 41.4669ZM166.075 41.4669C163.396 41.4669 161.48 39.5508 161.48 36.7418C161.48 34.1374 163.34 32.0352 165.908 32.0352C168.624 32.0352 170.223 34.156 170.223 36.8534V37.2068H162.968C163.08 38.8997 164.252 40.3135 166.187 40.3135C167.228 40.3135 168.252 39.9042 168.977 39.1601L169.647 40.0717C168.735 40.9646 167.526 41.4669 166.075 41.4669ZM168.847 36.1651C168.828 34.8443 167.935 33.1886 165.889 33.1886C163.973 33.1886 163.024 34.8071 162.95 36.1651H168.847ZM175.348 41.4669C173.86 41.4669 172.632 41.0018 171.721 40.0531L172.427 39.0485C173.023 39.7368 174.158 40.3321 175.385 40.3321C176.762 40.3321 177.525 39.681 177.525 38.7881C177.525 36.6115 171.962 37.9509 171.962 34.621C171.962 33.2072 173.153 32.0352 175.292 32.0352C176.836 32.0352 177.915 32.6119 178.622 33.3374L177.971 34.3048C177.432 33.6537 176.464 33.17 175.292 33.17C174.064 33.17 173.302 33.7839 173.302 34.5838C173.302 36.5371 178.864 35.2535 178.864 38.7509C178.864 40.2577 177.655 41.4669 175.348 41.4669Z" fill="white"/>
<path d="M342.153 39.5203H334.842V27.1121H336.386V38.1437H342.153V39.5203ZM343.348 35.0184C343.348 32.414 345.209 30.3118 347.776 30.3118C350.492 30.3118 352.092 32.4326 352.092 35.13V35.4834H344.818C344.93 37.1763 346.12 38.5901 348.055 38.5901C349.078 38.5901 350.12 38.1809 350.827 37.4553L351.497 38.3669C350.604 39.2598 349.394 39.7435 347.925 39.7435C345.265 39.7435 343.348 37.8274 343.348 35.0184ZM347.757 31.4652C345.841 31.4652 344.892 33.0837 344.818 34.4603H350.715C350.697 33.1209 349.804 31.4652 347.757 31.4652ZM361.365 39.5203H359.97V38.4971C359.226 39.3156 358.202 39.7435 356.993 39.7435C355.468 39.7435 353.849 38.7203 353.849 36.767C353.849 34.7579 355.468 33.8092 356.993 33.8092C358.221 33.8092 359.244 34.1998 359.97 35.037V33.4185C359.97 32.2093 359.002 31.521 357.7 31.521C356.621 31.521 355.747 31.9117 354.947 32.7674L354.296 31.8001C355.263 30.7955 356.417 30.3118 357.886 30.3118C359.784 30.3118 361.365 31.1676 361.365 33.3441V39.5203ZM359.97 37.6228V35.9299C359.43 35.1858 358.481 34.8137 357.496 34.8137C356.193 34.8137 355.282 35.6323 355.282 36.7856C355.282 37.9204 356.193 38.7389 357.496 38.7389C358.481 38.7389 359.43 38.3669 359.97 37.6228ZM365.557 39.5203H364.162V30.5351H365.557V31.9861C366.282 31.0374 367.324 30.349 368.552 30.349V31.7815C368.385 31.7443 368.217 31.7257 367.994 31.7257C367.138 31.7257 365.966 32.4326 365.557 33.1581V39.5203ZM377.762 39.5203H376.367V33.6418C376.367 32.0605 375.567 31.5582 374.358 31.5582C373.26 31.5582 372.218 32.2279 371.697 32.9534V39.5203H370.302V30.5351H371.697V31.8373C372.33 31.0932 373.558 30.3118 374.897 30.3118C376.776 30.3118 377.762 31.2606 377.762 33.2139V39.5203ZM397.548 39.5203H396.004V29.1957L391.781 39.5203H391.148L386.944 29.1957V39.5203H385.4V27.1121H387.614L391.465 36.5624L395.334 27.1121H397.548V39.5203ZM404.312 39.7435C401.577 39.7435 399.866 37.6228 399.866 35.0184C399.866 32.414 401.577 30.3118 404.312 30.3118C407.046 30.3118 408.758 32.414 408.758 35.0184C408.758 37.6228 407.046 39.7435 404.312 39.7435ZM404.312 38.4971C406.228 38.4971 407.288 36.8601 407.288 35.0184C407.288 33.1953 406.228 31.5582 404.312 31.5582C402.396 31.5582 401.317 33.1953 401.317 35.0184C401.317 36.8601 402.396 38.4971 404.312 38.4971ZM412.427 39.5203H411.032V30.5351H412.427V31.9861C413.153 31.0374 414.195 30.349 415.423 30.349V31.7815C415.255 31.7443 415.088 31.7257 414.864 31.7257C414.009 31.7257 412.837 32.4326 412.427 33.1581V39.5203ZM416.652 35.0184C416.652 32.414 418.512 30.3118 421.079 30.3118C423.795 30.3118 425.395 32.4326 425.395 35.13V35.4834H418.121C418.233 37.1763 419.424 38.5901 421.358 38.5901C422.381 38.5901 423.423 38.1809 424.13 37.4553L424.8 38.3669C423.907 39.2598 422.698 39.7435 421.228 39.7435C418.568 39.7435 416.652 37.8274 416.652 35.0184ZM421.061 31.4652C419.145 31.4652 418.196 33.0837 418.121 34.4603H424.018C424 33.1209 423.107 31.4652 421.061 31.4652Z" fill="white"/>
<mask id="path-4-inside-1_11_646" fill="white">
<path d="M296.153 0.816878C291.403 0.816878 286.699 1.7525 282.311 3.57033C277.922 5.38815 273.935 8.05258 270.576 11.4115C267.217 14.7704 264.552 18.758 262.735 23.1466C260.917 27.5352 259.981 32.2389 259.981 36.9891C259.981 41.7393 260.917 46.443 262.735 50.8316C264.552 55.2203 267.217 59.2079 270.576 62.5668C273.935 65.9257 277.922 68.5901 282.311 70.4079C286.699 72.2258 291.403 73.1614 296.153 73.1614L296.153 36.9891L296.153 0.816878Z"/>
</mask>
<path d="M296.153 0.816878C291.403 0.816878 286.699 1.7525 282.311 3.57033C277.922 5.38815 273.935 8.05258 270.576 11.4115C267.217 14.7704 264.552 18.758 262.735 23.1466C260.917 27.5352 259.981 32.2389 259.981 36.9891C259.981 41.7393 260.917 46.443 262.735 50.8316C264.552 55.2203 267.217 59.2079 270.576 62.5668C273.935 65.9257 277.922 68.5901 282.311 70.4079C286.699 72.2258 291.403 73.1614 296.153 73.1614L296.153 36.9891L296.153 0.816878Z" stroke="white" stroke-width="2" mask="url(#path-4-inside-1_11_646)"/>
<circle cx="296.153" cy="36.9892" r="25.8373" fill="#6960F5"/>
<g clip-path="url(#clip0_11_646)">
<path fill-rule="evenodd" clip-rule="evenodd" d="M286.813 36.989C286.916 37.1679 287.054 37.3959 287.224 37.6592C287.66 38.3355 288.307 39.2348 289.147 40.1305C290.844 41.9403 293.216 43.6205 296.153 43.6205C299.091 43.6205 301.463 41.9403 303.159 40.1305C303.999 39.2348 304.646 38.3355 305.083 37.6592C305.253 37.3959 305.39 37.1679 305.494 36.989C305.39 36.81 305.253 36.582 305.083 36.3187C304.646 35.6425 303.999 34.7431 303.159 33.8474C301.463 32.0376 299.091 30.3574 296.153 30.3574C293.216 30.3574 290.844 32.0376 289.147 33.8474C288.307 34.7431 287.66 35.6425 287.224 36.3187C287.054 36.582 286.916 36.81 286.813 36.989ZM306.574 36.989C307.422 36.5653 307.421 36.565 307.421 36.5646L307.42 36.5616L307.416 36.5551L307.406 36.5341C307.397 36.5165 307.384 36.4919 307.367 36.4607C307.334 36.3985 307.287 36.3099 307.224 36.1988C307.099 35.9768 306.915 35.6641 306.674 35.2908C306.193 34.546 305.478 33.5506 304.542 32.5515C302.686 30.5719 299.847 28.4626 296.153 28.4626C292.459 28.4626 289.621 30.5719 287.765 32.5515C286.828 33.5506 286.113 34.546 285.632 35.2908C285.391 35.6641 285.207 35.9768 285.082 36.1988C285.02 36.3099 284.972 36.3985 284.939 36.4607C284.922 36.4919 284.91 36.5165 284.901 36.5341L284.89 36.5551L284.887 36.5616L284.886 36.5638C284.885 36.5641 284.885 36.5653 285.732 36.989L284.885 36.5653C284.751 36.832 284.751 37.1459 284.885 37.4126L285.732 36.989C284.885 37.4126 284.885 37.4123 284.885 37.4126L284.887 37.4163L284.89 37.4228L284.901 37.4439C284.91 37.4614 284.922 37.486 284.939 37.5172C284.972 37.5795 285.02 37.668 285.082 37.7791C285.207 38.0011 285.391 38.3138 285.632 38.6871C286.113 39.4319 286.828 40.4273 287.765 41.4264C289.621 43.406 292.459 45.5153 296.153 45.5153C299.847 45.5153 302.686 43.406 304.542 41.4264C305.478 40.4273 306.193 39.4319 306.674 38.6871C306.915 38.3138 307.099 38.0011 307.224 37.7791C307.287 37.668 307.334 37.5795 307.367 37.5172C307.384 37.486 307.397 37.4614 307.406 37.4439L307.416 37.4228L307.42 37.4163L307.421 37.4141C307.421 37.4138 307.422 37.4126 306.574 36.989ZM306.574 36.989L307.422 37.4126C307.555 37.1459 307.555 36.8313 307.421 36.5646L306.574 36.989Z" fill="white"/>
<path fill-rule="evenodd" clip-rule="evenodd" d="M296.153 35.0942C295.107 35.0942 294.259 35.9425 294.259 36.9889C294.259 38.0354 295.107 38.8837 296.153 38.8837C297.2 38.8837 298.048 38.0354 298.048 36.9889C298.048 35.9425 297.2 35.0942 296.153 35.0942ZM292.364 36.9889C292.364 34.8961 294.06 33.1995 296.153 33.1995C298.246 33.1995 299.943 34.8961 299.943 36.9889C299.943 39.0818 298.246 40.7784 296.153 40.7784C294.06 40.7784 292.364 39.0818 292.364 36.9889Z" fill="white"/>
</g>
<defs>
<clipPath id="clip0_11_646">
<rect width="22.7368" height="22.7368" fill="white" transform="translate(284.785 25.6206)"/>
</clipPath>
</defs>
</svg>
