<svg width="92" height="60" viewBox="0 0 92 60" fill="none" xmlns="http://www.w3.org/2000/svg">
<path d="M43.5126 22.2061C42.2678 19.9295 40.674 17.8804 39.2695 15.7078C38.2833 14.1822 37.2342 12.6973 36.2445 11.1739C35.6876 10.3168 35.8805 9.92166 36.9006 9.90976C39.6605 9.87755 42.4209 9.89733 45.1812 9.90062C46.1525 9.90177 46.7944 10.4184 47.3173 11.1992C50.6506 16.1765 54.0001 21.1428 57.3462 26.1114C58.568 27.9257 59.8044 29.7301 61.0153 31.5516C61.617 32.4566 61.4492 32.8842 60.4049 32.9018C57.5784 32.9494 54.7504 32.9354 51.9232 32.9158C51.0378 32.9097 50.4691 32.3777 49.9862 31.6557C47.8924 28.525 45.7626 25.4183 43.5849 22.2603C43.5238 22.2177 43.5126 22.2061 43.5126 22.2061Z" fill="#6960F5"/>
<path d="M43.5296 22.2235C43.674 22.6966 43.4601 23.0798 43.2413 23.4622C41.7243 26.1137 40.1894 28.7552 38.6999 31.4221C38.1119 32.4747 37.288 32.9579 36.0839 32.9397C34.0016 32.908 31.9183 32.9379 29.8354 32.9382C29.567 32.9382 29.297 32.9304 29.0305 32.9013C27.3322 32.7155 27.2524 32.3885 28.056 30.9262C29.3482 28.5748 30.6525 26.23 31.9411 23.8768C32.6318 22.6155 33.5221 22.0501 35.0065 22.1106C37.7874 22.2239 40.5754 22.1649 43.4366 22.1919C43.5127 22.2063 43.5238 22.2179 43.5296 22.2235Z" fill="#6960F5"/>
<path d="M15.202 50.2482C15.5193 51.2438 16.0392 52.0908 16.1788 53.1183C15.4538 53.4285 14.7128 53.2839 13.9975 53.314C13.5413 53.3332 13.3838 52.942 13.2965 52.5744C13.1152 51.8111 12.6343 51.5679 11.8873 51.6267C11.2858 51.6739 10.6734 51.679 10.0731 51.6236C9.1351 51.537 8.40922 51.7022 8.19426 52.7788C8.13952 53.053 7.9309 53.2572 7.62097 53.2666C6.89418 53.2889 6.16232 53.3585 5.4896 53.2121C5.34114 52.7876 5.497 52.5148 5.60495 52.2367C6.71176 49.3854 7.85167 46.5463 8.91058 43.6773C9.2326 42.8049 9.76005 42.5949 10.5956 42.6514C11.4474 42.709 12.2835 42.4936 12.683 43.6811C13.4216 45.8766 14.3329 48.014 15.202 50.2482ZM11.7549 48.0878C11.4662 47.3132 11.1775 46.5387 10.7979 45.5202C10.2743 46.8927 9.79114 48.0008 9.51845 49.1959C10.5486 49.4115 11.1659 49.4038 12.0246 49.1789C12.0483 48.8481 11.9458 48.5361 11.7549 48.0878Z" fill="#1A1A1A"/>
<path d="M16.9776 47.5877C16.978 47.2874 16.9773 47.0863 16.9788 46.8851C16.9881 45.6243 17.8036 45.0256 18.906 45.6621C19.5092 46.0104 19.8522 45.8666 20.3355 45.6409C20.6877 45.4764 21.118 45.1924 21.4486 45.5574C21.8114 45.958 21.6602 46.5146 21.6234 47.0099C21.587 47.4991 21.2061 47.5257 20.8237 47.5859C19.4635 47.7999 19.2768 48.0327 19.2732 49.419C19.2706 50.4247 19.2453 51.431 19.2731 52.4359C19.2988 53.3655 18.6855 53.3034 18.0565 53.3203C17.4012 53.3378 16.9508 53.2321 16.968 52.4134C17.0011 50.8385 16.9776 49.2624 16.9776 47.5877Z" fill="#1A1A1A"/>
<path d="M27.4124 50.0447C26.5537 50.0849 25.7829 49.949 25.0195 50.1401C25.4308 51.3919 26.6258 51.8329 28.0668 51.146C28.8361 50.7792 29.156 51.0736 29.525 51.6341C29.8164 52.0767 29.6937 52.3596 29.2991 52.6447C27.8053 53.7238 24.8377 53.4786 23.5634 52.1564C22.2074 50.7492 22.103 48.2398 23.3354 46.6725C24.3889 45.3326 26.2283 44.8033 27.7725 45.3958C29.4276 46.0307 30.4741 47.6146 30.3848 49.313C30.3583 49.8172 30.1237 50.0426 29.6299 50.04C28.9239 50.0364 28.2178 50.0425 27.4124 50.0447ZM25.0619 47.878C24.9978 48.0854 24.966 48.3262 25.2497 48.3405C26.1679 48.3866 27.0946 48.5074 28.0192 48.2603C27.5216 46.8377 26.1959 46.6383 25.0619 47.878Z" fill="#1A1A1A"/>
<path d="M34.0882 45.2107C34.3705 45.1864 34.601 45.1097 34.7688 45.1809C35.8844 45.6544 37.0028 45.6299 38.1691 45.3769C38.8935 45.2199 39.1654 45.6403 39.1452 46.3795C39.0965 48.162 39.1302 49.9466 39.0917 51.7295C39.0817 52.1915 39.3526 52.8852 38.7132 53.0427C38.0774 53.1992 37.3108 53.3939 36.7764 52.6938C36.3358 52.8703 35.9185 53.0982 35.4722 53.2048C34.1974 53.5093 33.0613 53.2356 32.1848 52.2139C30.2497 49.9582 31.2265 46.2363 34.0882 45.2107ZM34.1798 47.7023C33.4564 48.6782 33.3693 49.9411 33.9914 50.6642C34.5457 51.3086 35.2679 51.3555 36.0188 51.1462C36.8087 50.9259 36.9491 50.3252 36.9419 49.5774C36.9216 47.4643 35.9815 46.7427 34.1798 47.7023Z" fill="#1A1A1A"/>
<path d="M47.3354 47.1143C50.2158 47.1163 50.1125 47.1211 50.2419 49.8716C50.3183 51.4961 49.3959 52.156 48.2188 52.7476C46.1507 53.7871 43.2208 53.375 41.6179 51.84C39.9281 50.2218 39.4627 47.6788 40.4413 45.4109C41.8402 42.1693 46.7692 41.2151 49.2324 43.7338C49.5329 44.041 50.1604 44.3612 49.7126 44.9744C49.2533 45.6035 48.0844 45.7994 47.5725 45.3789C46.2715 44.3105 44.7298 44.2866 43.5405 45.3165C42.4212 46.2857 42.1714 48.3057 43.0008 49.6801C43.7116 50.8579 45.3421 51.3817 46.7412 50.8429C47.1925 50.6692 47.7829 50.511 47.6382 49.8255C47.5074 49.2061 46.9471 49.4583 46.5523 49.3819C45.958 49.2669 45.1183 49.7037 44.9164 48.6906C44.6736 47.4726 44.9769 47.1191 46.2274 47.1155C46.5635 47.1145 46.8996 47.1147 47.3354 47.1143Z" fill="#1A1A1A"/>
<path d="M53.218 51.2013C53.2171 51.5364 53.2178 51.7717 53.2153 52.0069C53.2018 53.2793 53.0691 53.3807 51.8231 53.3024C51.2741 53.2679 51.0423 53.0508 51.0438 52.5026C51.0514 49.5114 51.0619 46.5199 51.0352 43.5288C51.0258 42.4761 51.7501 42.7049 52.3568 42.6624C53.0778 42.6118 53.2761 42.9727 53.2663 43.6413C53.23 46.1277 53.2311 48.6147 53.218 51.2013Z" fill="#1A1A1A"/>
<path d="M56.457 53.004C54.2661 51.7527 53.4928 49.4879 54.4759 47.3938C55.3495 45.5328 57.6094 44.6584 59.6076 45.4081C61.7282 46.2037 62.7624 48.2586 62.1445 50.4486C61.5834 52.4369 59.6551 53.6115 57.513 53.2604C57.1825 53.2062 56.859 53.1096 56.457 53.004ZM56.4479 49.7619C56.9436 51.0282 57.6492 51.4652 58.7113 51.1636C59.5799 50.9169 60.0625 50.0171 59.9253 48.9C59.799 47.8715 59.0975 47.2312 58.1272 47.2349C57.4932 47.2373 57.0354 47.5263 56.7329 48.06C56.4629 48.5364 56.3428 49.0546 56.4479 49.7619Z" fill="#1A1A1A"/>
<path d="M70.5609 51.4631C69.4024 53.2838 67.8711 53.7649 66.0344 52.9157C65.749 52.7837 65.6084 52.7317 65.2674 52.9293C64.0521 53.6335 63.1329 53.0667 63.1311 51.6945C63.1276 49.0044 63.1573 46.3137 63.111 43.6244C63.0958 42.7402 63.393 42.4508 64.2722 42.4536C65.1405 42.4564 65.5124 42.734 65.448 43.6199C65.3997 44.2848 65.4385 44.9559 65.4385 45.5649C65.7687 45.8262 65.9562 45.5976 66.1529 45.5156C68.3272 44.6087 70.4548 45.7268 70.8882 48.0331C71.1024 49.1735 71.0756 50.3069 70.5609 51.4631ZM68.5184 48.2476C68.0419 47.3223 67.2833 47.0764 66.3188 47.3418C65.3596 47.6057 65.4091 48.3732 65.4337 49.1285C65.4435 49.4307 65.444 49.7332 65.4444 50.0356C65.4455 50.7341 65.8655 51.0598 66.4869 51.189C68.0752 51.5192 69.0044 50.2668 68.5184 48.2476Z" fill="#1A1A1A"/>
<path d="M72.8711 46.2413C74.0796 45.1038 75.3563 44.8314 76.7792 45.6395C77.0613 45.7998 77.2344 45.8061 77.5654 45.6133C78.8507 44.8647 79.7433 45.4143 79.7465 46.8879C79.7499 48.4983 79.7501 50.1087 79.745 51.7191C79.7406 53.0865 78.8323 53.6596 77.6137 52.9887C77.2959 52.8138 77.1423 52.805 76.8414 52.9306C74.3736 53.9605 72.4402 52.9182 71.9168 50.2741C71.6296 48.823 71.8659 47.4734 72.8711 46.2413ZM76.2955 51.2373C77.0391 51.0786 77.5084 50.7005 77.4542 49.859C77.4261 49.4242 77.4323 48.9856 77.4494 48.5497C77.4732 47.9453 77.1344 47.6169 76.621 47.428C75.9463 47.1797 75.2765 47.1706 74.7563 47.7361C74.1111 48.4374 73.9632 49.2666 74.3056 50.1679C74.626 51.0112 75.2547 51.3418 76.2955 51.2373Z" fill="#1A1A1A"/>
<path d="M80.5442 45.568C80.544 44.9644 80.5419 44.4614 80.5443 43.9584C80.55 42.764 81.1762 42.3412 82.3488 42.7082C82.8215 42.8562 82.8286 43.2293 82.8298 43.5915C82.8392 46.5424 82.8235 49.4934 82.8438 52.4441C82.8502 53.3766 82.2441 53.3053 81.6192 53.3205C80.9661 53.3364 80.5265 53.2301 80.5379 52.4087C80.5693 50.1624 80.546 47.9154 80.5442 45.568Z" fill="#1A1A1A"/>
<path d="M55.5344 7.95158C55.2065 8.43029 55.3496 8.89464 55.4491 9.32151C54.8452 9.46262 54.8144 8.91358 54.4794 8.7507C54.085 8.72426 54.3214 9.31173 53.9046 9.33239C53.8701 9.31103 53.7533 9.2809 53.7183 9.21026C53.5 8.7698 53.612 8.29312 53.5972 7.83102C53.5799 7.29229 53.6412 6.80101 54.3695 6.8196C55.0688 6.83746 55.6677 6.95892 55.5344 7.95158Z" fill="#6960F5"/>
<path d="M55.0731 5.95891C56.2857 6.51702 56.9277 7.41147 56.8368 8.33771C56.744 9.28242 56.0064 10.1379 55.0924 10.316C54.1695 10.4958 53.355 10.3 52.7691 9.50711C52.1905 8.72404 52.1617 7.85806 52.6298 7.05039C53.1384 6.17295 53.9434 5.74229 55.0731 5.95891ZM55.9033 7.13999C55.3467 6.54165 54.6609 6.35155 53.9005 6.6136C53.2805 6.82726 52.9385 7.33098 52.8801 7.97961C52.8146 8.70629 53.0922 9.28704 53.7506 9.64688C54.4141 10.0095 55.0539 9.92448 55.6097 9.44348C56.3113 8.83633 56.394 8.08813 55.9033 7.13999Z" fill="#6960F5"/>
</svg>
