<svg width="25" height="25" viewBox="0 0 25 25" fill="none" xmlns="http://www.w3.org/2000/svg">
<path d="M6.231 2.66871C6.14245 2.5548 6.03068 2.46104 5.90311 2.39365C5.77554 2.32626 5.63508 2.28678 5.49108 2.27785C5.34708 2.26891 5.20283 2.29071 5.0679 2.34181C4.93297 2.39291 4.81046 2.47213 4.7085 2.57421L3.1575 4.12671C2.433 4.85271 2.166 5.88021 2.4825 6.78171C3.79611 10.5131 5.93295 13.9009 8.7345 16.6937C11.5274 19.4952 14.9151 21.6321 18.6465 22.9457C19.548 23.2622 20.5755 22.9952 21.3015 22.2707L22.8525 20.7197C22.9546 20.6178 23.0338 20.4952 23.0849 20.3603C23.136 20.2254 23.1578 20.0811 23.1489 19.9371C23.1399 19.7931 23.1005 19.6527 23.0331 19.5251C22.9657 19.3975 22.8719 19.2858 22.758 19.1972L19.2975 16.5062C19.1758 16.4118 19.0343 16.3463 18.8836 16.3146C18.7329 16.2829 18.5769 16.2859 18.4275 16.3232L15.1425 17.1437C14.704 17.2533 14.2446 17.2475 13.8091 17.1268C13.3735 17.0062 12.9766 16.7748 12.657 16.4552L8.973 12.7697C8.65316 12.4503 8.42149 12.0534 8.30057 11.6179C8.17965 11.1823 8.1736 10.7228 8.283 10.2842L9.10501 6.99921C9.14237 6.84981 9.14531 6.69386 9.11361 6.54316C9.08191 6.39245 9.01639 6.25091 8.922 6.12921L6.231 2.66871ZM3.576 1.44321C3.8385 1.18064 4.15385 0.976908 4.50111 0.845554C4.84838 0.7142 5.21962 0.658227 5.59018 0.681352C5.96074 0.704476 6.32213 0.806169 6.65038 0.979677C6.97862 1.15319 7.26619 1.39454 7.494 1.68771L10.185 5.14671C10.6785 5.78121 10.8525 6.60771 10.6575 7.38771L9.837 10.6727C9.79458 10.8429 9.79687 11.0211 9.84366 11.1901C9.89044 11.3591 9.98013 11.5131 10.104 11.6372L13.7895 15.3227C13.9138 15.4468 14.068 15.5367 14.2373 15.5835C14.4066 15.6303 14.5851 15.6324 14.7555 15.5897L18.039 14.7692C18.4239 14.673 18.8257 14.6655 19.2139 14.7474C19.6022 14.8292 19.9667 14.9983 20.28 15.2417L23.739 17.9327C24.9825 18.9002 25.0965 20.7377 23.9835 21.8492L22.4325 23.4002C21.3225 24.5102 19.6635 24.9977 18.117 24.4532C14.1588 23.0605 10.5649 20.7945 7.602 17.8232C4.63094 14.8607 2.36492 11.2674 0.972004 7.30971C0.429004 5.76471 0.916505 4.10421 2.0265 2.99421L3.5775 1.44321H3.576Z" fill="white"/>
</svg>
