<svg width="261" height="92" viewBox="0 0 261 92" fill="none" xmlns="http://www.w3.org/2000/svg">
<path d="M77.6735 110.192C76.2227 105.831 75.2543 101.053 73.2474 97.1739C49.9842 52.2136 26.5247 7.42341 3.26307 -37.5384C3.26307 -37.5384 -1.7921 -53.3724 1.73291 -53.3724C5.25791 -53.3724 3.01477 -53.3724 10.2146 -53.3724C37.8795 -53.7118 65.5504 -53.2932 93.2141 -53.706C103.01 -53.8521 109.845 -49.1129 115.27 -38.6359C151.208 30.766 187.334 100.005 223.43 169.269C235.046 191.558 246.859 213.677 258.312 236.104C260.002 239.412 261.764 245.159 260.652 247.68C259.464 250.373 254.919 251.669 251.826 251.704C223.916 252.019 196.003 251.84 168.091 251.992C158.511 252.044 151.476 247.391 146.029 236.743C124.988 195.618 103.56 154.825 82.2192 113.958C81.2992 112.196 79.8203 110.923 78.115 109.784C77.6283 110.147 77.6735 110.192 77.6735 110.192Z" fill="#6867EB" fill-opacity="0.43"/>
</svg>
